<svg id="Capa_1" data-name="Capa 1" xmlns="http://www.w3.org/2000/svg" viewBox="0 0 1700.79 1700.79"><defs><style>.cls-1{fill:#49a6ba;}.cls-2{fill:#007a94;}.cls-3{fill:#f7f4ef;}.cls-4{fill:#d27a2c;}.cls-5{fill:#8ab242;}.cls-6{fill:#57a480;}.cls-7{fill:#fff;}.cls-8{fill:#ab1822;}.cls-9{fill:#d17624;}.cls-10{fill:#eecf45;}.cls-11{fill:#e2ab54;}</style></defs><title>m</title><path class="cls-1" d="M1100.78,1237c.42,8,1.31,16,1.21,24-2.22,171.56-3.81,343.14-7.06,514.67-3.3,173.73-132.31,300.5-281.67,278.61-114.8-16.82-205.73-126.63-213-259.4-2.14-39-.38-78.24.06-117.37q2.31-207.26,5.06-414.5c.16-12.53-1.69-25.43,3.34-37.44,57.8-13.21,115.29-27.81,174.47-32.11C891.5,1185.56,997.05,1201.93,1100.78,1237Z" transform="translate(-599.19 -390.39)"/><path class="cls-2" d="M1100.78,1237c-103.73-35-209.28-51.4-317.62-43.53-59.18,4.3-116.67,18.9-174.47,32.11q1.66-198.33,3.37-396.67c.38-41.43.24-82.9,2-124.27,4.79-115.42,50.85-202.75,142.22-252.37,89-48.36,176.72-36.54,255.43,30.62,62.89,53.66,97.7,129,97.52,219.32-.34,176.05-4.35,352.09-6.91,528.13C1102.25,1232.53,1101.3,1234.74,1100.78,1237Zm-235-552.87c-6.42-3.56-5.08-11.73-7.86-17.46-6.75-13.86-17.68-18.92-30.18-15.1s-19.54,14.08-20.3,30c-.72,14.92,5.59,24,16.75,28.49,12.18,4.86,23.58,2.29,31.73-10.45,3.39-5.29,3.57-13.16,9.87-16.15,12.2-2.19,8.68,12,13.51,17.62,12.91,15.12,30.52,17.11,41.41,1.84,10.25-14.36,9.42-30.07-1.32-43.24-11.18-13.71-30.5-9.3-41.33,6.81C874.08,672.33,878,685.81,865.79,684.09ZM999.14,545.15c-21.4-22.34-45.45-44.59-74.17-59.41-9.21-4.76-19.89-12.1-26.29,1.11-7,14.37,5.14,19.56,14.08,24.61,81.73,46.2,125.89,120.91,130.49,225.69.51,11.52-.08,26,13.59,25.82,14.34-.18,12.31-15,12-26.24C1066.94,663.7,1044.27,600.42,999.14,545.15Zm-272-.57c-43.5,45.76-63.43,105-72.26,169.83-1.72,12.66-8.23,34.66,10.12,37.18,14.17,1.95,8.35-19.54,13.18-29.61,1-2,2.31-4,2.57-6.1,12.13-99.3,59.94-167.22,138.91-207.74,8.35-4.28,18.73-8.3,14.4-21.54-5.16-15.78-16.09-8.83-25.25-4.79C777.45,495.65,751.2,518.38,727.15,544.58Zm16,307.62c-11.42,12.2-12.87,33.31-3.08,44.55,10.94,12.56,23.74,16.09,37,3.76a32.21,32.21,0,0,0,2-44.75C767.37,842.71,754.69,842.87,743.12,852.2Zm213.21-93.4c-12.46-11.06-25.75-12.33-37.46.87s-11.38,29-1.15,43.26c9.56,13.33,30.15,13,40-.4C968.23,788.17,967.47,773.39,956.33,758.8Zm-2.45,96.69c-13.5,15-13.89,33.15-3.6,45.7,10.82,13.21,30.09,13.95,39.63.24,9.86-14.16,10.64-30.68-1.17-43.14C977.49,846.42,963.66,845.48,953.88,855.49ZM846.65,900.24c10.85-13.32,12.2-27.86,1.18-42.26s-24.56-14.31-37.43-3.92c-11.61,9.38-12.75,35.16-1.82,46C820.33,911.79,833.52,913.57,846.65,900.24ZM777.37,754.47c-11.41,12.2-12.24,33-3.15,45.07,9.95,13.26,29,14,39.61.93,11.45-14.08,10.58-29.17-.49-42.45C802,744.46,788.89,745.44,777.37,754.47ZM880.29,809.4c15.39-19.54,16.32-42.72,3.84-52.95-13-10.68-26.46-9.65-37.79,4.26-10.5,12.89-9.44,31.42,2.82,42.46C859.72,812.68,871.34,815.94,880.29,809.4Zm-.81,47.73c-10.49,14-11.53,28.65-1,42.9,10.34,13.94,28.14,13.62,39-.33,11.09-14.18,10.74-29.08-.91-42.17S892,845.34,879.48,857.13Zm8.3-251.76c10.65-13,10.48-33.27-.48-44.1-12.78-12.62-25.92-10.75-37.63,2-10.46,11.37-10.25,33.25.63,43.08C863,617.75,876.09,617,887.78,605.37Z" transform="translate(-599.19 -390.39)"/><path class="cls-3" d="M999.14,545.15c45.13,55.27,67.8,118.55,69.72,191.58.29,11.22,2.32,26.06-12,26.24-13.67.17-13.08-14.3-13.59-25.82-4.6-104.78-48.76-179.49-130.49-225.69-8.94-5-21-10.24-14.08-24.61,6.4-13.21,17.08-5.87,26.29-1.11C953.69,500.56,977.74,522.81,999.14,545.15Z" transform="translate(-599.19 -390.39)"/><path class="cls-3" d="M727.15,544.58c24.05-26.2,50.3-48.93,81.67-62.77,9.16-4,20.09-11,25.25,4.79,4.33,13.24-6.05,17.26-14.4,21.54-79,40.52-126.78,108.44-138.91,207.74-.26,2.13-1.61,4.11-2.57,6.1-4.83,10.07,1,31.56-13.18,29.61-18.35-2.52-11.84-24.52-10.12-37.18C663.72,649.61,683.65,590.34,727.15,544.58Z" transform="translate(-599.19 -390.39)"/><path class="cls-3" d="M743.12,852.2c11.57-9.33,24.25-9.49,35.93,3.56a32.21,32.21,0,0,1-2,44.75c-13.22,12.33-26,8.8-37-3.76C730.25,885.51,731.7,864.4,743.12,852.2Z" transform="translate(-599.19 -390.39)"/><path class="cls-3" d="M865.79,684.09c12.22,1.72,8.29-11.76,12.28-17.69,10.83-16.11,30.15-20.52,41.33-6.81,10.74,13.17,11.57,28.88,1.32,43.24-10.89,15.27-28.5,13.28-41.41-1.84-4.83-5.66-1.31-19.81-13.51-17.62Zm29.35-10.4c-4.86,4.88-4.63,10.37-1.18,15.26,3.58,5.09,8.94,6.07,13.26,1.92,4.13-4,4.85-10,1.24-15.2C904.63,670.1,899.69,671.61,895.14,673.69Z" transform="translate(-599.19 -390.39)"/><path class="cls-3" d="M956.33,758.8c11.14,14.59,11.9,29.37,1.37,43.73-9.83,13.4-30.42,13.73-40,.4-10.23-14.26-10.53-30.1,1.15-43.26S943.87,747.74,956.33,758.8Zm-11.64,16.67c-3.72-4.7-8-6.06-12.44-1.73-4.14,4-5.31,9.07-1.58,14.26,3.57,5,8.05,5.58,12.53,1.65S948,780.69,944.69,775.47Z" transform="translate(-599.19 -390.39)"/><path class="cls-3" d="M953.88,855.49c9.78-10,23.61-9.07,34.86,2.8,11.81,12.46,11,29,1.17,43.14-9.54,13.71-28.81,13-39.63-.24C940,888.64,940.38,870.54,953.88,855.49Zm23.83,30.41c2.33-4.12,2.56-9.4-1.69-13.65-4.48-4.47-9.07-2.56-12.63,1.81-4,4.94-3.07,10.31,1.2,14.24S973.32,892.67,977.71,885.9Z" transform="translate(-599.19 -390.39)"/><path class="cls-3" d="M846.65,900.24c-13.13,13.33-26.32,11.55-38.07-.14-10.93-10.88-9.79-36.66,1.82-46,12.87-10.39,26.34-10.56,37.43,3.92S857.5,886.92,846.65,900.24Zm-23.8-31.08c-4.52,5.05-5.43,10.32-2.33,15.51,3.5,5.85,8.38,4.58,12.61,1.14,4.73-3.84,5.34-9.54,1.8-14.37C831.67,867,827,865.64,822.85,869.16Z" transform="translate(-599.19 -390.39)"/><path class="cls-3" d="M777.37,754.47c11.52-9,24.65-10,36,3.55,11.07,13.28,11.94,28.37.49,42.45-10.6,13-29.66,12.33-39.61-.93C765.13,787.44,766,766.67,777.37,754.47Zm24.22,17.84c-4.36-3.71-9.18-5.28-13.21-.32a11.45,11.45,0,0,0,.15,15.24c3.05,3.48,7.29,3,10.92.09C804.59,783.18,803.92,777.87,801.59,772.31Z" transform="translate(-599.19 -390.39)"/><path class="cls-3" d="M880.29,809.4c-8.95,6.54-20.57,3.28-31.13-6.23-12.26-11-13.32-29.57-2.82-42.46,11.33-13.91,24.76-14.94,37.79-4.26C896.61,766.68,895.68,789.86,880.29,809.4Zm-6.45-36.27c-3.76-5.43-9.2-5-13.2-2.36-4.59,3.08-5.37,9.73-2.4,14.79,3.68,6.27,9.46,8.41,14.82,2.72C877,784.15,876.49,778.39,873.84,773.13Z" transform="translate(-599.19 -390.39)"/><path class="cls-3" d="M865.8,683.37c-6.3,3-6.48,10.86-9.87,16.15-8.15,12.74-19.55,15.31-31.73,10.45-11.16-4.45-17.47-13.57-16.75-28.49.76-15.87,7.94-26.17,20.3-30s23.43,1.24,30.18,15.1c2.78,5.73,1.44,13.9,7.86,17.46ZM839.12,672.9c-3.61-2.79-8.53-2.69-11.84,2s-3.28,10.48,1.59,14.49c4.33,3.56,9.36,4.19,12.9-.8S844,678.24,839.12,672.9Z" transform="translate(-599.19 -390.39)"/><path class="cls-3" d="M879.48,857.12c12.49-11.78,25.44-12.77,37.17.41s12,28,.91,42.17c-10.9,13.95-28.7,14.27-39,.33C868,885.78,869,871.13,879.48,857.12ZM905.05,871c-3.95-3.09-8.74-3.8-12.95-.46-4.78,3.81-4.34,10.73-1.86,15,3.73,6.36,10.18,6.46,14.91,1.18C908.88,882.51,908.16,876.66,905.05,871Z" transform="translate(-599.19 -390.39)"/><path class="cls-3" d="M887.78,605.37c-11.69,11.63-24.83,12.38-37.48,1-10.88-9.83-11.09-31.71-.63-43.08,11.71-12.73,24.85-14.6,37.63-2C898.26,572.1,898.43,592.35,887.78,605.37Zm-12.73-29c-3-3.65-8-5.17-12.13-1.43-5.38,4.86-4.89,11.43,0,16.86,4,4.5,9.38,4.49,13,.47S879.28,582.31,875.05,576.38Z" transform="translate(-599.19 -390.39)"/><path class="cls-4" d="M895.14,673.69c4.55-2.08,9.49-3.59,13.32,2,3.61,5.25,2.89,11.24-1.24,15.2C902.9,695,897.54,694,894,689,890.51,684.06,890.28,678.57,895.14,673.69Z" transform="translate(-599.19 -390.39)"/><path class="cls-4" d="M944.7,775.44c3.29,5.25,3,10.2-1.5,14.21s-9,3.33-12.53-1.65c-3.73-5.19-2.56-10.24,1.58-14.26C936.72,769.41,941,770.77,944.7,775.44Z" transform="translate(-599.19 -390.39)"/><path class="cls-4" d="M977.71,885.9c-4.39,6.77-9,6.22-13.12,2.4s-5.22-9.3-1.2-14.24c3.56-4.37,8.15-6.28,12.63-1.81C980.27,876.5,980,881.78,977.71,885.9Z" transform="translate(-599.19 -390.39)"/><path class="cls-4" d="M822.85,869.16c4.12-3.52,8.82-2.16,12.08,2.28,3.54,4.83,2.93,10.53-1.8,14.37-4.23,3.44-9.11,4.71-12.61-1.14C817.42,879.48,818.33,874.21,822.85,869.16Z" transform="translate(-599.19 -390.39)"/><path class="cls-4" d="M801.58,772.3c2.34,5.57,3,10.88-2.13,15-3.63,2.91-7.87,3.39-10.92-.09a11.45,11.45,0,0,1-.15-15.24C792.41,767,797.23,768.6,801.58,772.3Z" transform="translate(-599.19 -390.39)"/><path class="cls-4" d="M873.86,773.13c2.63,5.26,3.1,11-.8,15.15-5.36,5.69-11.14,3.55-14.82-2.72-3-5.06-2.19-11.71,2.4-14.79C864.64,768.09,870.08,767.7,873.86,773.13Z" transform="translate(-599.19 -390.39)"/><path class="cls-4" d="M839.12,672.9c4.87,5.34,6.16,10.74,2.65,15.68s-8.57,4.36-12.9.8c-4.87-4-4.84-9.89-1.59-14.49S835.51,670.11,839.12,672.9Z" transform="translate(-599.19 -390.39)"/><path class="cls-4" d="M905.05,871c3.11,5.69,3.83,11.54.1,15.69-4.73,5.28-11.18,5.18-14.91-1.18-2.48-4.24-2.92-11.16,1.86-15C896.31,867.17,901.1,867.88,905.05,871Z" transform="translate(-599.19 -390.39)"/><path class="cls-4" d="M875.05,576.38c4.23,5.93,4.47,11.85.82,15.9s-9,4-13-.47c-4.84-5.43-5.33-12,0-16.86C867.06,571.21,872,572.73,875.05,576.38Z" transform="translate(-599.19 -390.39)"/><path class="cls-5" d="M1300,813.12c5,4.84,10.27,9.34,14.9,14.58,99.46,112.63,199.33,224.78,298.1,338.2,100,114.86,91.18,296.53-18.25,397.8-84.11,77.84-207.47,77.13-290.27-3.06-24.31-23.54-46.27-50.29-69-75.93Q1115.1,1348.93,995,1212.82c-7.26-8.23-16-15.14-19.86-26.79,29.6-53.21,58.19-107.08,93.91-155.59C1134.47,941.63,1212.33,870.64,1300,813.12Z" transform="translate(-599.19 -390.39)"/><path class="cls-6" d="M1300,813.12c-87.67,57.52-165.53,128.51-231,217.32-35.72,48.51-64.31,102.38-93.91,155.59Q859.58,1056.52,744.05,927c-24.12-27.08-48.6-53.78-71.82-81.85-64.78-78.33-86.36-170.39-56.47-273.08C644.89,472,708.53,411.85,798.91,394.44c72.22-13.91,139,7.89,192,66.43,103.31,114.08,204.24,231,306.11,346.78C1298.34,809.11,1299,811.28,1300,813.12ZM822.94,637.29c-6.25,2.66-10.18-3.66-15.35-5.21-12.51-3.75-22.55,1.42-28.38,13.56s-4.36,24.2,4.48,35.05c8.31,10.2,17.75,11.22,27.58,5.47,10.74-6.27,16.59-16.75,14.38-31.27-.93-6-5.43-11.27-3.12-18.07,6.59-10.85,12.64,1,19.09.95,17.24-.2,29.8-12.53,27.86-30.82-1.83-17.2-11.6-26.72-26.29-26.93-15.29-.22-25.18,17.56-22.71,36.34C821.39,623.28,831.85,629,822.94,637.29Zm4.51-192.89c-27,2.1-55.61,6.3-82.9,18.91-8.75,4.05-20,7.56-16.34,21,3.95,14.67,14.83,8.68,23.58,5,80-33.3,152.49-19.13,217.09,45.06,7.1,7.06,15.23,16.86,24,6.19,9.17-11.21-.87-19.23-7.65-26.25C941,468.65,889.12,445.26,827.45,444.4ZM651.27,654.24c-1.21,63.2,20.75,116.93,53.16,165.64,6.33,9.51,15.06,28.77,28.41,16.22,10.3-9.69-6.1-19.09-8.9-29.34-.55-2-.85-4.34-1.93-5.92-50.55-73.58-59.58-154.44-32.36-241.66,2.88-9.23,7.23-19.84-3.36-25-12.61-6.22-15.59,6.72-19.13,16.41C655,583.73,651.41,618.71,651.27,654.24ZM842.5,840.78c-.21,16.71,11.26,31.48,24.21,31.18,14.45-.33,24.81-8,26.1-26.13,1.24-17.34-9.94-31.09-25-30.52C852.59,815.9,844.49,825.8,842.5,840.78Zm82.91-225.16c-14.56,2.48-23.89,11.92-23.71,29.51s9.7,27.54,24.7,28.85c14,1.23,27.14-14.89,25.62-31.15C950.38,625.41,941.19,616.44,925.41,615.62ZM980.69,680c.12,20.16,10.51,32.17,24.55,32.33,14.77.17,27.65-14.23,25.76-30.47-2-16.78-11.17-28.06-26.13-27C990.62,655.91,981.13,666,980.69,680Zm-43,111.8c-.82-17-8.49-27.44-24.09-28.23s-24.3,9.73-26.5,26.39c-2,15,12.43,32.59,25.89,31.17C927.46,819.63,937,810.59,937.68,791.82Zm-130.51-40.7c-.21,16.71,11.47,30.78,24.46,31.58,14.24.87,27-13.39,26.16-30-.87-18-10.31-27-25.28-27.07C817.22,725.6,809.3,736.38,807.17,751.12Zm98.84-44c-1.54-24.53-14.57-40.23-28.66-37.2-14.7,3.16-22.78,14.21-21.92,32,.79,16.45,12.38,27.6,26.79,25.27C894.64,725.12,904.07,718.24,906,707.1Zm27.54,31.48C935,755.74,943,766,958.16,767.06c14.88,1,26.21-12.95,25.05-30.39-1.18-17.73-10.16-27.1-25.39-26.56S934.7,721.3,933.55,738.58ZM790.86,569.4c-.77-16.65-12.79-29.61-26.24-28.14-15.69,1.72-23.08,13.09-23.16,30.36C741.38,587.06,754.38,601,767.2,599,782.09,596.6,790.15,586,790.86,569.4Z" transform="translate(-599.19 -390.39)"/><path class="cls-3" d="M827.45,444.4c61.67.86,113.54,24.25,157.74,70,6.78,7,16.82,15,7.65,26.25-8.73,10.67-16.86.87-24-6.19-64.6-64.19-137.09-78.36-217.09-45.06-8.75,3.64-19.63,9.63-23.58-5-3.63-13.48,7.59-17,16.34-21C771.84,450.7,800.48,446.5,827.45,444.4Z" transform="translate(-599.19 -390.39)"/><path class="cls-3" d="M651.27,654.24c.14-35.53,3.74-70.51,15.89-103.7,3.54-9.69,6.52-22.63,19.13-16.41,10.59,5.21,6.24,15.82,3.36,25C662.43,646.4,671.46,727.26,722,800.84c1.08,1.58,1.38,3.9,1.93,5.92,2.8,10.25,19.2,19.65,8.9,29.34-13.35,12.55-22.08-6.71-28.41-16.22C672,771.17,650.06,717.44,651.27,654.24Z" transform="translate(-599.19 -390.39)"/><path class="cls-3" d="M842.5,840.78c2-15,10.09-24.88,25.32-25.47,15-.57,26.23,13.18,25,30.52-1.29,18.18-11.65,25.8-26.1,26.13C853.76,872.26,842.29,857.49,842.5,840.78Z" transform="translate(-599.19 -390.39)"/><path class="cls-3" d="M822.94,637.29c8.91-8.33-1.55-14-2.46-20.93C818,597.58,827.9,579.8,843.19,580c14.69.21,24.46,9.73,26.29,26.93,1.94,18.29-10.62,30.62-27.86,30.82-6.45.07-12.5-11.8-19.09-.95Zm12.86-29.41c-.27,6.91,3.11,10.28,8.21,10.78,5.31.52,9.35-3,9.71-9,.34-5.75-2.72-10.17-8.15-10.78C839.83,598.23,837.52,603,835.8,607.88Z" transform="translate(-599.19 -390.39)"/><path class="cls-3" d="M925.41,615.62c15.78.82,25,9.79,26.61,27.21,1.52,16.26-11.6,32.38-25.62,31.15-15-1.31-24.51-11.31-24.7-28.85S910.85,618.1,925.41,615.62Zm2.28,19.77c-5.17-.16-8.72,2.25-9.06,8.49-.31,5.8,1.9,10,7.36,10.45,5.25.46,8.49-2.62,9.07-8.62S932.89,636.21,927.69,635.39Z" transform="translate(-599.19 -390.39)"/><path class="cls-3" d="M980.69,680c.44-14,9.93-24.11,24.18-25.13,15-1.07,24.17,10.21,26.13,27,1.89,16.24-11,30.64-25.76,30.47C991.2,712.19,980.81,700.18,980.69,680Zm33.29,1.25c-.92-4.47-3.88-8.06-9.12-7.52-5.53.57-7.37,5.35-7.1,10.93.31,6.3,4.08,9,9.15,8.28S1015.13,689,1014,681.27Z" transform="translate(-599.19 -390.39)"/><path class="cls-3" d="M937.68,791.82c-.65,18.77-10.22,27.81-24.7,29.33C899.52,822.57,885.1,805,887.09,790c2.2-16.66,10.82-27.18,26.5-26.39S936.86,774.83,937.68,791.82ZM904,790.12c0,6.76,2.55,10.87,7.61,11.83,5.71,1.08,8.11-3.51,8.83-9,.8-6.14-2.16-10.3-7.29-10.68C908.45,781.91,904.61,784.66,904,790.12Z" transform="translate(-599.19 -390.39)"/><path class="cls-3" d="M807.17,751.12c2.13-14.74,10.05-25.52,25.34-25.5,15,0,24.41,9.12,25.28,27.07.81,16.62-11.92,30.88-26.16,30C818.64,781.9,807,767.83,807.17,751.12Zm26.14-7.18c-5,1-9,3.68-8.73,10,.29,5.9,3.83,9.88,9.07,9.74,4-.11,6.48-3.7,7.11-8.38C841.65,748.65,838.09,745.73,833.31,743.94Z" transform="translate(-599.19 -390.39)"/><path class="cls-3" d="M906,707.1c-1.94,11.14-11.37,18-23.79,20-14.41,2.33-26-8.82-26.79-25.27-.86-17.75,7.22-28.8,21.92-32C891.44,666.87,904.47,682.57,906,707.1Zm-25.5-18.47c-5.63-.6-8.92,3.86-9.92,8.68a9.42,9.42,0,0,0,7.14,11.42c6.07,1.21,11.06-1.87,11.19-9.7C889,693.34,885.32,690,880.51,688.63Z" transform="translate(-599.19 -390.39)"/><path class="cls-3" d="M822.53,636.82c-2.31,6.8,2.19,12,3.12,18.07,2.21,14.52-3.64,25-14.38,31.27-9.83,5.75-19.27,4.73-27.58-5.47-8.84-10.85-10.25-23.05-4.48-35.05s15.87-17.31,28.38-13.56c5.17,1.55,9.1,7.87,15.35,5.21Zm-23.41,13.84c-4,1-7.1,4.86-6.49,10.44s4,9.31,9.55,8.14c4.9-1,8.52-4.52,7.87-10.49S805.41,650.36,799.12,650.66Z" transform="translate(-599.19 -390.39)"/><path class="cls-3" d="M933.55,738.58c1.15-17.28,8.94-27.92,24.27-28.47s24.21,8.83,25.39,26.56c1.16,17.44-10.17,31.41-25.05,30.39C943,766,935,755.74,933.55,738.58Zm24.68-10.81a11.1,11.1,0,0,0-8.65,9.71,9.79,9.79,0,0,0,7.61,11.11c6.14,1.24,10.37-3.69,10.33-10.76C967.49,732.26,963.58,729,958.23,727.77Z" transform="translate(-599.19 -390.39)"/><path class="cls-3" d="M790.86,569.4c-.71,16.55-8.77,27.2-23.66,29.59-12.82,2-25.82-11.93-25.74-27.37.08-17.27,7.47-28.64,23.16-30.36C778.07,539.79,790.09,552.75,790.86,569.4Zm-25.27-8.91c-4.11,0-8.21,2.84-8.69,8.46-.61,7.3,3.57,11.16,9.89,10.94,5.23-.19,8.7-4.35,8.68-9.74S771.8,561.06,765.59,560.49Z" transform="translate(-599.19 -390.39)"/><path class="cls-7" d="M835.8,607.88c1.72-4.85,4-9.65,9.77-9,5.43.61,8.49,5,8.15,10.78-.36,6-4.4,9.53-9.71,9C838.91,618.16,835.53,614.79,835.8,607.88Z" transform="translate(-599.19 -390.39)"/><path class="cls-7" d="M927.68,635.37c5.21.84,8,4.23,7.38,10.34s-3.82,9.08-9.07,8.62c-5.46-.48-7.67-4.65-7.36-10.45C919,637.64,922.52,635.23,927.68,635.37Z" transform="translate(-599.19 -390.39)"/><path class="cls-7" d="M1014,681.27c1.15,7.76-2.14,11-7.07,11.69s-8.84-2-9.15-8.28c-.27-5.58,1.57-10.36,7.1-10.93C1010.1,673.21,1013.06,676.8,1014,681.27Z" transform="translate(-599.19 -390.39)"/><path class="cls-7" d="M904,790.12c.59-5.46,4.43-8.21,9.15-7.86,5.13.38,8.09,4.54,7.29,10.68-.72,5.5-3.12,10.09-8.83,9C906.57,801,904.06,796.88,904,790.12Z" transform="translate(-599.19 -390.39)"/><path class="cls-7" d="M833.3,743.94c4.79,1.79,8.35,4.71,7.46,11.36-.63,4.68-3.09,8.27-7.11,8.38-5.24.14-8.78-3.84-9.07-9.74C824.27,747.62,828.32,744.91,833.3,743.94Z" transform="translate(-599.19 -390.39)"/><path class="cls-7" d="M880.52,688.62c4.8,1.37,8.48,4.72,8.4,10.41-.13,7.83-5.12,10.91-11.19,9.7a9.42,9.42,0,0,1-7.14-11.42C871.59,692.49,874.88,688,880.52,688.62Z" transform="translate(-599.19 -390.39)"/><path class="cls-7" d="M799.12,650.66c6.29-.3,10.3,2.19,10.93,8.09s-3,9.44-7.87,10.49c-5.5,1.17-8.94-2.65-9.55-8.14S795.15,651.65,799.12,650.66Z" transform="translate(-599.19 -390.39)"/><path class="cls-7" d="M958.23,727.77c5.35,1.27,9.26,4.49,9.29,10.06,0,7.07-4.19,12-10.33,10.76a9.79,9.79,0,0,1-7.61-11.11A11.1,11.1,0,0,1,958.23,727.77Z" transform="translate(-599.19 -390.39)"/><path class="cls-7" d="M765.59,560.49c6.21.57,9.86,4.21,9.88,9.66s-3.45,9.55-8.68,9.74c-6.32.22-10.5-3.64-9.89-10.94C757.38,563.33,761.48,560.48,765.59,560.49Z" transform="translate(-599.19 -390.39)"/><path class="cls-8" d="M2114.57,1221.12c59.63,4.33,117.58,19,175.84,32.36,5.06,12.1,3.19,25.11,3.36,37.73q2.76,208.88,5.1,417.75c.44,39.44,2.22,79,.06,118.3-7.36,133.81-99,244.48-214.71,261.43-150.52,22.07-280.54-105.7-283.87-280.8-3.28-172.87-4.88-345.8-7.12-518.7-.1-8.06.79-16.13,1.22-24.2C1899,1229.69,2005.38,1213.19,2114.57,1221.12Z" transform="translate(-599.19 -390.39)"/><path class="cls-9" d="M1792.94,1258.27c-2.58-177.42-6.62-354.83-7-532.26-.17-91,34.9-167,98.29-221,79.33-67.68,167.69-79.6,257.43-30.86,92.09,50,138.51,138,143.35,254.35,1.73,41.7,1.58,83.5,2,125.25q1.83,199.89,3.41,399.78c-58.26-13.32-116.21-28-175.84-32.36-109.19-7.93-215.57,8.57-320.12,43.87C1793.93,1262.75,1793,1260.52,1792.94,1258.27Zm226-568.32c-10.91-16.23-30.38-20.68-41.65-6.86-10.83,13.27-11.66,29.1-1.34,43.58,11,15.39,28.73,13.38,41.74-1.86,4.87-5.7,1.32-20,13.61-17.75,6.35,3,6.54,10.94,10,16.28,8.21,12.83,19.71,15.42,32,10.53,11.25-4.49,17.61-13.68,16.89-28.72-.77-16-8-26.37-20.47-30.18s-23.61,1.25-30.41,15.22c-2.81,5.77-1.45,14-7.92,17.59C2019,709.51,2022.93,695.93,2018.91,690Zm-192.29,70.89c-.29,11.31-2.34,26.26,12.12,26.44,13.77.18,13.18-14.41,13.69-26,4.64-105.61,49.15-180.9,131.52-227.46,9-5.09,21.2-10.32,14.19-24.81-6.45-13.31-17.21-5.91-26.5-1.12-28.94,14.94-53.18,37.37-74.75,59.89C1851.41,623.45,1828.56,687.23,1826.62,760.84ZM2088.7,503.92c-9.23-4.07-20.24-11.08-25.44,4.82-4.37,13.34,6.09,17.39,14.51,21.71,79.59,40.84,127.77,109.29,140,209.37.26,2.15,1.62,4.15,2.58,6.15,4.87,10.15-1,31.81,13.29,29.85,18.49-2.55,11.93-24.72,10.2-37.48-8.89-65.31-29-125-72.83-171.17C2146.77,540.78,2120.32,517.86,2088.7,503.92Zm30,376.88a32.46,32.46,0,0,0,2.07,45.1c13.32,12.43,26.22,8.87,37.24-3.78,9.87-11.34,8.41-32.61-3.1-44.91C2143.26,867.81,2130.48,867.64,2118.71,880.8Zm-180-53.65c9.9,13.51,30.65,13.84,40.29.4,10.31-14.37,10.62-30.33-1.16-43.6s-25.2-12-37.76-.87C1928.81,797.78,1928,812.68,1938.66,827.15Zm-31.29,56.19c-11.9,12.57-11.11,29.22-1.18,43.49,9.62,13.82,29,13.07,39.94-.24,10.37-12.65,10-30.9-3.62-46.06C1932.64,870.44,1918.71,871.38,1907.37,883.34ZM2089,925.48c11-11,9.87-36.94-1.84-46.39-13-10.48-26.55-10.65-37.72,3.95s-9.75,29.16,1.18,42.59C2063.81,939.07,2077.1,937.27,2089,925.48Zm-4.8-143.18c-11.16,13.38-12,28.59-.5,42.78,10.69,13.14,29.89,12.42,39.93-.94,9.16-12.2,8.32-33.13-3.18-45.42C2108.79,769.61,2095.56,768.62,2084.15,782.3Zm-36.1,45.5c12.35-11.13,13.42-29.8,2.84-42.79-11.42-14-25-15.06-38.09-4.3-12.58,10.31-11.63,33.67,3.87,53.37C2025.69,840.67,2037.41,837.38,2048.05,827.8Zm-68,54.78c-11.74,13.19-12.09,28.21-.92,42.51,11,14,28.93,14.38,39.35.32,10.65-14.35,9.6-29.12-1-43.23C2004.9,870.3,1991.85,869.3,1980,882.58Zm66.87-253.17c11-9.91,11.18-32,.63-43.42-11.8-12.82-25-14.71-37.92-2-11,10.91-11.22,31.32-.49,44.44C2020.9,640.17,2034.15,640.92,2046.9,629.41Z" transform="translate(-599.19 -390.39)"/><path class="cls-3" d="M1896.89,567.76c-45.48,55.69-68.33,119.47-70.27,193.08-.29,11.31-2.34,26.26,12.12,26.44,13.77.18,13.18-14.41,13.69-26,4.64-105.61,49.15-180.9,131.52-227.46,9-5.09,21.2-10.32,14.19-24.81-6.45-13.31-17.21-5.91-26.5-1.12C1942.7,522.81,1918.46,545.24,1896.89,567.76Z" transform="translate(-599.19 -390.39)"/><path class="cls-3" d="M2171,567.17c-24.24-26.39-50.69-49.31-82.31-63.25-9.23-4.07-20.24-11.08-25.44,4.82-4.37,13.34,6.09,17.39,14.51,21.71,79.59,40.84,127.77,109.29,140,209.37.26,2.15,1.62,4.15,2.58,6.15,4.87,10.15-1,31.81,13.29,29.85,18.49-2.55,11.93-24.72,10.2-37.48C2235,673,2214.85,613.3,2171,567.17Z" transform="translate(-599.19 -390.39)"/><path class="cls-3" d="M2154.92,877.21c-11.66-9.4-24.44-9.57-36.21,3.59a32.46,32.46,0,0,0,2.07,45.1c13.32,12.43,26.22,8.87,37.24-3.78C2167.89,910.78,2166.43,889.51,2154.92,877.21Z" transform="translate(-599.19 -390.39)"/><path class="cls-3" d="M2031.27,707.06c-12.29-2.22-8.74,12.05-13.61,17.75-13,15.24-30.76,17.25-41.74,1.86-10.32-14.48-9.49-30.31,1.34-43.58,11.27-13.82,30.74-9.37,41.65,6.86,4,6,.06,19.56,12.38,17.83Zm-43-7.77c-3.64,5.3-2.91,11.34,1.25,15.33,4.36,4.18,9.76,3.19,13.37-1.93,3.47-4.94,3.71-10.47-1.2-15.39C1997.12,695.21,1992.14,693.68,1988.28,699.29Z" transform="translate(-599.19 -390.39)"/><path class="cls-3" d="M1977.79,784c11.78,13.27,11.47,29.23,1.16,43.6-9.64,13.44-30.39,13.11-40.29-.4-10.62-14.47-9.85-29.37,1.37-44.07C1952.59,771.93,1966,770.65,1977.79,784Zm-24.52,30.22c4.51,4,9,3.36,12.63-1.66,3.76-5.23,2.58-10.33-1.6-14.37-4.5-4.37-8.78-3-12.54,1.74C1948.44,805.14,1948.68,810.13,1953.27,814.17Z" transform="translate(-599.19 -390.39)"/><path class="cls-3" d="M1946.13,926.59c-10.91,13.31-30.32,14.06-39.94.24-9.93-14.27-10.72-30.92,1.18-43.49,11.34-12,25.27-12.9,35.14-2.81C1956.11,895.69,1956.5,913.94,1946.13,926.59Zm-14.42-13c4.3-4,5.26-9.37,1.21-14.34-3.59-4.42-8.21-6.34-12.73-1.83-4.28,4.28-4,9.6-1.7,13.76C1922.91,918,1927.53,917.45,1931.71,913.59Z" transform="translate(-599.19 -390.39)"/><path class="cls-3" d="M2049.39,883c11.17-14.6,24.75-14.43,37.72-3.95,11.71,9.45,12.86,35.43,1.84,46.39-11.85,11.79-25.14,13.59-38.38.15C2039.64,912.2,2038.28,897.55,2049.39,883Zm13,13.57c-3.57,4.86-3,10.61,1.81,14.47,4.27,3.47,9.18,4.75,12.71-1.15,3.13-5.23,2.21-10.54-2.35-15.63C2070.41,890.76,2065.67,892.13,2062.39,896.61Z" transform="translate(-599.19 -390.39)"/><path class="cls-3" d="M2123.58,824.14c-10,13.36-29.24,14.08-39.93.94-11.54-14.19-10.66-29.4.5-42.78,11.41-13.68,24.64-12.69,36.25-3.58C2131.9,791,2132.74,811.94,2123.58,824.14Zm-25.43-12.32c3.65,2.94,7.93,3.42,11-.09a11.55,11.55,0,0,0,.16-15.36c-4.07-5-8.93-3.41-13.32.32C2093.64,802.3,2093,807.65,2098.15,811.82Z" transform="translate(-599.19 -390.39)"/><path class="cls-3" d="M2012.8,780.71c13.13-10.76,26.67-9.73,38.09,4.3,10.58,13,9.51,31.66-2.84,42.79-10.64,9.58-22.36,12.87-31.38,6.28C2001.17,814.38,2000.22,791,2012.8,780.71ZM2024,812.79c5.4,5.74,11.23,3.58,14.94-2.74,3-5.1,2.2-11.81-2.43-14.91-4-2.7-9.5-3.1-13.29,2.38C2020.5,802.82,2020,808.62,2024,812.79Z" transform="translate(-599.19 -390.39)"/><path class="cls-3" d="M2031.29,707.78c6.47-3.59,5.11-11.82,7.92-17.59,6.8-14,17.81-19.07,30.41-15.22s19.7,14.19,20.47,30.18c.72,15-5.64,24.23-16.89,28.72-12.27,4.89-23.77,2.3-32-10.53-3.41-5.34-3.6-13.27-10-16.28Zm24.2,4.53c3.57,5,8.64,4.39,13,.8,4.91-4,4.89-10,1.61-14.6s-8.3-4.81-11.94-2C2053.26,701.89,2052,707.33,2055.49,712.31Z" transform="translate(-599.19 -390.39)"/><path class="cls-3" d="M2018.46,925.41c-10.42,14.06-28.37,13.73-39.35-.32-11.17-14.3-10.82-29.32.92-42.51s24.87-12.28,37.46-.41C2028.06,896.29,2029.11,911.06,2018.46,925.41Zm-26.85-13.47c4.77,5.32,11.28,5.23,15-1.19,2.5-4.27,2.95-11.24-1.87-15.08-4.24-3.37-9.07-2.65-13.06.46C1988.59,901.86,1987.86,907.76,1991.61,911.94Z" transform="translate(-599.19 -390.39)"/><path class="cls-3" d="M2009.61,584c12.88-12.72,26.12-10.83,37.92,2,10.55,11.46,10.34,33.51-.63,43.42-12.75,11.51-26,10.76-37.78-1C1998.39,615.32,1998.56,594.91,2009.61,584Zm11.52,31.26c3.64,4,9.06,4,13.1-.48,4.87-5.47,5.37-12.09,0-17-4.18-3.78-9.16-2.24-12.23,1.43C2017.69,605.2,2017.44,611.17,2021.13,615.26Z" transform="translate(-599.19 -390.39)"/><path class="cls-4" d="M2001.7,697.3c-4.58-2.09-9.56-3.62-13.42,2-3.64,5.3-2.91,11.34,1.25,15.33,4.36,4.18,9.76,3.19,13.37-1.93C2006.37,707.75,2006.61,702.22,2001.7,697.3Z" transform="translate(-599.19 -390.39)"/><path class="cls-4" d="M1951.76,799.85c-3.32,5.29-3.08,10.28,1.51,14.32s9,3.36,12.63-1.66c3.76-5.23,2.58-10.33-1.6-14.37C1959.8,793.77,1955.52,795.15,1951.76,799.85Z" transform="translate(-599.19 -390.39)"/><path class="cls-4" d="M1918.49,911.18c4.42,6.82,9,6.27,13.22,2.41s5.26-9.37,1.21-14.34c-3.59-4.42-8.21-6.34-12.73-1.83C1915.91,901.7,1916.14,907,1918.49,911.18Z" transform="translate(-599.19 -390.39)"/><path class="cls-4" d="M2074.56,894.3c-4.15-3.54-8.89-2.17-12.17,2.31-3.57,4.86-3,10.61,1.81,14.47,4.27,3.47,9.18,4.75,12.71-1.15C2080,904.7,2079.12,899.39,2074.56,894.3Z" transform="translate(-599.19 -390.39)"/><path class="cls-4" d="M2096,796.68c-2.36,5.62-3,11,2.15,15.14,3.65,2.94,7.93,3.42,11-.09a11.55,11.55,0,0,0,.16-15.36C2105.24,791.37,2100.38,793,2096,796.68Z" transform="translate(-599.19 -390.39)"/><path class="cls-4" d="M2023.15,797.52c-2.65,5.3-3.12,11.1.81,15.27,5.4,5.74,11.23,3.58,14.94-2.74,3-5.1,2.2-11.81-2.43-14.91C2032.45,792.44,2027,792,2023.15,797.52Z" transform="translate(-599.19 -390.39)"/><path class="cls-4" d="M2058.16,696.51c-4.9,5.38-6.2,10.82-2.67,15.8s8.64,4.39,13,.8c4.91-4,4.89-10,1.61-14.6S2061.8,693.7,2058.16,696.51Z" transform="translate(-599.19 -390.39)"/><path class="cls-4" d="M1991.71,896.13c-3.12,5.73-3.85,11.63-.1,15.81,4.77,5.32,11.28,5.23,15-1.19,2.5-4.27,2.95-11.24-1.87-15.08C2000.53,892.3,1995.7,893,1991.71,896.13Z" transform="translate(-599.19 -390.39)"/><path class="cls-4" d="M2022,599.22c-4.26,6-4.51,11.95-.82,16s9.06,4,13.1-.48c4.87-5.47,5.37-12.09,0-17C2030,594,2025,595.55,2022,599.22Z" transform="translate(-599.19 -390.39)"/><path class="cls-10" d="M1828.38,1033.32c35.73,48.51,64.32,102.39,93.91,155.6-3.81,11.65-12.6,18.56-19.85,26.78Q1782.32,1351.8,1662,1487.59c-22.73,25.64-44.69,52.39-69,75.93-82.8,80.19-206.17,80.91-290.28,3.06-109.43-101.27-118.28-282.93-18.25-397.8,98.77-113.41,198.65-225.57,298.1-338.19,4.64-5.25,9.92-9.74,14.9-14.59C1685.1,873.52,1763,944.51,1828.38,1033.32Z" transform="translate(-599.19 -390.39)"/><path class="cls-11" d="M1600.38,810.53c101.87-115.79,202.8-232.7,306.11-346.78,53-58.53,119.82-80.34,192-66.42,90.38,17.41,154,77.53,183.15,177.6,29.89,102.7,8.31,194.75-56.47,273.08-23.21,28.07-47.7,54.78-71.82,81.85q-115.46,129.63-231.09,259.06c-29.59-53.21-58.18-107.09-93.91-155.6-65.42-88.81-143.28-159.8-231-217.32C1598.4,814.16,1599.09,812,1600.38,810.53ZM2077,619.25c2.48-18.79-7.42-36.57-22.71-36.35-14.69.21-24.46,9.73-26.28,26.93-2,18.29,10.62,30.62,27.86,30.82,6.44.07,12.49-11.8,19.08-.95,2.32,6.8-2.19,12-3.11,18.07-2.22,14.53,3.64,25,14.37,31.28,9.83,5.74,19.27,4.72,27.59-5.48,8.84-10.85,10.25-23.05,4.48-35.05s-15.88-17.3-28.39-13.56c-5.17,1.55-9.1,7.87-15.35,5.21C2065.58,631.84,2076,626.16,2077,619.25Zm-164.7-102c-6.79,7-16.83,15.05-7.66,26.25,8.73,10.68,16.86.87,24-6.19,64.6-64.19,137.08-78.36,217.09-45.06,8.74,3.64,19.62,9.63,23.57-5,3.64-13.49-7.59-17-16.34-21-27.28-12.61-55.92-16.81-82.9-18.91C2008.31,448.14,1956.44,471.53,1912.25,517.27Zm318,36.16c-3.55-9.69-6.53-22.63-19.14-16.42-10.58,5.21-6.24,15.83-3.36,25,27.23,87.23,18.19,168.08-32.36,241.66-1.08,1.58-1.38,3.91-1.93,5.93-2.8,10.24-19.2,19.64-8.89,29.33,13.35,12.55,22.08-6.7,28.41-16.22,32.4-48.71,54.36-102.44,53.16-165.64C2246,621.6,2242.42,586.61,2230.28,553.43ZM2029.61,818.2c-15-.58-26.22,13.18-25,30.51,1.3,18.19,11.65,25.8,26.1,26.13,13,.3,24.42-14.47,24.21-31.18C2052.94,828.68,2044.84,818.78,2029.61,818.2Zm-84.19-172.48C1943.89,662,1957,678.09,1971,676.87c15-1.31,24.51-11.32,24.7-28.86s-9.15-27-23.71-29.51C1956.24,619.32,1947.05,628.29,1945.42,645.72Zm-52.86,12c-15-1.07-24.17,10.22-26.13,27-1.89,16.24,11,30.65,25.76,30.47,14-.16,24.43-12.16,24.55-32.32C1916.3,668.87,1906.81,658.79,1892.56,657.77ZM1984.45,824c13.46,1.41,27.88-16.13,25.89-31.17-2.2-16.67-10.82-27.19-26.5-26.39s-23.27,11.23-24.09,28.22C1960.4,813.48,1970,822.51,1984.45,824Zm80.47-95.53c-15,0-24.4,9.11-25.28,27.06-.81,16.63,11.93,30.89,26.16,30,13-.8,24.67-14.87,24.46-31.57C2088.13,739.27,2080.22,728.48,2064.92,728.51Zm-49.71,1.5c14.42,2.34,26-8.82,26.8-25.27.85-17.75-7.23-28.8-21.93-32-14.09-3-27.11,12.68-28.66,37.2C1993.36,721.12,2002.8,728,2015.21,730Zm-75.59-17c-15.23-.54-24.22,8.83-25.4,26.57-1.15,17.43,10.17,31.4,25.06,30.38,15.2-1,23.15-11.32,24.6-28.48C1962.74,724.19,1954.94,713.54,1939.62,713Zm190.61-111.12c12.82,2,25.83-11.93,25.75-27.37-.09-17.27-7.48-28.64-23.16-30.36-13.46-1.47-25.48,11.49-26.25,28.14C2107.28,588.84,2115.34,599.48,2130.23,601.87Z" transform="translate(-599.19 -390.39)"/><path class="cls-3" d="M2070,447.29c-61.67.85-113.54,24.24-157.73,70-6.79,7-16.83,15.05-7.66,26.25,8.73,10.68,16.86.87,24-6.19,64.6-64.19,137.08-78.36,217.09-45.06,8.74,3.64,19.62,9.63,23.57-5,3.64-13.49-7.59-17-16.34-21C2125.6,453.59,2097,449.39,2070,447.29Z" transform="translate(-599.19 -390.39)"/><path class="cls-3" d="M2246.17,657.12c-.15-35.52-3.75-70.51-15.89-103.69-3.55-9.69-6.53-22.63-19.14-16.42-10.58,5.21-6.24,15.83-3.36,25,27.23,87.23,18.19,168.08-32.36,241.66-1.08,1.58-1.38,3.91-1.93,5.93-2.8,10.24-19.2,19.64-8.89,29.33,13.35,12.55,22.08-6.7,28.41-16.22C2225.41,774.05,2247.37,720.32,2246.17,657.12Z" transform="translate(-599.19 -390.39)"/><path class="cls-3" d="M2054.93,843.66c-2-15-10.09-24.88-25.32-25.46-15-.58-26.22,13.18-25,30.51,1.3,18.19,11.65,25.8,26.1,26.13C2043.67,875.14,2055.14,860.37,2054.93,843.66Z" transform="translate(-599.19 -390.39)"/><path class="cls-3" d="M2074.9,639.7c-6.59-10.85-12.64,1-19.08.95-17.24-.2-29.81-12.53-27.86-30.82,1.82-17.2,11.59-26.72,26.28-26.93,15.29-.22,25.19,17.56,22.71,36.35-.91,6.91-11.37,12.59-2.46,20.92Zm-23-38c-5.43.61-8.48,5-8.14,10.78.35,6,4.4,9.54,9.7,9,5.1-.5,8.49-3.87,8.21-10.79C2059.91,605.91,2057.61,601.11,2051.86,601.75Z" transform="translate(-599.19 -390.39)"/><path class="cls-3" d="M1995.73,648c-.19,17.54-9.7,27.55-24.7,28.86-14,1.22-27.14-14.89-25.61-31.15,1.63-17.43,10.82-26.4,26.6-27.22C1986.58,621,1995.92,630.43,1995.73,648Zm-33.36.58c.58,6,3.83,9.08,9.07,8.62,5.46-.47,7.68-4.64,7.36-10.44-.34-6.25-3.89-8.66-9.06-8.5C1964.54,639.1,1961.78,642.48,1962.37,648.59Z" transform="translate(-599.19 -390.39)"/><path class="cls-3" d="M1892.19,715.23c-14.76.18-27.65-14.23-25.76-30.47,2-16.77,11.17-28.06,26.13-27,14.25,1,23.74,11.1,24.18,25.14C1916.62,703.07,1906.23,715.07,1892.19,715.23Zm-1.66-19.39c5.06.75,8.83-2,9.14-8.28.28-5.58-1.57-10.35-7.1-10.93-5.24-.54-8.2,3-9.12,7.52C1882.31,691.92,1885.59,695.1,1890.53,695.84Z" transform="translate(-599.19 -390.39)"/><path class="cls-3" d="M1983.84,766.48c15.68-.8,24.3,9.72,26.5,26.39,2,15-12.43,32.58-25.89,31.17-14.47-1.53-24-10.56-24.7-29.34C1960.57,777.71,1968.25,767.26,1983.84,766.48Zm.42,18.67c-5.12.38-8.09,4.54-7.28,10.67.72,5.5,3.12,10.09,8.82,9,5.06-1,7.57-5.07,7.61-11.83C1992.82,787.55,1989,784.8,1984.26,785.15Z" transform="translate(-599.19 -390.39)"/><path class="cls-3" d="M2065.8,785.58c-14.23.88-27-13.38-26.16-30,.88-18,10.31-27,25.28-27.06,15.3,0,23.21,10.76,25.34,25.5C2090.47,770.71,2078.79,784.78,2065.8,785.58Zm-9.12-27.4c.62,4.69,3.09,8.27,7.11,8.38,5.23.15,8.77-3.84,9.06-9.74.31-6.32-3.74-9-8.73-10C2059.34,748.62,2055.78,751.54,2056.68,758.18Z" transform="translate(-599.19 -390.39)"/><path class="cls-3" d="M2020.08,672.78c14.7,3.16,22.78,14.21,21.93,32-.8,16.45-12.38,27.61-26.8,25.27-12.41-2-21.85-8.89-23.79-20C1993,685.46,2006,669.75,2020.08,672.78Zm-11.56,29.13c.12,7.83,5.11,10.91,11.18,9.7a9.43,9.43,0,0,0,7.15-11.42c-1-4.82-4.3-9.28-9.92-8.67C2012.12,692.87,2008.43,696.23,2008.52,701.91Z" transform="translate(-599.19 -390.39)"/><path class="cls-3" d="M2074.49,640.17c6.25,2.66,10.18-3.66,15.35-5.21,12.51-3.74,22.55,1.43,28.39,13.56s4.36,24.2-4.48,35.05c-8.32,10.2-17.76,11.22-27.59,5.48-10.73-6.28-16.59-16.75-14.37-31.28.92-6,5.43-11.27,3.11-18.07Zm12.89,21.47c-.64,6,3,9.44,7.87,10.48,5.51,1.18,8.94-2.64,9.55-8.14s-2.52-9.44-6.49-10.43C2092,653.24,2088,655.74,2087.38,661.64Z" transform="translate(-599.19 -390.39)"/><path class="cls-3" d="M1939.28,769.94c-14.89,1-26.21-13-25.06-30.38,1.18-17.74,10.17-27.11,25.4-26.57s23.12,11.2,24.26,28.47C1962.43,758.62,1954.48,768.9,1939.28,769.94Zm-9.37-29.23c0,7.07,4.19,12,10.34,10.77a9.81,9.81,0,0,0,7.6-11.12,11.1,11.1,0,0,0-8.65-9.71C1933.86,731.92,1930,735.15,1929.91,740.71Z" transform="translate(-599.19 -390.39)"/><path class="cls-3" d="M2132.82,544.14c15.68,1.72,23.07,13.09,23.16,30.36.08,15.44-12.93,29.42-25.75,27.37-14.89-2.39-22.95-13-23.66-29.59C2107.34,555.63,2119.36,542.67,2132.82,544.14ZM2122,573c0,5.39,3.45,9.55,8.68,9.74,6.32.23,10.51-3.64,9.89-10.94-.48-5.62-4.57-8.46-8.68-8.45C2125.63,563.94,2122,567.58,2122,573Z" transform="translate(-599.19 -390.39)"/><path class="cls-7" d="M2061.63,610.76c-1.72-4.85-4-9.65-9.77-9-5.43.61-8.48,5-8.14,10.78.35,6,4.4,9.54,9.7,9C2058.52,621.05,2061.91,617.68,2061.63,610.76Z" transform="translate(-599.19 -390.39)"/><path class="cls-7" d="M1969.75,638.25c-5.21.85-8,4.23-7.38,10.34s3.83,9.08,9.07,8.62c5.46-.47,7.68-4.64,7.36-10.44C1978.46,640.52,1974.91,638.11,1969.75,638.25Z" transform="translate(-599.19 -390.39)"/><path class="cls-7" d="M1883.45,684.15c-1.14,7.77,2.14,11,7.08,11.69s8.83-2,9.14-8.28c.28-5.58-1.57-10.35-7.1-10.93C1887.33,676.09,1884.37,679.68,1883.45,684.15Z" transform="translate(-599.19 -390.39)"/><path class="cls-7" d="M1993.41,793c-.59-5.45-4.43-8.2-9.15-7.85-5.12.38-8.09,4.54-7.28,10.67.72,5.5,3.12,10.09,8.82,9C1990.86,803.88,1993.37,799.76,1993.41,793Z" transform="translate(-599.19 -390.39)"/><path class="cls-7" d="M2064.13,746.82c-4.79,1.8-8.35,4.72-7.45,11.36.62,4.69,3.09,8.27,7.11,8.38,5.23.15,8.77-3.84,9.06-9.74C2073.16,750.5,2069.11,747.79,2064.13,746.82Z" transform="translate(-599.19 -390.39)"/><path class="cls-7" d="M2030.72,836.64c-4.79,1.79-8.35,4.72-7.46,11.36.63,4.69,3.1,8.27,7.11,8.38,5.24.15,8.78-3.84,9.07-9.74C2039.75,840.32,2035.7,837.61,2030.72,836.64Z" transform="translate(-599.19 -390.39)"/><path class="cls-7" d="M2016.91,691.5c-4.79,1.37-8.48,4.73-8.39,10.41.12,7.83,5.11,10.91,11.18,9.7a9.43,9.43,0,0,0,7.15-11.42C2025.84,695.37,2022.55,690.91,2016.91,691.5Z" transform="translate(-599.19 -390.39)"/><path class="cls-7" d="M2098.31,653.55c-6.28-.31-10.3,2.19-10.93,8.09s3,9.44,7.87,10.48c5.51,1.18,8.94-2.64,9.55-8.14S2102.28,654.54,2098.31,653.55Z" transform="translate(-599.19 -390.39)"/><path class="cls-7" d="M1939.2,730.65c-5.34,1.27-9.25,4.5-9.29,10.06,0,7.07,4.19,12,10.34,10.77a9.81,9.81,0,0,0,7.6-11.12A11.1,11.1,0,0,0,1939.2,730.65Z" transform="translate(-599.19 -390.39)"/><path class="cls-7" d="M2131.85,563.38c-6.22.56-9.86,4.2-9.89,9.65s3.45,9.55,8.68,9.74c6.32.23,10.51-3.64,9.89-10.94C2140.05,566.21,2136,563.37,2131.85,563.38Z" transform="translate(-599.19 -390.39)"/></svg>