<svg id="Capa_1" data-name="Capa 1" xmlns="http://www.w3.org/2000/svg" viewBox="0 0 182 158.76"><defs><style>.cls-1{fill:#49a6ba;}.cls-2{fill:#007a94;}.cls-3{fill:#f7f4ef;}.cls-4{fill:#d27a2c;}.cls-5{fill:#8ab242;}.cls-6{fill:#57a480;}.cls-7{fill:#fff;}.cls-8{fill:#ab1822;}.cls-9{fill:#d17624;}.cls-10{fill:#eecf45;}.cls-11{fill:#e2ab54;}.cls-12{fill:#fdfbfc;}</style></defs><title>m2</title><path class="cls-1" d="M54.69,87.33c.05.75.14,1.5.13,2.24-.24,16-.41,32-.76,48a26.51,26.51,0,0,1-52.93,1.8c-.23-3.64,0-7.31,0-11q.26-19.35.55-38.69A7.86,7.86,0,0,1,2,86.26c6.19-1.23,12.34-2.59,18.67-3A97.42,97.42,0,0,1,54.69,87.33Z" transform="translate(-1.02 -8.31)"/><path class="cls-2" d="M54.69,87.33a97.42,97.42,0,0,0-34-4.06c-6.33.4-12.48,1.76-18.67,3q.18-18.51.36-37c0-3.87,0-7.74.21-11.6C3.12,26.86,8,18.71,17.82,14.08c9.53-4.52,18.91-3.41,27.34,2.86A24.67,24.67,0,0,1,55.59,37.41c0,16.43-.46,32.87-.74,49.3A2.36,2.36,0,0,1,54.69,87.33ZM29.54,35.72c-.68-.33-.54-1.09-.84-1.63a2.69,2.69,0,0,0-3.23-1.41,2.82,2.82,0,0,0-2.17,2.8,2.46,2.46,0,0,0,1.79,2.66,2.78,2.78,0,0,0,3.4-1c.36-.49.38-1.23,1.06-1.5,1.3-.21.92,1.11,1.44,1.64,1.38,1.41,3.27,1.6,4.43.17a2.84,2.84,0,0,0-.14-4c-1.2-1.27-3.26-.86-4.42.64C30.43,34.62,30.85,35.88,29.54,35.72Zm14.28-13a31,31,0,0,0-7.94-5.54c-1-.45-2.13-1.13-2.82.1s.55,1.83,1.51,2.3c8.75,4.31,13.47,11.28,14,21.07.06,1.07,0,2.42,1.46,2.41s1.32-1.41,1.29-2.45A26.51,26.51,0,0,0,43.82,22.75ZM14.71,22.7C10.05,27,7.92,32.5,7,38.55,6.79,39.73,6.1,41.79,8.06,42c1.52.19.89-1.82,1.41-2.76a1.74,1.74,0,0,0,.27-.57C11,29.42,16.16,23.08,24.61,19.3c.89-.4,2-.78,1.54-2-.55-1.48-1.72-.83-2.7-.45A26.56,26.56,0,0,0,14.71,22.7Zm1.71,28.71a3,3,0,0,0-.33,4.16c1.17,1.18,2.54,1.51,3.95.35a2.73,2.73,0,0,0,.22-4.17A2.77,2.77,0,0,0,16.42,51.41ZM39.23,42.7a2.92,2.92,0,0,0-4.13,4.11,2.91,2.91,0,0,0,4.28,0A2.82,2.82,0,0,0,39.23,42.7Zm-.26,9c-1.44,1.41-1.48,3.1-.38,4.27a2.86,2.86,0,0,0,4.24,0,2.77,2.77,0,0,0-.13-4A2.68,2.68,0,0,0,39,51.72ZM27.5,55.9A2.66,2.66,0,0,0,27.62,52a2.75,2.75,0,0,0-4-.36,3,3,0,0,0-.2,4.3A2.82,2.82,0,0,0,27.5,55.9ZM20.08,42.29a3.12,3.12,0,0,0-.33,4.21,2.89,2.89,0,0,0,4.23.09,2.62,2.62,0,0,0-.05-4A2.77,2.77,0,0,0,20.08,42.29Zm11,5.13c1.64-1.82,1.74-4,.41-4.94a2.83,2.83,0,0,0-4.05.39,2.62,2.62,0,0,0,.31,4C28.89,47.73,30.14,48,31.1,47.42ZM31,51.87a2.81,2.81,0,0,0-.1,4,2.72,2.72,0,0,0,4.17,0A2.58,2.58,0,0,0,35,51.91,2.7,2.7,0,0,0,31,51.87Zm.89-23.5a2.87,2.87,0,0,0,0-4.11,2.73,2.73,0,0,0-4,.18,2.78,2.78,0,0,0,.07,4A2.89,2.89,0,0,0,31.9,28.37Z" transform="translate(-1.02 -8.31)"/><path class="cls-3" d="M43.82,22.75a26.51,26.51,0,0,1,7.46,17.89c0,1,.24,2.43-1.29,2.45s-1.4-1.34-1.46-2.41c-.49-9.79-5.21-16.76-14-21.07-1-.47-2.25-1-1.51-2.3s1.83-.55,2.82-.1A31,31,0,0,1,43.82,22.75Z" transform="translate(-1.02 -8.31)"/><path class="cls-3" d="M14.71,22.7a26.56,26.56,0,0,1,8.74-5.86c1-.38,2.15-1,2.7.45.46,1.23-.65,1.61-1.54,2C16.16,23.08,11,29.42,9.74,38.69a1.74,1.74,0,0,1-.27.57c-.52.94.11,3-1.41,2.76-2-.23-1.27-2.29-1.08-3.47C7.92,32.5,10.05,27,14.71,22.7Z" transform="translate(-1.02 -8.31)"/><path class="cls-3" d="M16.42,51.41a2.77,2.77,0,0,1,3.84.34A2.73,2.73,0,0,1,20,55.92c-1.41,1.16-2.78.83-3.95-.35A3,3,0,0,1,16.42,51.41Z" transform="translate(-1.02 -8.31)"/><path class="cls-3" d="M29.54,35.72c1.31.16.89-1.1,1.32-1.65,1.16-1.5,3.22-1.91,4.42-.64a2.84,2.84,0,0,1,.14,4c-1.16,1.43-3.05,1.24-4.43-.17-.52-.53-.14-1.85-1.44-1.64Zm3.15-1a.94.94,0,0,0-.13,1.43,1,1,0,1,0,1.55-1.24C33.7,34.42,33.17,34.56,32.69,34.75Z" transform="translate(-1.02 -8.31)"/><path class="cls-3" d="M39.23,42.7a2.82,2.82,0,0,1,.15,4.08,2.91,2.91,0,0,1-4.28,0,2.92,2.92,0,0,1,4.13-4.11ZM38,44.25a1,1,0,0,0-1.5,1.17.88.88,0,0,0,1.34.16A.86.86,0,0,0,38,44.25Z" transform="translate(-1.02 -8.31)"/><path class="cls-3" d="M39,51.72A2.68,2.68,0,0,1,42.7,52a2.77,2.77,0,0,1,.13,4,2.86,2.86,0,0,1-4.24,0C37.49,54.82,37.53,53.13,39,51.72Zm2.55,2.84a.91.91,0,0,0-.18-1.27.89.89,0,0,0-1.35.17.82.82,0,0,0,.13,1.32A.87.87,0,0,0,41.52,54.56Z" transform="translate(-1.02 -8.31)"/><path class="cls-3" d="M27.5,55.9a2.82,2.82,0,0,1-4.08,0,3,3,0,0,1,.2-4.3,2.75,2.75,0,0,1,4,.36A2.66,2.66,0,0,1,27.5,55.9ZM25,53a1,1,0,0,0-.25,1.45c.38.54.9.42,1.35.1a.85.85,0,0,0,.19-1.34A.9.9,0,0,0,25,53Z" transform="translate(-1.02 -8.31)"/><path class="cls-3" d="M20.08,42.29a2.77,2.77,0,0,1,3.85.33,2.62,2.62,0,0,1,.05,4,2.89,2.89,0,0,1-4.23-.09A3.12,3.12,0,0,1,20.08,42.29ZM22.67,44c-.46-.35-1-.5-1.41,0a1,1,0,0,0,0,1.42.88.88,0,0,0,1.17,0C23,45,22.92,44.48,22.67,44Z" transform="translate(-1.02 -8.31)"/><path class="cls-3" d="M31.1,47.42c-1,.61-2.21.31-3.33-.58a2.62,2.62,0,0,1-.31-4,2.83,2.83,0,0,1,4.05-.39C32.84,43.43,32.74,45.6,31.1,47.42ZM30.41,44A1.06,1.06,0,0,0,29,43.81a1,1,0,0,0-.25,1.38,1,1,0,0,0,1.58.26A1.09,1.09,0,0,0,30.41,44Z" transform="translate(-1.02 -8.31)"/><path class="cls-3" d="M29.55,35.66c-.68.27-.7,1-1.06,1.5a2.78,2.78,0,0,1-3.4,1,2.46,2.46,0,0,1-1.79-2.66,2.82,2.82,0,0,1,2.17-2.8,2.69,2.69,0,0,1,3.23,1.41c.3.54.16,1.3.84,1.63Zm-2.86-1a.93.93,0,0,0-1.27.18.89.89,0,0,0,.17,1.36A.94.94,0,0,0,27,36.14C27.35,35.68,27.21,35.18,26.69,34.68Z" transform="translate(-1.02 -8.31)"/><path class="cls-3" d="M31,51.87a2.7,2.7,0,0,1,4,0,2.58,2.58,0,0,1,.09,3.94,2.72,2.72,0,0,1-4.17,0A2.81,2.81,0,0,1,31,51.87Zm2.74,1.3a1.19,1.19,0,0,0-1.39-.05,1,1,0,0,0-.2,1.4,1,1,0,0,0,1.6.11C34.16,54.24,34.08,53.7,33.75,53.17Z" transform="translate(-1.02 -8.31)"/><path class="cls-3" d="M31.9,28.37a2.89,2.89,0,0,1-4,.09,2.78,2.78,0,0,1-.07-4,2.73,2.73,0,0,1,4-.18A2.87,2.87,0,0,1,31.9,28.37Zm-1.36-2.7a1,1,0,0,0-1.3-.14,1.06,1.06,0,0,0,1.38,1.62C31,26.77,31,26.22,30.54,25.67Z" transform="translate(-1.02 -8.31)"/><path class="cls-4" d="M32.69,34.75c.48-.19,1-.33,1.42.19a1,1,0,1,1-1.55,1.24A.94.94,0,0,1,32.69,34.75Z" transform="translate(-1.02 -8.31)"/><path class="cls-4" d="M38,44.25a.86.86,0,0,1-.16,1.33.88.88,0,0,1-1.34-.16A1,1,0,0,1,38,44.25Z" transform="translate(-1.02 -8.31)"/><path class="cls-4" d="M41.52,54.56a.87.87,0,0,1-1.4.22A.82.82,0,0,1,40,53.46a.89.89,0,0,1,1.35-.17A.91.91,0,0,1,41.52,54.56Z" transform="translate(-1.02 -8.31)"/><path class="cls-4" d="M25,53a.9.9,0,0,1,1.29.21.85.85,0,0,1-.19,1.34c-.45.32-1,.44-1.35-.1A1,1,0,0,1,25,53Z" transform="translate(-1.02 -8.31)"/><path class="cls-4" d="M22.67,44c.25.52.33,1-.22,1.4a.88.88,0,0,1-1.17,0,1,1,0,0,1,0-1.42C21.69,43.46,22.21,43.61,22.67,44Z" transform="translate(-1.02 -8.31)"/><path class="cls-4" d="M30.41,44a1.09,1.09,0,0,1-.09,1.42,1,1,0,0,1-1.58-.26A1,1,0,0,1,29,43.81,1.06,1.06,0,0,1,30.41,44Z" transform="translate(-1.02 -8.31)"/><path class="cls-4" d="M26.69,34.68c.52.5.66,1,.28,1.46a.94.94,0,0,1-1.38.08.89.89,0,0,1-.17-1.36A.93.93,0,0,1,26.69,34.68Z" transform="translate(-1.02 -8.31)"/><path class="cls-4" d="M33.75,53.17c.33.53.41,1.07,0,1.46a1,1,0,0,1-1.6-.11,1,1,0,0,1,.2-1.4A1.19,1.19,0,0,1,33.75,53.17Z" transform="translate(-1.02 -8.31)"/><path class="cls-4" d="M30.54,25.67c.45.55.47,1.1.08,1.48a1.08,1.08,0,1,1-.08-1.48Z" transform="translate(-1.02 -8.31)"/><path class="cls-5" d="M76,47.77c.53.45,1.1.87,1.59,1.36,10.65,10.51,21.33,21,31.9,31.57a24.76,24.76,0,0,1-33,36.84c-2.6-2.19-4.95-4.69-7.38-7.08Q56.23,97.79,43.37,85.08a7.4,7.4,0,0,1-2.12-2.5,130,130,0,0,1,10-14.53A91.13,91.13,0,0,1,76,47.77Z" transform="translate(-1.02 -8.31)"/><path class="cls-6" d="M76,47.77A91.13,91.13,0,0,0,51.3,68.05a130,130,0,0,0-10,14.53Q28.88,70.49,16.52,58.4c-2.58-2.53-5.2-5-7.69-7.65-6.93-7.31-9.24-15.9-6-25.49,3.12-9.34,9.93-14.95,19.6-16.58a23.07,23.07,0,0,1,20.55,6.21C54,25.53,64.79,36.45,75.69,47.26A2,2,0,0,1,76,47.77ZM25,31.35c-.67.25-1.09-.34-1.64-.48a2.5,2.5,0,0,0-3,1.26,2.61,2.61,0,0,0,.48,3.27,2.28,2.28,0,0,0,2.95.52A2.59,2.59,0,0,0,25.25,33c-.1-.57-.58-1.06-.33-1.69.7-1,1.35.09,2,.09,1.84,0,3.19-1.17,3-2.88A2.66,2.66,0,0,0,27.13,26c-1.64,0-2.7,1.64-2.43,3.39C24.79,30.05,25.91,30.58,25,31.35Zm.48-18a28.76,28.76,0,0,0-8.87,1.76c-.94.38-2.14.71-1.75,2s1.59.81,2.53.47c8.56-3.11,16.31-1.79,23.23,4.2.76.66,1.63,1.58,2.56.58s-.09-1.79-.82-2.45A24.69,24.69,0,0,0,25.44,13.35ZM6.59,32.94c-.13,5.9,2.22,10.91,5.69,15.46.67.89,1.61,2.68,3,1.51,1.1-.9-.65-1.78-1-2.74a1.66,1.66,0,0,0-.21-.55C8.75,39.75,7.78,32.2,10.7,24.06c.3-.86.77-1.85-.36-2.34-1.35-.58-1.67.63-2.05,1.54A24.82,24.82,0,0,0,6.59,32.94ZM27.05,50.35a2.8,2.8,0,0,0,2.59,2.91,2.51,2.51,0,0,0,2.8-2.44A2.57,2.57,0,0,0,29.76,48,2.6,2.6,0,0,0,27.05,50.35Zm8.87-21A2.73,2.73,0,0,0,36,34.78a2.72,2.72,0,0,0,2.74-2.91A2.65,2.65,0,0,0,35.92,29.33Zm5.92,6c0,1.88,1.13,3,2.63,3a2.66,2.66,0,0,0,2.75-2.84A2.58,2.58,0,0,0,44.43,33,2.49,2.49,0,0,0,41.84,35.34Zm-4.6,10.44a2.49,2.49,0,0,0-2.58-2.64,2.58,2.58,0,0,0-2.84,2.47,2.81,2.81,0,0,0,2.78,2.91A2.63,2.63,0,0,0,37.24,45.78Zm-14-3.8a2.93,2.93,0,0,0,2.62,3,2.71,2.71,0,0,0,2.8-2.8A2.45,2.45,0,0,0,26,39.6,2.58,2.58,0,0,0,23.27,42Zm10.58-4.11c-.17-2.29-1.56-3.76-3.07-3.47a2.62,2.62,0,0,0-2.34,3,2.43,2.43,0,0,0,2.86,2.36C32.63,39.55,33.64,38.91,33.85,37.87Zm2.95,2.94a2.61,2.61,0,0,0,2.63,2.66,2.55,2.55,0,0,0,2.68-2.84,2.41,2.41,0,0,0-2.72-2.48A2.52,2.52,0,0,0,36.8,40.81ZM21.53,25a2.69,2.69,0,0,0-2.81-2.63,2.55,2.55,0,0,0-2.48,2.83A2.61,2.61,0,0,0,19,27.78,2.71,2.71,0,0,0,21.53,25Z" transform="translate(-1.02 -8.31)"/><path class="cls-3" d="M25.44,13.35a24.69,24.69,0,0,1,16.88,6.53c.73.66,1.8,1.41.82,2.45s-1.8.08-2.56-.58c-6.92-6-14.67-7.31-23.23-4.2-.94.34-2.1.9-2.53-.47s.81-1.59,1.75-2A28.76,28.76,0,0,1,25.44,13.35Z" transform="translate(-1.02 -8.31)"/><path class="cls-3" d="M6.59,32.94a24.82,24.82,0,0,1,1.7-9.68c.38-.91.7-2.12,2.05-1.54,1.13.49.66,1.48.36,2.34C7.78,32.2,8.75,39.75,14.16,46.62a1.66,1.66,0,0,1,.21.55c.3,1,2.05,1.84,1,2.74-1.43,1.17-2.37-.62-3-1.51C8.81,43.85,6.46,38.84,6.59,32.94Z" transform="translate(-1.02 -8.31)"/><path class="cls-3" d="M27.05,50.35A2.6,2.6,0,0,1,29.76,48a2.57,2.57,0,0,1,2.68,2.85,2.51,2.51,0,0,1-2.8,2.44A2.8,2.8,0,0,1,27.05,50.35Z" transform="translate(-1.02 -8.31)"/><path class="cls-3" d="M25,31.35c.95-.77-.17-1.3-.26-2-.27-1.75.79-3.41,2.43-3.39a2.66,2.66,0,0,1,2.81,2.51c.21,1.71-1.14,2.86-3,2.88-.69,0-1.34-1.1-2-.09Zm1.38-2.74a.86.86,0,0,0,.87,1,.88.88,0,0,0,1-.84.89.89,0,0,0-.87-1C26.77,27.71,26.52,28.16,26.34,28.61Z" transform="translate(-1.02 -8.31)"/><path class="cls-3" d="M35.92,29.33a2.65,2.65,0,0,1,2.85,2.54A2.72,2.72,0,0,1,36,34.78a2.73,2.73,0,0,1-.11-5.45Zm.25,1.85c-.55,0-.93.21-1,.79a.8.8,0,0,0,.79,1,.82.82,0,0,0,1-.8A.8.8,0,0,0,36.17,31.18Z" transform="translate(-1.02 -8.31)"/><path class="cls-3" d="M41.84,35.34A2.49,2.49,0,0,1,44.43,33a2.58,2.58,0,0,1,2.79,2.52,2.66,2.66,0,0,1-2.75,2.84C43,38.34,41.85,37.22,41.84,35.34Zm3.56.12a.85.85,0,0,0-1-.7c-.59.05-.79.5-.76,1a.78.78,0,0,0,1,.77A.81.81,0,0,0,45.4,35.46Z" transform="translate(-1.02 -8.31)"/><path class="cls-3" d="M37.24,45.78a2.63,2.63,0,0,1-2.64,2.74,2.81,2.81,0,0,1-2.78-2.91,2.58,2.58,0,0,1,2.84-2.47A2.49,2.49,0,0,1,37.24,45.78Zm-3.6-.16c0,.63.27,1,.81,1.1s.87-.32.94-.84a.79.79,0,0,0-.77-1A.83.83,0,0,0,33.64,45.62Z" transform="translate(-1.02 -8.31)"/><path class="cls-3" d="M23.27,42A2.58,2.58,0,0,1,26,39.6a2.45,2.45,0,0,1,2.71,2.53,2.71,2.71,0,0,1-2.8,2.8A2.93,2.93,0,0,1,23.27,42Zm2.8-.67c-.53.09-1,.34-.93.93a.91.91,0,0,0,1,.91.81.81,0,0,0,.76-.78C27,41.75,26.58,41.48,26.07,41.31Z" transform="translate(-1.02 -8.31)"/><path class="cls-3" d="M33.85,37.87c-.21,1-1.22,1.68-2.55,1.87a2.43,2.43,0,0,1-2.86-2.36,2.62,2.62,0,0,1,2.34-3C32.29,34.11,33.68,35.58,33.85,37.87Zm-2.73-1.72a1,1,0,0,0-1.06.81A.88.88,0,0,0,30.82,38c.65.12,1.19-.17,1.2-.9A1,1,0,0,0,31.12,36.15Z" transform="translate(-1.02 -8.31)"/><path class="cls-3" d="M24.92,31.31c-.25.63.23,1.12.33,1.69a2.59,2.59,0,0,1-1.54,2.92,2.28,2.28,0,0,1-2.95-.52,2.61,2.61,0,0,1-.48-3.27,2.5,2.5,0,0,1,3-1.26c.55.14,1,.73,1.64.48ZM22.41,32.6a.85.85,0,0,0-.69,1,.81.81,0,0,0,1,.76c.52-.1.91-.43.84-1S23.08,32.57,22.41,32.6Z" transform="translate(-1.02 -8.31)"/><path class="cls-3" d="M36.8,40.81a2.52,2.52,0,0,1,2.59-2.66,2.41,2.41,0,0,1,2.72,2.48,2.55,2.55,0,0,1-2.68,2.84A2.61,2.61,0,0,1,36.8,40.81Zm2.64-1a1.1,1.1,0,0,0-.93.91.93.93,0,0,0,.82,1,.91.91,0,0,0,1.1-1C40.43,40.22,40,39.92,39.44,39.8Z" transform="translate(-1.02 -8.31)"/><path class="cls-3" d="M21.53,25A2.71,2.71,0,0,1,19,27.78a2.61,2.61,0,0,1-2.75-2.56,2.55,2.55,0,0,1,2.48-2.83A2.69,2.69,0,0,1,21.53,25Zm-2.71-.84a.89.89,0,0,0-.93.79c-.06.69.38,1.05,1.06,1a.91.91,0,0,0,.93-.91C19.88,24.58,19.49,24.24,18.82,24.18Z" transform="translate(-1.02 -8.31)"/><path class="cls-7" d="M26.34,28.61c.18-.45.43-.9,1-.84a.89.89,0,0,1,.87,1,.88.88,0,0,1-1,.84A.86.86,0,0,1,26.34,28.61Z" transform="translate(-1.02 -8.31)"/><path class="cls-7" d="M36.17,31.17a.89.89,0,1,1-1,.8C35.24,31.39,35.62,31.16,36.17,31.17Z" transform="translate(-1.02 -8.31)"/><path class="cls-7" d="M45.4,35.46a.81.81,0,0,1-.75,1.09.78.78,0,0,1-1-.77c0-.52.17-1,.76-1A.85.85,0,0,1,45.4,35.46Z" transform="translate(-1.02 -8.31)"/><path class="cls-7" d="M33.64,45.62a.83.83,0,0,1,1-.73.79.79,0,0,1,.77,1c-.07.52-.33.94-.94.84S33.64,46.25,33.64,45.62Z" transform="translate(-1.02 -8.31)"/><path class="cls-7" d="M26.07,41.31c.51.17.89.44.8,1.06a.81.81,0,0,1-.76.78.91.91,0,0,1-1-.91C25.1,41.65,25.54,41.4,26.07,41.31Z" transform="translate(-1.02 -8.31)"/><path class="cls-7" d="M31.12,36.14a1,1,0,0,1,.9,1c0,.73-.55,1-1.2.9A.88.88,0,0,1,30.06,37,1,1,0,0,1,31.12,36.14Z" transform="translate(-1.02 -8.31)"/><path class="cls-7" d="M22.41,32.6c.67,0,1.1.21,1.17.76s-.32.88-.84,1a.81.81,0,0,1-1-.76A.85.85,0,0,1,22.41,32.6Z" transform="translate(-1.02 -8.31)"/><path class="cls-7" d="M39.44,39.8c.57.12,1,.42,1,.94a.91.91,0,0,1-1.1,1,.93.93,0,0,1-.82-1A1.1,1.1,0,0,1,39.44,39.8Z" transform="translate(-1.02 -8.31)"/><path class="cls-7" d="M18.82,24.18c.67.06,1.06.4,1.06.91A.91.91,0,0,1,19,26c-.68,0-1.12-.34-1.06-1A.89.89,0,0,1,18.82,24.18Z" transform="translate(-1.02 -8.31)"/><path class="cls-8" d="M163.18,85.85c6.38.41,12.58,1.78,18.81,3a8.1,8.1,0,0,1,.36,3.52q.3,19.5.55,39c0,3.68.24,7.38,0,11a26.72,26.72,0,0,1-53.35-1.8c-.35-16.14-.52-32.28-.76-48.42,0-.76.08-1.51.13-2.26A98.25,98.25,0,0,1,163.18,85.85Z" transform="translate(-1.02 -8.31)"/><path class="cls-9" d="M128.76,89.32c-.28-16.56-.71-33.12-.75-49.68A24.89,24.89,0,0,1,138.53,19c8.49-6.32,17.95-7.43,27.55-2.88,9.85,4.67,14.82,12.88,15.34,23.74.18,3.89.17,7.8.21,11.69q.19,18.66.36,37.32c-6.23-1.24-12.43-2.61-18.81-3A98.25,98.25,0,0,0,128.92,90,2.43,2.43,0,0,1,128.76,89.32Zm24.18-53c-1.17-1.52-3.25-1.93-4.46-.64a2.86,2.86,0,0,0-.14,4.07c1.17,1.43,3.07,1.25,4.47-.18.52-.53.14-1.86,1.45-1.65.68.28.7,1,1.07,1.52a2.79,2.79,0,0,0,3.42,1,2.48,2.48,0,0,0,1.81-2.68,2.84,2.84,0,0,0-2.19-2.82,2.71,2.71,0,0,0-3.26,1.42c-.3.54-.15,1.31-.85,1.64C153,38.1,153.37,36.83,152.94,36.27Zm-20.58,6.62c0,1-.25,2.45,1.3,2.46s1.41-1.34,1.47-2.42c.49-9.86,5.25-16.89,14.07-21.24,1-.47,2.27-1,1.52-2.31s-1.85-.55-2.84-.11a31.12,31.12,0,0,0-8,5.59A26.7,26.7,0,0,0,132.36,42.89Zm28-24c-1-.38-2.17-1-2.73.45-.46,1.25.66,1.63,1.56,2,8.51,3.81,13.67,10.2,15,19.54a1.82,1.82,0,0,0,.28.58c.52,1-.11,3,1.42,2.78,2-.23,1.27-2.3,1.09-3.49-.95-6.1-3.1-11.68-7.79-16A27.1,27.1,0,0,0,160.41,18.9Zm3.21,35.18a2.76,2.76,0,0,0,.22,4.21c1.43,1.16,2.81.83,4-.35a3,3,0,0,0-.34-4.19A2.79,2.79,0,0,0,163.62,54.08Zm-19.27-5a2.93,2.93,0,0,0,4.31,0,2.77,2.77,0,0,0-.12-4.07,2.81,2.81,0,0,0-4-.08A2.87,2.87,0,0,0,144.35,49.08ZM141,54.32a2.79,2.79,0,0,0-.12,4.06,2.88,2.88,0,0,0,4.27,0c1.11-1.18,1.07-2.89-.39-4.3A2.7,2.7,0,0,0,141,54.32Zm19.43,3.94a3,3,0,0,0-.19-4.34,2.79,2.79,0,0,0-4,.37,2.68,2.68,0,0,0,.13,4A2.82,2.82,0,0,0,160.43,58.26Zm-.51-13.37a2.64,2.64,0,0,0,0,4,2.92,2.92,0,0,0,4.27-.09,3.14,3.14,0,0,0-.34-4.23A2.78,2.78,0,0,0,159.92,44.89Zm-3.86,4.25a2.64,2.64,0,0,0,.3-4,2.84,2.84,0,0,0-4.07-.4c-1.35,1-1.25,3.14.41,5C153.66,50.34,154.92,50,156.06,49.14Zm-7.28,5.11a2.6,2.6,0,0,0-.1,4,2.75,2.75,0,0,0,4.21,0,2.82,2.82,0,0,0-.1-4A2.72,2.72,0,0,0,148.78,54.25Zm7.15-23.63a2.81,2.81,0,0,0,.07-4.06,2.76,2.76,0,0,0-4.06-.18,2.91,2.91,0,0,0,4,4.24Z" transform="translate(-1.02 -8.31)"/><path class="cls-3" d="M139.88,24.86a26.7,26.7,0,0,0-7.52,18c0,1-.25,2.45,1.3,2.46s1.41-1.34,1.47-2.42c.49-9.86,5.25-16.89,14.07-21.24,1-.47,2.27-1,1.52-2.31s-1.85-.55-2.84-.11A31.12,31.12,0,0,0,139.88,24.86Z" transform="translate(-1.02 -8.31)"/><path class="cls-3" d="M169.22,24.81a27.1,27.1,0,0,0-8.81-5.91c-1-.38-2.17-1-2.73.45-.46,1.25.66,1.63,1.56,2,8.51,3.81,13.67,10.2,15,19.54a1.82,1.82,0,0,0,.28.58c.52,1-.11,3,1.42,2.78,2-.23,1.27-2.3,1.09-3.49C176.06,34.69,173.91,29.11,169.22,24.81Z" transform="translate(-1.02 -8.31)"/><path class="cls-3" d="M167.49,53.75a2.79,2.79,0,0,0-3.87.33,2.76,2.76,0,0,0,.22,4.21c1.43,1.16,2.81.83,4-.35A3,3,0,0,0,167.49,53.75Z" transform="translate(-1.02 -8.31)"/><path class="cls-3" d="M154.26,37.87c-1.31-.21-.93,1.12-1.45,1.65-1.4,1.43-3.3,1.61-4.47.18a2.86,2.86,0,0,1,.14-4.07c1.21-1.29,3.29-.88,4.46.64.43.56,0,1.83,1.32,1.66Zm-4.6-.73a1,1,0,0,0,.14,1.43A1,1,0,0,0,151.1,37C150.61,36.76,150.07,36.62,149.66,37.14Z" transform="translate(-1.02 -8.31)"/><path class="cls-3" d="M148.54,45a2.77,2.77,0,0,1,.12,4.07,2.93,2.93,0,0,1-4.31,0A2.87,2.87,0,0,1,144.5,45,2.81,2.81,0,0,1,148.54,45Zm-2.62,2.82a.89.89,0,0,0,1.35-.15,1,1,0,0,0-1.52-1.18A.86.86,0,0,0,145.92,47.86Z" transform="translate(-1.02 -8.31)"/><path class="cls-3" d="M145.15,58.36a2.88,2.88,0,0,1-4.27,0,2.79,2.79,0,0,1,.12-4.06,2.7,2.7,0,0,1,3.76-.26C146.22,55.47,146.26,57.18,145.15,58.36Zm-1.54-1.21a.84.84,0,0,0,.13-1.34.9.9,0,0,0-1.36-.17.93.93,0,0,0-.19,1.28A.88.88,0,0,0,143.61,57.15Z" transform="translate(-1.02 -8.31)"/><path class="cls-3" d="M156.2,54.29a2.79,2.79,0,0,1,4-.37,3,3,0,0,1,.19,4.34,2.82,2.82,0,0,1-4.1,0A2.68,2.68,0,0,1,156.2,54.29Zm1.39,1.27a.86.86,0,0,0,.2,1.35c.45.32,1,.44,1.36-.11a1.06,1.06,0,0,0-.26-1.46A.91.91,0,0,0,157.59,55.56Z" transform="translate(-1.02 -8.31)"/><path class="cls-3" d="M164.14,48.79a2.92,2.92,0,0,1-4.27.09,2.64,2.64,0,0,1,0-4,2.78,2.78,0,0,1,3.88-.33A3.14,3.14,0,0,1,164.14,48.79Zm-2.72-1.14a.9.9,0,0,0,1.18,0,1,1,0,0,0,0-1.44c-.43-.46-1-.32-1.42,0C160.94,46.76,160.86,47.26,161.42,47.65Z" transform="translate(-1.02 -8.31)"/><path class="cls-3" d="M152.29,44.74a2.84,2.84,0,0,1,4.07.4,2.64,2.64,0,0,1-.3,4c-1.14.89-2.4,1.2-3.36.58C151,47.88,150.94,45.7,152.29,44.74Zm1.19,3a1,1,0,0,0,1.6-.26,1,1,0,0,0-.26-1.39,1.05,1.05,0,0,0-1.42.22A1.09,1.09,0,0,0,153.48,47.74Z" transform="translate(-1.02 -8.31)"/><path class="cls-3" d="M154.26,37.93c.7-.33.55-1.1.85-1.64a2.71,2.71,0,0,1,3.26-1.42,2.84,2.84,0,0,1,2.19,2.82,2.48,2.48,0,0,1-1.81,2.68,2.79,2.79,0,0,1-3.42-1c-.37-.5-.39-1.24-1.07-1.52Zm2.59.43a1,1,0,0,0,1.4.07.88.88,0,0,0,.17-1.36.93.93,0,0,0-1.28-.19C156.62,37.38,156.48,37.89,156.85,38.36Z" transform="translate(-1.02 -8.31)"/><path class="cls-3" d="M152.89,58.25a2.75,2.75,0,0,1-4.21,0,2.6,2.6,0,0,1,.1-4,2.72,2.72,0,0,1,4,0A2.82,2.82,0,0,1,152.89,58.25ZM150,57a1,1,0,0,0,1.61-.11,1,1,0,0,0-.2-1.41,1.19,1.19,0,0,0-1.4.05A1.11,1.11,0,0,0,150,57Z" transform="translate(-1.02 -8.31)"/><path class="cls-3" d="M151.94,26.38a2.76,2.76,0,0,1,4.06.18,2.81,2.81,0,0,1-.07,4.06,2.91,2.91,0,0,1-4-4.24Zm1.24,2.92a1.07,1.07,0,0,0,1.39-1.63,1,1,0,0,0-1.31.13C152.81,28.36,152.78,28.91,153.18,29.3Z" transform="translate(-1.02 -8.31)"/><path class="cls-4" d="M151.1,37c-.49-.19-1-.33-1.44.19a1,1,0,0,0,.14,1.43A1,1,0,0,0,151.1,37Z" transform="translate(-1.02 -8.31)"/><path class="cls-4" d="M145.75,46.53a.86.86,0,0,0,.17,1.33.89.89,0,0,0,1.35-.15,1,1,0,0,0-1.52-1.18Z" transform="translate(-1.02 -8.31)"/><path class="cls-4" d="M142.19,56.92a.88.88,0,0,0,1.42.23.84.84,0,0,0,.13-1.34.9.9,0,0,0-1.36-.17A.93.93,0,0,0,142.19,56.92Z" transform="translate(-1.02 -8.31)"/><path class="cls-4" d="M158.89,55.34a.91.91,0,0,0-1.3.22.86.86,0,0,0,.2,1.35c.45.32,1,.44,1.36-.11A1.06,1.06,0,0,0,158.89,55.34Z" transform="translate(-1.02 -8.31)"/><path class="cls-4" d="M161.19,46.23c-.25.53-.33,1,.23,1.42a.9.9,0,0,0,1.18,0,1,1,0,0,0,0-1.44C162.18,45.74,161.66,45.88,161.19,46.23Z" transform="translate(-1.02 -8.31)"/><path class="cls-4" d="M153.39,46.31a1.1,1.1,0,0,0,.09,1.43,1,1,0,0,0,1.6-.26,1,1,0,0,0-.26-1.39A1.06,1.06,0,0,0,153.39,46.31Z" transform="translate(-1.02 -8.31)"/><path class="cls-4" d="M157.14,36.88c-.52.5-.66,1-.29,1.48a1,1,0,0,0,1.4.07.88.88,0,0,0,.17-1.36A.93.93,0,0,0,157.14,36.88Z" transform="translate(-1.02 -8.31)"/><path class="cls-4" d="M150,55.52A1.11,1.11,0,0,0,150,57a1,1,0,0,0,1.61-.11,1,1,0,0,0-.2-1.41A1.19,1.19,0,0,0,150,55.52Z" transform="translate(-1.02 -8.31)"/><path class="cls-4" d="M153.26,27.8c-.45.56-.48,1.11-.08,1.5a1.07,1.07,0,0,0,1.39-1.63A1,1,0,0,0,153.26,27.8Z" transform="translate(-1.02 -8.31)"/><path class="cls-10" d="M132.55,68.32a132.7,132.7,0,0,1,10,14.53,7.63,7.63,0,0,1-2.12,2.5q-12.85,12.7-25.74,25.38c-2.43,2.39-4.78,4.89-7.38,7.08A24.76,24.76,0,0,1,74.34,81C84.91,70.38,95.6,59.91,106.24,49.4c.5-.49,1.06-.91,1.6-1.36A90.94,90.94,0,0,1,132.55,68.32Z" transform="translate(-1.02 -8.31)"/><path class="cls-11" d="M108.15,47.52c10.9-10.8,21.7-21.72,32.76-32.37A23.06,23.06,0,0,1,161.46,9c9.67,1.63,16.48,7.24,19.6,16.58,3.2,9.59.89,18.18-6.05,25.49-2.48,2.62-5.1,5.12-7.68,7.64L142.6,82.85a132.7,132.7,0,0,0-10-14.53A90.94,90.94,0,0,0,107.84,48,2.24,2.24,0,0,1,108.15,47.52Zm51-17.85c.27-1.75-.79-3.41-2.43-3.39a2.64,2.64,0,0,0-2.81,2.51c-.21,1.71,1.13,2.86,3,2.88.69,0,1.34-1.1,2-.09.25.63-.23,1.12-.33,1.69a2.57,2.57,0,0,0,1.54,2.91,2.27,2.27,0,0,0,3-.51,2.64,2.64,0,0,0,.48-3.27,2.51,2.51,0,0,0-3-1.26c-.55.14-1,.73-1.64.48C157.93,30.84,159.05,30.31,159.15,29.67Zm-17.62-9.52c-.73.66-1.8,1.4-.82,2.45s1.8.08,2.56-.58c6.91-6,14.67-7.31,23.23-4.2.94.34,2.1.9,2.52-.47s-.81-1.59-1.74-2a28.76,28.76,0,0,0-8.88-1.76A24.66,24.66,0,0,0,141.53,20.15Zm34,3.37c-.38-.9-.7-2.11-2.05-1.53-1.13.49-.67,1.48-.36,2.34,2.91,8.14,1.95,15.69-3.46,22.56a1.66,1.66,0,0,0-.21.55c-.3,1-2,1.84-.95,2.74,1.43,1.17,2.36-.63,3-1.51,3.47-4.55,5.82-9.57,5.69-15.47A25.07,25.07,0,0,0,175.56,23.52ZM154.08,48.24a2.56,2.56,0,0,0-2.67,2.85,2.51,2.51,0,0,0,2.79,2.44,2.78,2.78,0,0,0,2.59-2.91A2.59,2.59,0,0,0,154.08,48.24Zm-9-16.1a2.73,2.73,0,0,0,2.75,2.91,2.73,2.73,0,0,0,.1-5.45A2.65,2.65,0,0,0,145.07,32.14Zm-5.65,1.13a2.58,2.58,0,0,0-2.8,2.51,2.67,2.67,0,0,0,2.76,2.85c1.5,0,2.61-1.14,2.63-3A2.5,2.5,0,0,0,139.42,33.27Zm9.83,15.52A2.81,2.81,0,0,0,152,45.88a2.57,2.57,0,0,0-2.83-2.47,2.49,2.49,0,0,0-2.58,2.64A2.62,2.62,0,0,0,149.25,48.79Zm8.61-8.92a2.44,2.44,0,0,0-2.7,2.52A2.71,2.71,0,0,0,158,45.2a2.91,2.91,0,0,0,2.61-3A2.57,2.57,0,0,0,157.86,39.87Zm-5.32.14a2.44,2.44,0,0,0,2.87-2.36,2.63,2.63,0,0,0-2.35-3c-1.5-.29-2.9,1.18-3.06,3.47A2.7,2.7,0,0,0,152.54,40Zm-8.09-1.59a2.4,2.4,0,0,0-2.71,2.48,2.54,2.54,0,0,0,2.68,2.84,2.61,2.61,0,0,0,2.63-2.66A2.52,2.52,0,0,0,144.45,38.42Zm20.4-10.37a2.61,2.61,0,0,0,2.76-2.56,2.55,2.55,0,0,0-2.48-2.83,2.68,2.68,0,0,0-2.81,2.63A2.71,2.71,0,0,0,164.85,28.05Z" transform="translate(-1.02 -8.31)"/><path class="cls-3" d="M158.4,13.62a24.66,24.66,0,0,0-16.87,6.53c-.73.66-1.8,1.4-.82,2.45s1.8.08,2.56-.58c6.91-6,14.67-7.31,23.23-4.2.94.34,2.1.9,2.52-.47s-.81-1.59-1.74-2A28.76,28.76,0,0,0,158.4,13.62Z" transform="translate(-1.02 -8.31)"/><path class="cls-3" d="M177.26,33.2a25.07,25.07,0,0,0-1.7-9.68c-.38-.9-.7-2.11-2.05-1.53-1.13.49-.67,1.48-.36,2.34,2.91,8.14,1.95,15.69-3.46,22.56a1.66,1.66,0,0,0-.21.55c-.3,1-2,1.84-.95,2.74,1.43,1.17,2.36-.63,3-1.51C175,44.12,177.39,39.1,177.26,33.2Z" transform="translate(-1.02 -8.31)"/><path class="cls-3" d="M156.79,50.62a2.7,2.7,0,0,0-5.38.47,2.51,2.51,0,0,0,2.79,2.44A2.78,2.78,0,0,0,156.79,50.62Z" transform="translate(-1.02 -8.31)"/><path class="cls-3" d="M158.93,31.58c-.7-1-1.35.09-2,.09-1.85,0-3.19-1.17-3-2.88a2.64,2.64,0,0,1,2.81-2.51c1.64,0,2.7,1.64,2.43,3.39-.1.64-1.22,1.17-.26,1.95ZM156.47,28a.9.9,0,0,0-.88,1,.88.88,0,0,0,1,.84.87.87,0,0,0,.88-1C157.33,28.42,157.08,28,156.47,28Z" transform="translate(-1.02 -8.31)"/><path class="cls-3" d="M150.46,32.35a2.58,2.58,0,0,1-2.64,2.7,2.73,2.73,0,0,1-2.75-2.91,2.65,2.65,0,0,1,2.85-2.54A2.6,2.6,0,0,1,150.46,32.35Zm-3.57.06a.88.88,0,1,0,1.76-.17c0-.59-.42-.81-1-.79A.8.8,0,0,0,146.89,32.41Z" transform="translate(-1.02 -8.31)"/><path class="cls-3" d="M139.38,38.63a2.67,2.67,0,0,1-2.76-2.85,2.58,2.58,0,0,1,2.8-2.51A2.5,2.5,0,0,1,142,35.61C142,37.49,140.88,38.61,139.38,38.63Zm-.18-1.81a.78.78,0,0,0,1-.77c0-.52-.17-1-.76-1a.86.86,0,0,0-1,.7A.82.82,0,0,0,139.2,36.82Z" transform="translate(-1.02 -8.31)"/><path class="cls-3" d="M149.19,43.41A2.57,2.57,0,0,1,152,45.88a2.81,2.81,0,0,1-2.77,2.91,2.62,2.62,0,0,1-2.64-2.74A2.49,2.49,0,0,1,149.19,43.41Zm0,1.75a.79.79,0,0,0-.78,1c.08.51.34.94,1,.84s.81-.47.81-1.1A.83.83,0,0,0,149.23,45.16Z" transform="translate(-1.02 -8.31)"/><path class="cls-3" d="M158,45.2a2.71,2.71,0,0,1-2.8-2.81,2.44,2.44,0,0,1,2.7-2.52,2.57,2.57,0,0,1,2.71,2.38A2.91,2.91,0,0,1,158,45.2Zm-1-2.56a.81.81,0,0,0,.76.78.91.91,0,0,0,1-.91c0-.59-.4-.84-.93-.93C157.27,41.75,156.89,42,157,42.64Z" transform="translate(-1.02 -8.31)"/><path class="cls-3" d="M153.06,34.67a2.63,2.63,0,0,1,2.35,3A2.44,2.44,0,0,1,152.54,40,2.7,2.7,0,0,1,150,38.14C150.16,35.85,151.56,34.38,153.06,34.67Zm-1.23,2.72c0,.73.54,1,1.19.9a.89.89,0,0,0,.77-1.07,1,1,0,0,0-1.06-.8A1,1,0,0,0,151.83,37.39Z" transform="translate(-1.02 -8.31)"/><path class="cls-3" d="M158.89,31.62c.67.25,1.09-.34,1.64-.48a2.51,2.51,0,0,1,3,1.26,2.64,2.64,0,0,1-.48,3.27,2.27,2.27,0,0,1-3,.51,2.57,2.57,0,0,1-1.54-2.91c.1-.57.58-1.06.33-1.69Zm1.38,2c-.07.55.31.88.84,1a.81.81,0,0,0,1-.75.85.85,0,0,0-.69-1C160.76,32.84,160.33,33.08,160.27,33.63Z" transform="translate(-1.02 -8.31)"/><path class="cls-3" d="M144.42,43.74a2.54,2.54,0,0,1-2.68-2.84,2.4,2.4,0,0,1,2.71-2.48,2.52,2.52,0,0,1,2.6,2.66A2.61,2.61,0,0,1,144.42,43.74Zm-1-2.73a.91.91,0,0,0,1.1,1,.94.94,0,0,0,.82-1,1.12,1.12,0,0,0-.93-.9C143.84,40.19,143.42,40.49,143.42,41Z" transform="translate(-1.02 -8.31)"/><path class="cls-3" d="M165.13,22.66a2.55,2.55,0,0,1,2.48,2.83,2.61,2.61,0,0,1-2.76,2.56,2.71,2.71,0,0,1-2.53-2.76A2.68,2.68,0,0,1,165.13,22.66ZM164,25.36a.89.89,0,0,0,.93.9c.67,0,1.12-.34,1-1a.89.89,0,0,0-.93-.79C164.36,24.51,164,24.85,164,25.36Z" transform="translate(-1.02 -8.31)"/><path class="cls-7" d="M157.51,28.88c-.18-.46-.43-.9-1-.84a.9.9,0,0,0-.88,1,.88.88,0,0,0,1,.84A.87.87,0,0,0,157.51,28.88Z" transform="translate(-1.02 -8.31)"/><path class="cls-7" d="M147.68,31.44a.89.89,0,1,0,1,.8C148.61,31.65,148.23,31.43,147.68,31.44Z" transform="translate(-1.02 -8.31)"/><path class="cls-7" d="M138.44,35.73a.82.82,0,0,0,.76,1.09.78.78,0,0,0,1-.77c0-.52-.17-1-.76-1A.86.86,0,0,0,138.44,35.73Z" transform="translate(-1.02 -8.31)"/><path class="cls-7" d="M150.21,45.89a.83.83,0,0,0-1-.73.79.79,0,0,0-.78,1c.08.51.34.94,1,.84S150.21,46.52,150.21,45.89Z" transform="translate(-1.02 -8.31)"/><path class="cls-7" d="M157.78,41.58c-.51.17-.89.44-.8,1.06a.81.81,0,0,0,.76.78.91.91,0,0,0,1-.91C158.74,41.92,158.31,41.67,157.78,41.58Z" transform="translate(-1.02 -8.31)"/><path class="cls-7" d="M154.2,50c-.51.17-.89.44-.79,1.06a.8.8,0,0,0,.76.78.9.9,0,0,0,1-.9C155.17,50.31,154.74,50.05,154.2,50Z" transform="translate(-1.02 -8.31)"/><path class="cls-7" d="M152.73,36.41a1,1,0,0,0-.9,1c0,.73.54,1,1.19.9a.89.89,0,0,0,.77-1.07A1,1,0,0,0,152.73,36.41Z" transform="translate(-1.02 -8.31)"/><path class="cls-7" d="M161.44,32.87c-.68,0-1.11.21-1.17.76s.31.88.84,1a.81.81,0,0,0,1-.75A.85.85,0,0,0,161.44,32.87Z" transform="translate(-1.02 -8.31)"/><path class="cls-7" d="M144.41,40.07c-.57.12-1,.42-1,.94a.91.91,0,0,0,1.1,1,.94.94,0,0,0,.82-1A1.12,1.12,0,0,0,144.41,40.07Z" transform="translate(-1.02 -8.31)"/><path class="cls-7" d="M165,24.45c-.66.06-1.05.4-1.05.91a.89.89,0,0,0,.93.9c.67,0,1.12-.34,1-1A.89.89,0,0,0,165,24.45Z" transform="translate(-1.02 -8.31)"/><path class="cls-12" d="M15.74,152.84a22,22,0,0,1-9.06-10.16c-.6-1.25-.58-2.54.78-3.19s2.3.32,2.86,1.54c2.89,6.23,7.61,9.8,14.59,10.18,1.32.07,2.49.58,2.31,2.25-.16,1.52-1.38,1.64-2.53,1.62A19.89,19.89,0,0,1,15.74,152.84Z" transform="translate(-1.02 -8.31)"/><path class="cls-12" d="M29.21,152.48c.93-1.07,2-1.59,3.3-.87a2.26,2.26,0,0,1,.94,3.41,2.29,2.29,0,0,1-3.22.91C28.77,155.17,28.79,153.83,29.21,152.48Z" transform="translate(-1.02 -8.31)"/><path class="cls-12" d="M167.41,157.32a21.91,21.91,0,0,0,9.05-10.15c.61-1.25.58-2.54-.78-3.2s-2.3.33-2.86,1.54c-2.88,6.24-7.6,9.81-14.59,10.19-1.32.07-2.49.58-2.31,2.25s1.38,1.64,2.54,1.61A19.63,19.63,0,0,0,167.41,157.32Z" transform="translate(-1.02 -8.31)"/><path class="cls-12" d="M153.93,157c-.93-1.07-2-1.58-3.3-.86a2.25,2.25,0,0,0-.93,3.4,2.27,2.27,0,0,0,3.22.91C154.37,159.65,154.35,158.32,153.93,157Z" transform="translate(-1.02 -8.31)"/></svg>