<svg id="Capa_1" data-name="Capa 1" xmlns="http://www.w3.org/2000/svg" viewBox="0 0 568.51 85.68"><defs><style>.cls-1{fill:#87868a;}.cls-2{fill:#49a6ba;}.cls-3{fill:#007a94;}.cls-4{fill:#f7f4ef;}.cls-5{fill:#d27a2c;}.cls-6{fill:#8ab242;}.cls-7{fill:#57a480;}.cls-8{fill:#fff;}.cls-9{fill:#ab1822;}.cls-10{fill:#d17624;}.cls-11{fill:#eecf45;}.cls-12{fill:#e2ab54;}.cls-13{fill:#fdfbfc;}</style></defs><title>logo</title><path class="cls-1" d="M155.58,401.27v6.12h52v11.76h-52v12.42c0,3.3,3.36,6,7.39,6h59v11.77H163c-12,0-21.7-8-21.7-17.79v-30.3c0-9.79,9.7-17.79,21.7-17.79h59v11.76H163C158.94,395.24,155.58,398,155.58,401.27Z" transform="translate(-30.53 -365.39)"/><path class="cls-1" d="M314.31,383.48v65.88H299.88v-42l-14.2,8.84-11.78,7.44-11.78-7.44-14.2-8.84v42H233.49V383.48l14.43,9,26,16.27,26-16.27Z" transform="translate(-30.53 -365.39)"/><path class="cls-1" d="M403.76,416.42c0,18.16-18.13,32.94-40.42,32.94s-40.41-14.78-40.41-32.94,18.13-32.94,40.41-32.94S403.76,398.26,403.76,416.42Zm-14.44,0c0-11.67-11.65-21.18-26-21.18s-26,9.51-26,21.18,11.66,21.17,26,21.17S389.32,428.09,389.32,416.42Z" transform="translate(-30.53 -365.39)"/><path class="cls-1" d="M477.62,437.69,485,449.45H468.84l-7.39-11.76-7.73-12.33-.35-.56a15.19,15.19,0,0,0-12.23-5.65H426.7v30.3H412.27V383.58h51a24.31,24.31,0,0,1,15.35,5.17c3.92,3.3,6.35,7.72,6.35,12.61,0,7.15-5.19,13.37-12.7,16.19a22.89,22.89,0,0,1-6.23,1.41Zm-14.31-30.3a8,8,0,0,0,3-.57,6.06,6.06,0,0,0,4.39-5.46,5.72,5.72,0,0,0-2.2-4.32,8.11,8.11,0,0,0-5.19-1.7H426.7v12.14Z" transform="translate(-30.53 -365.39)"/><path class="cls-1" d="M496.63,449.36V383.48h14.43v65.88Z" transform="translate(-30.53 -365.39)"/><path class="cls-1" d="M584.61,401.74v-.38c0-3.29-3.35-6-7.39-6h-32.8c-4,0-7.39,2.73-7.39,6v.38c0,3.29,3.35,6,7.39,6h29.11a28.24,28.24,0,0,1,18.82,6.78c.35.28.58.56.93.84a18.71,18.71,0,0,1,5.77,13.18c0,11.48-11.44,20.8-25.52,20.8H548.24c-14.09,0-25.52-9.32-25.52-20.8h14.44c0,5,5,9,11.08,9h25.29c6.11,0,11.2-4,11.2-9s-5.09-9-11.2-9H544.42a24.31,24.31,0,0,1-15.12-5,17.23,17.23,0,0,1-2.77-2.83,15.3,15.3,0,0,1-3.81-10.07v-.37c0-9.79,9.7-17.79,21.7-17.79h32.8c12,0,21.83,8,21.83,17.79v.37Z" transform="translate(-30.53 -365.39)"/><path class="cls-2" d="M59.5,408c0,.4.08.81.07,1.21-.13,8.64-.22,17.29-.41,25.93a14.31,14.31,0,0,1-28.57,1c-.12-2,0-3.94,0-5.91q.13-10.44.29-20.88a4.34,4.34,0,0,1,.19-1.89,76.09,76.09,0,0,1,10.08-1.61A52.68,52.68,0,0,1,59.5,408Z" transform="translate(-30.53 -365.39)"/><path class="cls-3" d="M59.5,408a52.68,52.68,0,0,0-18.34-2.19,76.09,76.09,0,0,0-10.08,1.61q.11-10,.2-20c0-2.08,0-4.17.11-6.26.28-5.81,2.94-10.21,8.21-12.71a13.63,13.63,0,0,1,14.75,1.54A13.3,13.3,0,0,1,60,381.1c0,8.87-.25,17.74-.4,26.6A1.31,1.31,0,0,1,59.5,408ZM45.93,380.19c-.37-.18-.29-.59-.45-.88a1.45,1.45,0,0,0-1.75-.76,1.53,1.53,0,0,0-1.17,1.51,1.31,1.31,0,0,0,1,1.43,1.49,1.49,0,0,0,1.83-.52c.2-.27.21-.67.57-.82.71-.11.5.6.78.89A1.57,1.57,0,1,0,49,379a1.58,1.58,0,0,0-2.39.35C46.41,379.6,46.64,380.27,45.93,380.19Zm7.7-7a16.15,16.15,0,0,0-4.28-3c-.53-.24-1.15-.61-1.52.05s.3,1,.81,1.24a12.62,12.62,0,0,1,7.54,11.37c0,.58,0,1.31.78,1.3s.71-.75.7-1.32A14.23,14.23,0,0,0,53.63,373.19Zm-15.71,0a14,14,0,0,0-4.17,8.56c-.1.63-.47,1.74.59,1.87.81.1.48-1,.76-1.49a1,1,0,0,0,.14-.31,12.87,12.87,0,0,1,8-10.47c.48-.21,1.08-.41.83-1.08s-.93-.44-1.46-.24A14.5,14.5,0,0,0,37.92,373.16Zm.93,15.5a1.6,1.6,0,0,0-.18,2.24,1.45,1.45,0,0,0,2.13.19,1.47,1.47,0,0,0,.12-2.25A1.49,1.49,0,0,0,38.85,388.66ZM51.16,384A1.5,1.5,0,0,0,49,384a1.47,1.47,0,0,0-.07,2.17,1.57,1.57,0,0,0,2.31,0A1.54,1.54,0,0,0,51.16,384ZM51,388.82a1.57,1.57,0,0,0-.21,2.31,1.55,1.55,0,0,0,2.29,0A1.5,1.5,0,0,0,53,389,1.45,1.45,0,0,0,51,388.82Zm-6.19,2.26a1.44,1.44,0,0,0,.06-2.13,1.49,1.49,0,0,0-2.16-.2,1.62,1.62,0,0,0-.1,2.32A1.52,1.52,0,0,0,44.83,391.08Zm-4-7.35a1.7,1.7,0,0,0-.18,2.27,1.56,1.56,0,0,0,2.29.05,1.42,1.42,0,0,0,0-2.14A1.5,1.5,0,0,0,40.82,383.73Zm6,2.77c.89-1,.94-2.15.22-2.67a1.53,1.53,0,0,0-2.18.22,1.41,1.41,0,0,0,.16,2.14A1.56,1.56,0,0,0,46.77,386.5Zm-.05,2.41a1.51,1.51,0,0,0,0,2.16,1.47,1.47,0,0,0,2.25,0,1.39,1.39,0,0,0-.05-2.12A1.45,1.45,0,0,0,46.72,388.91Zm.48-12.69a1.54,1.54,0,0,0,0-2.22,1.48,1.48,0,0,0-2.17.1,1.51,1.51,0,0,0,0,2.17A1.55,1.55,0,0,0,47.2,376.22Z" transform="translate(-30.53 -365.39)"/><path class="cls-4" d="M53.63,373.19a14.23,14.23,0,0,1,4,9.65c0,.57.13,1.31-.7,1.32s-.75-.72-.78-1.3a12.62,12.62,0,0,0-7.54-11.37c-.51-.25-1.21-.51-.81-1.24s1-.29,1.52-.05A16.15,16.15,0,0,1,53.63,373.19Z" transform="translate(-30.53 -365.39)"/><path class="cls-4" d="M37.92,373.16A14.5,14.5,0,0,1,42.64,370c.53-.2,1.16-.56,1.46.24s-.35.87-.83,1.08a12.87,12.87,0,0,0-8,10.47,1,1,0,0,1-.14.31c-.28.5,0,1.59-.76,1.49-1.06-.13-.69-1.24-.59-1.87A14,14,0,0,1,37.92,373.16Z" transform="translate(-30.53 -365.39)"/><path class="cls-4" d="M38.85,388.66a1.49,1.49,0,0,1,2.07.18,1.47,1.47,0,0,1-.12,2.25,1.45,1.45,0,0,1-2.13-.19A1.6,1.6,0,0,1,38.85,388.66Z" transform="translate(-30.53 -365.39)"/><path class="cls-4" d="M45.93,380.19c.71.08.48-.59.71-.89A1.58,1.58,0,0,1,49,379,1.57,1.57,0,1,1,46.71,381c-.28-.29-.07-1-.78-.89Zm1.7-.53a.56.56,0,0,0,.69.87.52.52,0,0,0,.07-.77C48.17,379.48,47.89,379.56,47.63,379.66Z" transform="translate(-30.53 -365.39)"/><path class="cls-4" d="M51.16,384a1.54,1.54,0,0,1,.08,2.21,1.57,1.57,0,0,1-2.31,0A1.47,1.47,0,0,1,49,384,1.5,1.5,0,0,1,51.16,384Zm-.67.84a.48.48,0,0,0-.72-.09.47.47,0,0,0-.09.72.48.48,0,0,0,.72.09A.47.47,0,0,0,50.49,384.79Z" transform="translate(-30.53 -365.39)"/><path class="cls-4" d="M51,388.82a1.45,1.45,0,0,1,2,.14,1.5,1.5,0,0,1,.07,2.18,1.55,1.55,0,0,1-2.29,0A1.57,1.57,0,0,1,51,388.82Zm1.37,1.54a.5.5,0,0,0-.09-.69.48.48,0,0,0-.73.09.45.45,0,0,0,.07.72A.46.46,0,0,0,52.39,390.36Z" transform="translate(-30.53 -365.39)"/><path class="cls-4" d="M44.83,391.08a1.52,1.52,0,0,1-2.2,0,1.62,1.62,0,0,1,.1-2.32,1.49,1.49,0,0,1,2.16.2A1.44,1.44,0,0,1,44.83,391.08Zm-1.38-1.57a.56.56,0,0,0-.13.78c.2.3.48.23.72.06a.46.46,0,0,0,.11-.72A.48.48,0,0,0,43.45,389.51Z" transform="translate(-30.53 -365.39)"/><path class="cls-4" d="M40.82,383.73a1.5,1.5,0,0,1,2.08.18,1.42,1.42,0,0,1,0,2.14,1.56,1.56,0,0,1-2.29-.05A1.7,1.7,0,0,1,40.82,383.73Zm1.4.9c-.25-.18-.53-.26-.76,0a.51.51,0,0,0,0,.76.46.46,0,0,0,.63,0C42.4,385.18,42.36,384.91,42.22,384.63Z" transform="translate(-30.53 -365.39)"/><path class="cls-4" d="M46.77,386.5a1.56,1.56,0,0,1-1.8-.31,1.41,1.41,0,0,1-.16-2.14,1.53,1.53,0,0,1,2.18-.22C47.71,384.35,47.66,385.52,46.77,386.5Zm-.37-1.83a.58.58,0,0,0-.77-.12.52.52,0,0,0-.14.75.53.53,0,0,0,.86.14A.59.59,0,0,0,46.4,384.67Z" transform="translate(-30.53 -365.39)"/><path class="cls-4" d="M45.93,380.15c-.36.15-.37.55-.57.82a1.49,1.49,0,0,1-1.83.52,1.31,1.31,0,0,1-1-1.43,1.53,1.53,0,0,1,1.17-1.51,1.45,1.45,0,0,1,1.75.76c.16.29.08.7.45.88Zm-1.54-.53a.5.5,0,0,0-.68.1.47.47,0,0,0,.09.73.5.5,0,0,0,.74,0C44.75,380.17,44.67,379.89,44.39,379.62Z" transform="translate(-30.53 -365.39)"/><path class="cls-4" d="M46.72,388.91a1.45,1.45,0,0,1,2.15,0,1.39,1.39,0,0,1,.05,2.12,1.47,1.47,0,0,1-2.25,0A1.51,1.51,0,0,1,46.72,388.91Zm1.48.69a.65.65,0,0,0-.75,0,.54.54,0,0,0-.11.75.53.53,0,0,0,.86.06C48.42,390.18,48.38,389.89,48.2,389.6Z" transform="translate(-30.53 -365.39)"/><path class="cls-4" d="M47.2,376.22a1.55,1.55,0,0,1-2.16,0,1.51,1.51,0,0,1,0-2.17,1.48,1.48,0,0,1,2.17-.1A1.54,1.54,0,0,1,47.2,376.22Zm-.73-1.46a.53.53,0,1,0-.71.78.51.51,0,0,0,.75,0C46.72,375.36,46.71,375.06,46.47,374.76Z" transform="translate(-30.53 -365.39)"/><path class="cls-5" d="M47.63,379.66c.26-.1.54-.18.76.1a.52.52,0,0,1-.07.77.56.56,0,0,1-.69-.87Z" transform="translate(-30.53 -365.39)"/><path class="cls-5" d="M50.49,384.79a.47.47,0,0,1-.09.72.48.48,0,0,1-.72-.09.47.47,0,0,1,.09-.72A.48.48,0,0,1,50.49,384.79Z" transform="translate(-30.53 -365.39)"/><path class="cls-5" d="M52.39,390.36a.46.46,0,0,1-.75.12.45.45,0,0,1-.07-.72.48.48,0,0,1,.73-.09A.5.5,0,0,1,52.39,390.36Z" transform="translate(-30.53 -365.39)"/><path class="cls-5" d="M43.45,389.51a.48.48,0,0,1,.7.12.46.46,0,0,1-.11.72c-.24.17-.52.24-.72-.06A.56.56,0,0,1,43.45,389.51Z" transform="translate(-30.53 -365.39)"/><path class="cls-5" d="M42.22,384.63c.14.28.18.55-.12.76a.46.46,0,0,1-.63,0,.51.51,0,0,1,0-.76C41.69,384.37,42,384.45,42.22,384.63Z" transform="translate(-30.53 -365.39)"/><path class="cls-5" d="M46.4,384.67a.59.59,0,0,1,0,.77.53.53,0,0,1-.86-.14.52.52,0,0,1,.14-.75A.58.58,0,0,1,46.4,384.67Z" transform="translate(-30.53 -365.39)"/><path class="cls-5" d="M44.39,379.62c.28.27.36.55.15.79a.5.5,0,0,1-.74,0,.47.47,0,0,1-.09-.73A.5.5,0,0,1,44.39,379.62Z" transform="translate(-30.53 -365.39)"/><path class="cls-5" d="M48.2,389.6c.18.29.22.58,0,.79a.53.53,0,0,1-.86-.06.54.54,0,0,1,.11-.75A.65.65,0,0,1,48.2,389.6Z" transform="translate(-30.53 -365.39)"/><path class="cls-5" d="M46.47,374.76c.24.3.25.6,0,.8a.51.51,0,0,1-.75,0,.53.53,0,1,1,.71-.78Z" transform="translate(-30.53 -365.39)"/><path class="cls-6" d="M71,386.69c.28.24.59.47.86.73,5.74,5.68,11.51,11.33,17.21,17a13.37,13.37,0,0,1-17.82,19.89c-1.4-1.19-2.67-2.54-4-3.83l-13.89-13.7a3.92,3.92,0,0,1-1.14-1.35,70,70,0,0,1,5.42-7.83A49.06,49.06,0,0,1,71,386.69Z" transform="translate(-30.53 -365.39)"/><path class="cls-7" d="M71,386.69a49.06,49.06,0,0,0-13.34,10.95,70,70,0,0,0-5.42,7.83L38.9,392.42c-1.39-1.36-2.81-2.7-4.15-4.12-3.74-3.94-5-8.58-3.26-13.76a12.72,12.72,0,0,1,10.58-8.94,12.44,12.44,0,0,1,11.09,3.34c6,5.75,11.79,11.64,17.68,17.47A2.61,2.61,0,0,1,71,386.69Zm-27.55-8.86c-.36.13-.59-.18-.89-.26a1.35,1.35,0,0,0-1.64.68,1.43,1.43,0,0,0,.26,1.77,1.23,1.23,0,0,0,1.59.27,1.38,1.38,0,0,0,.83-1.57c0-.31-.31-.57-.18-.91.38-.55.73.05,1.1,0,1,0,1.73-.63,1.61-1.55A1.42,1.42,0,0,0,44.63,375a1.47,1.47,0,0,0-1.32,1.83C43.37,377.13,44,377.41,43.46,377.83Zm.26-9.72a15.46,15.46,0,0,0-4.79,1c-.51.2-1.15.38-.94,1.06s.85.43,1.36.25a11.77,11.77,0,0,1,12.53,2.27c.41.36.88.85,1.39.31s-.05-1-.44-1.32A13.4,13.4,0,0,0,43.72,368.11ZM33.54,378.68A13.1,13.1,0,0,0,36.61,387c.37.48.87,1.45,1.64.82.6-.49-.35-1-.51-1.48a1,1,0,0,0-.11-.3,12,12,0,0,1-1.87-12.17c.16-.47.42-1-.2-1.27s-.9.34-1.1.83A13.54,13.54,0,0,0,33.54,378.68Zm11.05,9.4A1.5,1.5,0,0,0,46,389.65a1.35,1.35,0,0,0,1.51-1.31,1.38,1.38,0,0,0-1.44-1.54A1.39,1.39,0,0,0,44.59,388.08Zm4.78-11.34a1.47,1.47,0,0,0,.06,2.94,1.47,1.47,0,0,0,1.48-1.57A1.43,1.43,0,0,0,49.37,376.74Zm3.2,3.24A1.45,1.45,0,0,0,54,381.61a1.43,1.43,0,0,0,1.49-1.53A1.38,1.38,0,0,0,54,378.72,1.34,1.34,0,0,0,52.57,380Zm-2.49,5.64a1.34,1.34,0,0,0-1.39-1.43,1.39,1.39,0,0,0-1.53,1.33,1.52,1.52,0,0,0,1.5,1.57A1.41,1.41,0,0,0,50.08,385.62Zm-7.53-2.05A1.57,1.57,0,0,0,44,385.16a1.47,1.47,0,0,0,1.51-1.52A1.32,1.32,0,0,0,44,382.28,1.39,1.39,0,0,0,42.55,383.57Zm5.7-2.22c-.09-1.24-.84-2-1.65-1.88a1.43,1.43,0,0,0-1.27,1.61,1.33,1.33,0,0,0,1.55,1.28A1.45,1.45,0,0,0,48.25,381.35Zm1.59,1.58a1.42,1.42,0,0,0,1.42,1.44,1.37,1.37,0,0,0,1.45-1.53,1.3,1.3,0,0,0-1.47-1.34A1.36,1.36,0,0,0,49.84,382.93Zm-8.24-8.52A1.45,1.45,0,0,0,40.09,373a1.38,1.38,0,0,0-1.34,1.53,1.41,1.41,0,0,0,1.49,1.38A1.45,1.45,0,0,0,41.6,374.41Z" transform="translate(-30.53 -365.39)"/><path class="cls-4" d="M43.72,368.11a13.4,13.4,0,0,1,9.11,3.53c.39.35,1,.76.44,1.32s-1,.05-1.39-.31a11.77,11.77,0,0,0-12.53-2.27c-.51.18-1.14.49-1.36-.25s.43-.86.94-1.06A15.46,15.46,0,0,1,43.72,368.11Z" transform="translate(-30.53 -365.39)"/><path class="cls-4" d="M33.54,378.68a13.54,13.54,0,0,1,.92-5.22c.2-.49.38-1.14,1.1-.83s.36.8.2,1.27a12,12,0,0,0,1.87,12.17,1,1,0,0,1,.11.3c.16.51,1.11,1,.51,1.48-.77.63-1.27-.34-1.64-.82A13.1,13.1,0,0,1,33.54,378.68Z" transform="translate(-30.53 -365.39)"/><path class="cls-4" d="M44.59,388.08a1.39,1.39,0,0,1,1.46-1.28,1.38,1.38,0,0,1,1.44,1.54A1.35,1.35,0,0,1,46,389.65,1.5,1.5,0,0,1,44.59,388.08Z" transform="translate(-30.53 -365.39)"/><path class="cls-4" d="M43.46,377.83c.51-.42-.09-.7-.15-1.05A1.47,1.47,0,0,1,44.63,375a1.42,1.42,0,0,1,1.51,1.35c.12.92-.61,1.54-1.61,1.55-.37,0-.72-.59-1.1,0Zm.74-1.48a.46.46,0,0,0,.47.54.47.47,0,0,0,.56-.45.48.48,0,0,0-.47-.54C44.43,375.86,44.3,376.1,44.2,376.35Z" transform="translate(-30.53 -365.39)"/><path class="cls-4" d="M49.37,376.74a1.43,1.43,0,0,1,1.54,1.37,1.47,1.47,0,0,1-1.48,1.57,1.47,1.47,0,0,1-.06-2.94Zm.14,1c-.3,0-.51.11-.53.42a.44.44,0,0,0,.43.53.44.44,0,0,0,.52-.43A.43.43,0,0,0,49.51,377.74Z" transform="translate(-30.53 -365.39)"/><path class="cls-4" d="M52.57,380A1.34,1.34,0,0,1,54,378.72a1.38,1.38,0,0,1,1.51,1.36A1.43,1.43,0,0,1,54,381.61,1.45,1.45,0,0,1,52.57,380Zm1.92.07a.46.46,0,0,0-.53-.38c-.32,0-.42.27-.41.55a.43.43,0,0,0,.53.42A.45.45,0,0,0,54.49,380.05Z" transform="translate(-30.53 -365.39)"/><path class="cls-4" d="M50.08,385.62a1.41,1.41,0,0,1-1.42,1.47,1.52,1.52,0,0,1-1.5-1.57,1.39,1.39,0,0,1,1.53-1.33A1.34,1.34,0,0,1,50.08,385.62Zm-1.94-.09a.53.53,0,0,0,.44.6c.33.05.47-.18.51-.46a.44.44,0,0,0-.42-.54A.46.46,0,0,0,48.14,385.53Z" transform="translate(-30.53 -365.39)"/><path class="cls-4" d="M42.55,383.57A1.39,1.39,0,0,1,44,382.28a1.32,1.32,0,0,1,1.46,1.36A1.47,1.47,0,0,1,44,385.16,1.57,1.57,0,0,1,42.55,383.57Zm1.5-.37c-.28.05-.52.19-.5.51a.49.49,0,0,0,.52.49.43.43,0,0,0,.41-.42C44.54,383.44,44.33,383.29,44.05,383.2Z" transform="translate(-30.53 -365.39)"/><path class="cls-4" d="M48.25,381.35a1.45,1.45,0,0,1-1.37,1,1.33,1.33,0,0,1-1.55-1.28,1.43,1.43,0,0,1,1.27-1.61C47.41,379.32,48.16,380.11,48.25,381.35Zm-1.47-.93a.53.53,0,0,0-.57.43.48.48,0,0,0,.41.58c.35.06.64-.09.65-.49S47.06,380.49,46.78,380.42Z" transform="translate(-30.53 -365.39)"/><path class="cls-4" d="M43.43,377.81c-.13.34.13.6.18.91a1.38,1.38,0,0,1-.83,1.57,1.23,1.23,0,0,1-1.59-.27,1.43,1.43,0,0,1-.26-1.77,1.35,1.35,0,0,1,1.64-.68c.3.08.53.39.89.26Zm-1.35.69a.46.46,0,0,0-.37.53.44.44,0,0,0,.55.41.47.47,0,0,0,.45-.53C42.67,378.61,42.44,378.49,42.08,378.5Z" transform="translate(-30.53 -365.39)"/><path class="cls-4" d="M49.84,382.93a1.36,1.36,0,0,1,1.4-1.43,1.3,1.3,0,0,1,1.47,1.34,1.37,1.37,0,0,1-1.45,1.53A1.42,1.42,0,0,1,49.84,382.93Zm1.43-.54a.59.59,0,0,0-.5.49.52.52,0,1,0,1,0C51.8,382.62,51.58,382.45,51.27,382.39Z" transform="translate(-30.53 -365.39)"/><path class="cls-4" d="M41.6,374.41a1.45,1.45,0,0,1-1.36,1.49,1.41,1.41,0,0,1-1.49-1.38A1.38,1.38,0,0,1,40.09,373,1.45,1.45,0,0,1,41.6,374.41ZM40.14,374a.48.48,0,0,0-.5.43c0,.37.21.56.57.55a.47.47,0,0,0,.5-.49C40.71,374.17,40.5,374,40.14,374Z" transform="translate(-30.53 -365.39)"/><path class="cls-8" d="M44.2,376.35c.1-.25.23-.49.56-.45a.48.48,0,0,1,.47.54.47.47,0,0,1-.56.45A.46.46,0,0,1,44.2,376.35Z" transform="translate(-30.53 -365.39)"/><path class="cls-8" d="M49.5,377.73a.48.48,0,0,1-.09,1,.44.44,0,0,1-.43-.53C49,377.85,49.21,377.73,49.5,377.73Z" transform="translate(-30.53 -365.39)"/><path class="cls-8" d="M54.49,380.05a.45.45,0,0,1-.41.59.43.43,0,0,1-.53-.42c0-.28.09-.52.41-.55A.46.46,0,0,1,54.49,380.05Z" transform="translate(-30.53 -365.39)"/><path class="cls-8" d="M48.14,385.53a.46.46,0,0,1,.53-.4.44.44,0,0,1,.42.54c0,.28-.18.51-.51.46A.53.53,0,0,1,48.14,385.53Z" transform="translate(-30.53 -365.39)"/><path class="cls-8" d="M44.05,383.2c.28.09.49.24.43.58a.43.43,0,0,1-.41.42.49.49,0,0,1-.52-.49C43.53,383.39,43.77,383.25,44.05,383.2Z" transform="translate(-30.53 -365.39)"/><path class="cls-8" d="M46.78,380.42c.28.07.49.23.49.52s-.3.55-.65.49a.48.48,0,0,1-.41-.58A.53.53,0,0,1,46.78,380.42Z" transform="translate(-30.53 -365.39)"/><path class="cls-8" d="M42.08,378.5c.36,0,.59.11.63.41a.47.47,0,0,1-.45.53.44.44,0,0,1-.55-.41A.46.46,0,0,1,42.08,378.5Z" transform="translate(-30.53 -365.39)"/><path class="cls-8" d="M51.27,382.39c.31.06.53.23.54.51a.52.52,0,1,1-1,0A.59.59,0,0,1,51.27,382.39Z" transform="translate(-30.53 -365.39)"/><path class="cls-8" d="M40.14,374c.36,0,.57.21.57.49a.47.47,0,0,1-.5.49c-.36,0-.6-.18-.57-.55A.48.48,0,0,1,40.14,374Z" transform="translate(-30.53 -365.39)"/><path class="cls-9" d="M118.05,407.24a77.17,77.17,0,0,1,10.15,1.63,4.39,4.39,0,0,1,.2,1.9q.15,10.53.29,21.05c0,2,.13,4,0,6a14.42,14.42,0,0,1-28.79-1c-.19-8.71-.28-17.42-.41-26.13,0-.4.05-.81.07-1.22A53,53,0,0,1,118.05,407.24Z" transform="translate(-30.53 -365.39)"/><path class="cls-10" d="M99.47,409.11c-.15-8.93-.38-17.87-.4-26.81a13.44,13.44,0,0,1,5.68-11.14,13.74,13.74,0,0,1,14.86-1.55c5.32,2.52,8,6.95,8.28,12.81.1,2.1.09,4.21.11,6.31q.1,10.08.2,20.14a77.17,77.17,0,0,0-10.15-1.63,53,53,0,0,0-18.49,2.21A1.31,1.31,0,0,1,99.47,409.11Zm13-28.63a1.59,1.59,0,0,0-2.4-.34,1.57,1.57,0,1,0,2.33,2.1c.28-.29.08-1,.79-.89.36.15.37.55.57.82a1.52,1.52,0,0,0,1.85.53,1.33,1.33,0,0,0,1-1.45,1.52,1.52,0,0,0-1.18-1.52,1.46,1.46,0,0,0-1.76.77c-.16.29-.08.7-.45.88C112.53,381.47,112.75,380.79,112.52,380.48Zm-11.1,3.57c0,.57-.14,1.33.7,1.34s.76-.73.79-1.31a12.71,12.71,0,0,1,7.59-11.46c.52-.26,1.23-.52.82-1.25s-1-.3-1.53-.06a16.41,16.41,0,0,0-4.31,3A14.34,14.34,0,0,0,101.42,384.05Zm15.13-12.94c-.53-.2-1.17-.56-1.47.25s.35.87.84,1.09A12.93,12.93,0,0,1,124,383a1,1,0,0,0,.15.31c.28.51-.06,1.6.76,1.5,1.07-.13.69-1.25.59-1.89a14.1,14.1,0,0,0-4.2-8.62A14.49,14.49,0,0,0,116.55,371.11Zm1.74,19a1.48,1.48,0,0,0,.11,2.27,1.47,1.47,0,0,0,2.16-.19,1.63,1.63,0,0,0-.18-2.26A1.5,1.5,0,0,0,118.29,390.1Zm-10.4-2.7a1.58,1.58,0,0,0,2.32,0,1.59,1.59,0,0,0-2.24-2.24A1.53,1.53,0,0,0,107.89,387.4Zm-1.81,2.83a1.5,1.5,0,0,0-.07,2.19,1.58,1.58,0,1,0,2.1-2.34A1.46,1.46,0,0,0,106.08,390.23Zm10.49,2.12a1.64,1.64,0,0,0-.11-2.34,1.5,1.5,0,0,0-2.18.2,1.45,1.45,0,0,0,.07,2.15A1.54,1.54,0,0,0,116.57,392.35Zm-.28-7.21a1.42,1.42,0,0,0,0,2.15,1.58,1.58,0,0,0,2.31-.05,1.68,1.68,0,0,0-.19-2.28A1.49,1.49,0,0,0,116.29,385.14Zm-2.09,2.29a1.42,1.42,0,0,0,.17-2.16,1.53,1.53,0,0,0-2.2-.21c-.73.52-.67,1.69.22,2.68A1.56,1.56,0,0,0,114.2,387.43Zm-3.92,2.76a1.4,1.4,0,0,0-.06,2.14,1.49,1.49,0,0,0,2.28,0,1.53,1.53,0,0,0-.06-2.18A1.46,1.46,0,0,0,110.28,390.19Zm3.86-12.76a1.51,1.51,0,0,0,0-2.18,1.47,1.47,0,0,0-2.18-.1,1.57,1.57,0,0,0,2.15,2.28Z" transform="translate(-30.53 -365.39)"/><path class="cls-4" d="M105.48,374.33a14.34,14.34,0,0,0-4.06,9.72c0,.57-.14,1.33.7,1.34s.76-.73.79-1.31a12.71,12.71,0,0,1,7.59-11.46c.52-.26,1.23-.52.82-1.25s-1-.3-1.53-.06A16.41,16.41,0,0,0,105.48,374.33Z" transform="translate(-30.53 -365.39)"/><path class="cls-4" d="M121.31,374.3a14.49,14.49,0,0,0-4.76-3.19c-.53-.2-1.17-.56-1.47.25s.35.87.84,1.09A12.93,12.93,0,0,1,124,383a1,1,0,0,0,.15.31c.28.51-.06,1.6.76,1.5,1.07-.13.69-1.25.59-1.89A14.1,14.1,0,0,0,121.31,374.3Z" transform="translate(-30.53 -365.39)"/><path class="cls-4" d="M120.38,389.92a1.5,1.5,0,0,0-2.09.18,1.48,1.48,0,0,0,.11,2.27,1.47,1.47,0,0,0,2.16-.19A1.63,1.63,0,0,0,120.38,389.92Z" transform="translate(-30.53 -365.39)"/><path class="cls-4" d="M113.24,381.35c-.71-.12-.51.6-.79.89a1.57,1.57,0,1,1-2.33-2.1,1.59,1.59,0,0,1,2.4.34c.23.31,0,1,.72.9Zm-2.49-.4a.54.54,0,0,0,.08.78.56.56,0,0,0,.7-.88C111.26,380.75,111,380.67,110.75,381Z" transform="translate(-30.53 -365.39)"/><path class="cls-4" d="M110.15,385.22a1.5,1.5,0,0,1,.06,2.2,1.58,1.58,0,0,1-2.32,0,1.53,1.53,0,0,1,.08-2.22A1.51,1.51,0,0,1,110.15,385.22Zm-1.42,1.52a.48.48,0,0,0,.73-.08.52.52,0,0,0-.82-.64A.47.47,0,0,0,108.73,386.74Z" transform="translate(-30.53 -365.39)"/><path class="cls-4" d="M108.32,392.4a1.56,1.56,0,0,1-2.31,0,1.5,1.5,0,0,1,.07-2.19,1.46,1.46,0,0,1,2-.15A1.57,1.57,0,0,1,108.32,392.4Zm-.83-.65a.46.46,0,0,0,.07-.72.49.49,0,0,0-.74-.09.5.5,0,0,0-.1.69A.48.48,0,0,0,107.49,391.75Z" transform="translate(-30.53 -365.39)"/><path class="cls-4" d="M114.28,390.21a1.5,1.5,0,0,1,2.18-.2,1.64,1.64,0,0,1,.11,2.34,1.54,1.54,0,0,1-2.22,0A1.45,1.45,0,0,1,114.28,390.21Zm.75.68a.47.47,0,0,0,.11.73c.24.18.53.24.73-.05a.57.57,0,0,0-.13-.79A.5.5,0,0,0,115,390.89Z" transform="translate(-30.53 -365.39)"/><path class="cls-4" d="M118.57,387.24a1.58,1.58,0,0,1-2.31.05,1.42,1.42,0,0,1,0-2.15,1.49,1.49,0,0,1,2.09-.18A1.68,1.68,0,0,1,118.57,387.24Zm-1.47-.62a.46.46,0,0,0,.63,0,.53.53,0,0,0,0-.78c-.23-.25-.51-.17-.77,0S116.8,386.41,117.1,386.62Z" transform="translate(-30.53 -365.39)"/><path class="cls-4" d="M112.17,385.06a1.53,1.53,0,0,1,2.2.21,1.42,1.42,0,0,1-.17,2.16,1.56,1.56,0,0,1-1.81.31C111.5,386.75,111.44,385.58,112.17,385.06Zm.64,1.61a.53.53,0,0,0,.87-.14.52.52,0,0,0-.14-.75.58.58,0,0,0-.77.12A.59.59,0,0,0,112.81,386.67Z" transform="translate(-30.53 -365.39)"/><path class="cls-4" d="M113.24,381.38c.37-.18.29-.59.45-.88a1.46,1.46,0,0,1,1.76-.77,1.52,1.52,0,0,1,1.18,1.52,1.33,1.33,0,0,1-1,1.45,1.52,1.52,0,0,1-1.85-.53c-.2-.27-.21-.67-.57-.82Zm1.39.23a.53.53,0,0,0,.76,0,.48.48,0,0,0,.09-.74.51.51,0,0,0-.69-.1C114.51,381.09,114.43,381.36,114.63,381.61Z" transform="translate(-30.53 -365.39)"/><path class="cls-4" d="M112.5,392.35a1.49,1.49,0,0,1-2.28,0,1.4,1.4,0,0,1,.06-2.14,1.46,1.46,0,0,1,2.16,0A1.53,1.53,0,0,1,112.5,392.35Zm-1.55-.68a.53.53,0,0,0,.86-.06.54.54,0,0,0-.1-.76.65.65,0,0,0-.76,0A.61.61,0,0,0,111,391.67Z" transform="translate(-30.53 -365.39)"/><path class="cls-4" d="M112,375.15a1.47,1.47,0,0,1,2.18.1,1.51,1.51,0,0,1,0,2.18,1.57,1.57,0,0,1-2.15-2.28Zm.66,1.57a.53.53,0,0,0,.76,0,.52.52,0,0,0,0-.86.51.51,0,0,0-.7.07A.57.57,0,0,0,112.65,376.72Z" transform="translate(-30.53 -365.39)"/><path class="cls-5" d="M111.53,380.85c-.27-.1-.55-.18-.78.1a.54.54,0,0,0,.08.78.56.56,0,0,0,.7-.88Z" transform="translate(-30.53 -365.39)"/><path class="cls-5" d="M108.64,386a.47.47,0,0,0,.09.72.48.48,0,0,0,.73-.08.52.52,0,0,0-.82-.64Z" transform="translate(-30.53 -365.39)"/><path class="cls-5" d="M106.72,391.63a.48.48,0,0,0,.77.12.46.46,0,0,0,.07-.72.49.49,0,0,0-.74-.09A.5.5,0,0,0,106.72,391.63Z" transform="translate(-30.53 -365.39)"/><path class="cls-5" d="M115.74,390.78a.5.5,0,0,0-.71.11.47.47,0,0,0,.11.73c.24.18.53.24.73-.05A.57.57,0,0,0,115.74,390.78Z" transform="translate(-30.53 -365.39)"/><path class="cls-5" d="M117,385.86c-.13.28-.17.55.13.76a.46.46,0,0,0,.63,0,.53.53,0,0,0,0-.78C117.51,385.59,117.23,385.67,117,385.86Z" transform="translate(-30.53 -365.39)"/><path class="cls-5" d="M112.77,385.9a.59.59,0,0,0,0,.77.53.53,0,0,0,.87-.14.52.52,0,0,0-.14-.75A.58.58,0,0,0,112.77,385.9Z" transform="translate(-30.53 -365.39)"/><path class="cls-5" d="M114.79,380.81c-.28.28-.36.55-.16.8a.53.53,0,0,0,.76,0,.48.48,0,0,0,.09-.74A.51.51,0,0,0,114.79,380.81Z" transform="translate(-30.53 -365.39)"/><path class="cls-5" d="M111,390.87a.61.61,0,0,0,0,.8.53.53,0,0,0,.86-.06.54.54,0,0,0-.1-.76A.65.65,0,0,0,111,390.87Z" transform="translate(-30.53 -365.39)"/><path class="cls-5" d="M112.7,375.91a.57.57,0,0,0,0,.81.53.53,0,0,0,.76,0,.52.52,0,0,0,0-.86A.51.51,0,0,0,112.7,375.91Z" transform="translate(-30.53 -365.39)"/><path class="cls-11" d="M101.52,397.78a72.4,72.4,0,0,1,5.42,7.84A4,4,0,0,1,105.8,407l-13.89,13.7c-1.31,1.29-2.58,2.63-4,3.82a13.36,13.36,0,0,1-17.81-19.88c5.7-5.72,11.47-11.37,17.21-17,.27-.27.57-.49.86-.74A49.39,49.39,0,0,1,101.52,397.78Z" transform="translate(-30.53 -365.39)"/><path class="cls-12" d="M88.35,386.56c5.89-5.83,11.71-11.72,17.68-17.47a12.44,12.44,0,0,1,11.09-3.35,12.76,12.76,0,0,1,10.58,8.95c1.72,5.17.48,9.81-3.26,13.76-1.35,1.41-2.76,2.76-4.15,4.12l-13.35,13.05a72.4,72.4,0,0,0-5.42-7.84,49.39,49.39,0,0,0-13.34-10.95A1.78,1.78,0,0,1,88.35,386.56Zm27.52-9.64a1.47,1.47,0,0,0-1.31-1.83,1.44,1.44,0,0,0-1.52,1.36c-.11.92.62,1.54,1.61,1.55.38,0,.73-.59,1.11-.05.13.34-.13.61-.18.91a1.4,1.4,0,0,0,.83,1.58,1.22,1.22,0,0,0,1.59-.28,1.41,1.41,0,0,0,.26-1.76,1.37,1.37,0,0,0-1.64-.69c-.3.08-.53.4-.89.27C115.22,377.56,115.82,377.27,115.87,376.92Zm-9.51-5.14c-.39.36-1,.76-.44,1.33s1,0,1.38-.31a11.76,11.76,0,0,1,12.54-2.27c.51.18,1.13.48,1.36-.26s-.44-.85-.94-1.06a15.79,15.79,0,0,0-4.79-.95A13.32,13.32,0,0,0,106.36,371.78Zm18.37,1.83c-.21-.49-.38-1.14-1.11-.83s-.36.8-.19,1.26a12,12,0,0,1-1.87,12.17,1,1,0,0,0-.11.3c-.16.52-1.11,1-.51,1.48.77.63,1.27-.34,1.64-.82a13.09,13.09,0,0,0,3.07-8.34A13.5,13.5,0,0,0,124.73,373.61Zm-11.59,13.33a1.39,1.39,0,0,0-1.44,1.54,1.35,1.35,0,0,0,1.5,1.32,1.51,1.51,0,0,0,1.4-1.57A1.39,1.39,0,0,0,113.14,386.94Zm-4.86-8.68a1.46,1.46,0,0,0,1.48,1.56,1.38,1.38,0,0,0,1.42-1.45,1.41,1.41,0,0,0-1.37-1.49A1.43,1.43,0,0,0,108.28,378.26Zm-3,.6a1.4,1.4,0,0,0-1.51,1.36,1.44,1.44,0,0,0,1.48,1.54,1.46,1.46,0,0,0,1.42-1.63A1.34,1.34,0,0,0,105.23,378.86Zm5.3,8.38a1.52,1.52,0,0,0,1.5-1.57,1.39,1.39,0,0,0-1.53-1.33,1.33,1.33,0,0,0-1.39,1.42A1.41,1.41,0,0,0,110.53,387.24Zm4.65-4.81a1.32,1.32,0,0,0-1.46,1.36,1.45,1.45,0,0,0,1.51,1.51,1.57,1.57,0,0,0,1.41-1.59A1.38,1.38,0,0,0,115.18,382.43Zm-2.87.07a1.32,1.32,0,0,0,1.55-1.27,1.42,1.42,0,0,0-1.27-1.61c-.81-.15-1.57.64-1.66,1.87A1.47,1.47,0,0,0,112.31,382.5Zm-4.37-.86a1.3,1.3,0,0,0-1.46,1.34,1.37,1.37,0,0,0,1.44,1.53,1.4,1.4,0,0,0,1.42-1.43A1.36,1.36,0,0,0,107.94,381.64Zm11-5.59a1.41,1.41,0,0,0,1.49-1.38,1.38,1.38,0,0,0-1.34-1.53,1.45,1.45,0,0,0-1.52,1.42A1.47,1.47,0,0,0,119,376.05Z" transform="translate(-30.53 -365.39)"/><path class="cls-4" d="M115.47,368.26a13.32,13.32,0,0,0-9.11,3.52c-.39.36-1,.76-.44,1.33s1,0,1.38-.31a11.76,11.76,0,0,1,12.54-2.27c.51.18,1.13.48,1.36-.26s-.44-.85-.94-1.06A15.79,15.79,0,0,0,115.47,368.26Z" transform="translate(-30.53 -365.39)"/><path class="cls-4" d="M125.65,378.83a13.5,13.5,0,0,0-.92-5.22c-.21-.49-.38-1.14-1.11-.83s-.36.8-.19,1.26a12,12,0,0,1-1.87,12.17,1,1,0,0,0-.11.3c-.16.52-1.11,1-.51,1.48.77.63,1.27-.34,1.64-.82A13.09,13.09,0,0,0,125.65,378.83Z" transform="translate(-30.53 -365.39)"/><path class="cls-4" d="M114.6,388.23a1.46,1.46,0,0,0-2.9.25,1.35,1.35,0,0,0,1.5,1.32A1.51,1.51,0,0,0,114.6,388.23Z" transform="translate(-30.53 -365.39)"/><path class="cls-4" d="M115.76,378c-.38-.54-.73.05-1.11.05-1,0-1.72-.63-1.61-1.55a1.44,1.44,0,0,1,1.52-1.36,1.47,1.47,0,0,1,1.31,1.83c-.05.35-.65.64-.14,1.06ZM114.42,376a.5.5,0,1,0,.09,1,.48.48,0,0,0,.48-.55C114.89,376.25,114.76,376,114.42,376Z" transform="translate(-30.53 -365.39)"/><path class="cls-4" d="M111.18,378.37a1.38,1.38,0,0,1-1.42,1.45,1.46,1.46,0,0,1-1.48-1.56,1.43,1.43,0,0,1,1.53-1.38A1.41,1.41,0,0,1,111.18,378.37Zm-1.92,0a.44.44,0,0,0,.52.43c.32,0,.44-.23.43-.52s-.23-.44-.53-.43A.42.42,0,0,0,109.26,378.4Z" transform="translate(-30.53 -365.39)"/><path class="cls-4" d="M105.2,381.76a1.44,1.44,0,0,1-1.48-1.54,1.4,1.4,0,0,1,1.51-1.36,1.34,1.34,0,0,1,1.39,1.27A1.46,1.46,0,0,1,105.2,381.76Zm-.09-1a.42.42,0,0,0,.53-.42c0-.28-.09-.52-.41-.55a.47.47,0,0,0-.53.38A.44.44,0,0,0,105.11,380.78Z" transform="translate(-30.53 -365.39)"/><path class="cls-4" d="M110.5,384.34a1.39,1.39,0,0,1,1.53,1.33,1.52,1.52,0,0,1-1.5,1.57,1.41,1.41,0,0,1-1.42-1.48A1.33,1.33,0,0,1,110.5,384.34Zm0,.94a.43.43,0,0,0-.42.54c0,.27.18.51.51.45a.52.52,0,0,0,.44-.59A.45.45,0,0,0,110.52,385.28Z" transform="translate(-30.53 -365.39)"/><path class="cls-4" d="M115.23,385.3a1.45,1.45,0,0,1-1.51-1.51,1.32,1.32,0,0,1,1.46-1.36,1.38,1.38,0,0,1,1.46,1.28A1.57,1.57,0,0,1,115.23,385.3Zm-.53-1.38c0,.24.18.42.41.42a.49.49,0,0,0,.53-.49c0-.32-.22-.45-.51-.5S114.65,383.59,114.7,383.92Z" transform="translate(-30.53 -365.39)"/><path class="cls-4" d="M112.59,379.62a1.42,1.42,0,0,1,1.27,1.61,1.32,1.32,0,0,1-1.55,1.27,1.47,1.47,0,0,1-1.38-1C111,380.26,111.78,379.47,112.59,379.62Zm-.67,1.47a.49.49,0,0,0,.65.48A.47.47,0,0,0,113,381a.53.53,0,0,0-.57-.44A.56.56,0,0,0,111.92,381.09Z" transform="translate(-30.53 -365.39)"/><path class="cls-4" d="M115.73,378c.36.13.59-.19.89-.27a1.37,1.37,0,0,1,1.64.69,1.41,1.41,0,0,1-.26,1.76,1.22,1.22,0,0,1-1.59.28,1.4,1.4,0,0,1-.83-1.58c0-.3.31-.57.18-.91Zm.75,1.08c0,.3.17.47.45.53a.45.45,0,0,0,.55-.41.45.45,0,0,0-.37-.53C116.74,378.63,116.51,378.76,116.48,379.06Z" transform="translate(-30.53 -365.39)"/><path class="cls-4" d="M107.92,384.51a1.37,1.37,0,0,1-1.44-1.53,1.3,1.3,0,0,1,1.46-1.34,1.36,1.36,0,0,1,1.4,1.44A1.4,1.4,0,0,1,107.92,384.51Zm-.54-1.47a.49.49,0,0,0,.6.54.5.5,0,0,0,.44-.56.61.61,0,0,0-.5-.49C107.61,382.6,107.38,382.76,107.38,383Z" transform="translate(-30.53 -365.39)"/><path class="cls-4" d="M119.1,373.14a1.38,1.38,0,0,1,1.34,1.53,1.41,1.41,0,0,1-1.49,1.38,1.47,1.47,0,0,1-1.37-1.49A1.45,1.45,0,0,1,119.1,373.14Zm-.63,1.45a.48.48,0,0,0,.5.49c.37,0,.61-.18.58-.55a.48.48,0,0,0-.51-.42C118.69,374.14,118.47,374.32,118.47,374.59Z" transform="translate(-30.53 -365.39)"/><path class="cls-8" d="M115,376.49c-.1-.24-.23-.48-.57-.45a.5.5,0,1,0,.09,1A.48.48,0,0,0,115,376.49Z" transform="translate(-30.53 -365.39)"/><path class="cls-8" d="M109.68,377.88a.42.42,0,0,0-.42.52.44.44,0,0,0,.52.43c.32,0,.44-.23.43-.52S110,377.87,109.68,377.88Z" transform="translate(-30.53 -365.39)"/><path class="cls-8" d="M104.7,380.19a.44.44,0,0,0,.41.59.42.42,0,0,0,.53-.42c0-.28-.09-.52-.41-.55A.47.47,0,0,0,104.7,380.19Z" transform="translate(-30.53 -365.39)"/><path class="cls-8" d="M111.05,385.68a.45.45,0,0,0-.53-.4.43.43,0,0,0-.42.54c0,.27.18.51.51.45A.52.52,0,0,0,111.05,385.68Z" transform="translate(-30.53 -365.39)"/><path class="cls-8" d="M115.13,383.35c-.27.09-.48.24-.43.57s.18.42.41.42a.49.49,0,0,0,.53-.49C115.65,383.53,115.42,383.4,115.13,383.35Z" transform="translate(-30.53 -365.39)"/><path class="cls-8" d="M113.2,387.87c-.27.09-.48.24-.43.58a.45.45,0,0,0,.41.42.49.49,0,0,0,.53-.49C113.73,388.06,113.49,387.92,113.2,387.87Z" transform="translate(-30.53 -365.39)"/><path class="cls-8" d="M112.41,380.56a.56.56,0,0,0-.49.53.49.49,0,0,0,.65.48A.47.47,0,0,0,113,381,.53.53,0,0,0,112.41,380.56Z" transform="translate(-30.53 -365.39)"/><path class="cls-8" d="M117.11,378.65c-.37,0-.6.11-.63.41s.17.47.45.53a.45.45,0,0,0,.55-.41A.45.45,0,0,0,117.11,378.65Z" transform="translate(-30.53 -365.39)"/><path class="cls-8" d="M107.92,382.53c-.31.07-.54.23-.54.51a.49.49,0,0,0,.6.54.5.5,0,0,0,.44-.56A.61.61,0,0,0,107.92,382.53Z" transform="translate(-30.53 -365.39)"/><path class="cls-8" d="M119,374.11c-.35,0-.57.21-.57.48a.48.48,0,0,0,.5.49c.37,0,.61-.18.58-.55A.48.48,0,0,0,119,374.11Z" transform="translate(-30.53 -365.39)"/><path class="cls-13" d="M38.48,443.39a11.92,11.92,0,0,1-4.89-5.48c-.32-.67-.31-1.37.42-1.72s1.25.17,1.55.83a8.67,8.67,0,0,0,7.87,5.49c.71,0,1.34.32,1.25,1.22s-.75.88-1.37.87A10.63,10.63,0,0,1,38.48,443.39Z" transform="translate(-30.53 -365.39)"/><path class="cls-13" d="M45.75,443.2a1.33,1.33,0,0,1,1.78-.47,1.22,1.22,0,0,1,.51,1.84,1.24,1.24,0,0,1-1.74.49C45.51,444.65,45.52,443.93,45.75,443.2Z" transform="translate(-30.53 -365.39)"/><path class="cls-13" d="M120.33,445.81a11.83,11.83,0,0,0,4.89-5.48c.32-.67.31-1.37-.42-1.72s-1.25.17-1.55.83a8.71,8.71,0,0,1-7.87,5.5c-.72,0-1.35.31-1.25,1.21s.75.88,1.37.87A10.53,10.53,0,0,0,120.33,445.81Z" transform="translate(-30.53 -365.39)"/><path class="cls-13" d="M113.06,445.62a1.33,1.33,0,0,0-1.78-.47,1.22,1.22,0,0,0-.51,1.84,1.24,1.24,0,0,0,1.74.49C113.3,447.07,113.29,446.35,113.06,445.62Z" transform="translate(-30.53 -365.39)"/></svg>