<svg id="Capa_1" data-name="Capa 1" xmlns="http://www.w3.org/2000/svg" viewBox="0 0 2204.8 1924.11"><defs><style>.cls-1{fill:#49a6ba;}.cls-2{fill:#007a94;}.cls-3{fill:#f7f4ef;}.cls-4{fill:#d27a2c;}.cls-5{fill:#8ab242;}.cls-6{fill:#57a480;}.cls-7{fill:#fff;}.cls-8{fill:#ab1822;}.cls-9{fill:#d17624;}.cls-10{fill:#eecf45;}.cls-11{fill:#e2ab54;}.cls-12{fill:#fdfbfc;}.cls-13{fill:#87868a;}</style></defs><title>m3</title><path class="cls-1" d="M961.4,1128.86c.37,6.1,1.14,12.2,1.05,18.29-1.93,130.75-3.3,261.5-6.12,392.23-2.85,132.4-114.51,229-243.78,212.33-99.36-12.82-178.07-96.51-184.39-197.69-1.85-29.7-.33-59.63.05-89.45q2-158,4.38-315.89c.14-9.54-1.46-19.38,2.89-28.53,50-10.07,99.79-21.19,151-24.47C780.26,1089.69,871.61,1102.16,961.4,1128.86Z" transform="translate(-160.89 -483.69)"/><path class="cls-2" d="M961.4,1128.86c-89.79-26.7-181.14-39.17-274.91-33.18-51.22,3.28-101,14.4-151,24.47Q536.92,969,538.4,817.86c.33-31.58.21-63.19,1.69-94.71,4.15-88,44-154.52,123.1-192.33,77.07-36.86,153-27.85,221.08,23.33,54.44,40.9,84.56,98.3,84.41,167.15-.29,134.16-3.77,268.32-6,402.48C962.67,1125.48,961.85,1127.17,961.4,1128.86ZM758,707.52c-5.56-2.72-4.39-8.94-6.81-13.31-5.84-10.56-15.29-14.42-26.11-11.5s-16.92,10.72-17.58,22.82c-.62,11.37,4.85,18.32,14.5,21.71,10.55,3.7,20.41,1.74,27.47-8,2.93-4,3.09-10,8.54-12.31,10.56-1.67,7.51,9.11,11.69,13.42,11.17,11.53,26.42,13.05,35.85,1.41,8.86-10.95,8.15-22.92-1.15-33-9.68-10.44-26.4-7.08-35.77,5.2C765.19,698.56,768.58,708.83,758,707.52ZM873.43,601.63c-18.52-17-39.34-34-64.2-45.28-8-3.62-17.22-9.22-22.75.85-6,10.95,4.45,14.91,12.18,18.76,70.74,35.21,109,92.14,112.94,172,.44,8.78-.06,19.8,11.77,19.67,12.41-.14,10.65-11.44,10.4-20C932.11,692,912.49,643.75,873.43,601.63ZM638,601.19c-37.65,34.88-54.91,80-62.55,129.43C574,740.27,568.35,757,584.23,759c12.27,1.49,7.23-14.89,11.41-22.57.83-1.51,2-3,2.22-4.65,10.5-75.67,51.88-127.43,120.23-158.31,7.23-3.27,16.21-6.33,12.46-16.42-4.46-12-13.92-6.72-21.85-3.65C681.55,563.91,658.83,581.23,638,601.19Zm13.82,234.44c-9.89,9.3-11.15,25.38-2.67,34,9.47,9.56,20.55,12.26,32,2.86,10.9-9,11.76-24.27,1.77-34.1S661.85,828.52,651.84,835.63Zm184.53-71.18c-10.78-8.42-22.28-9.39-32.42.66s-9.85,22.11-1,33c8.28,10.16,26.1,9.91,34.61-.3C846.67,786.84,846,775.57,836.37,764.45Zm-2.12,73.69c-11.68,11.47-12,25.26-3.11,34.83,9.37,10.07,26,10.63,34.3.18,8.53-10.79,9.2-23.38-1-32.88C854.69,831.23,842.72,830.51,834.25,838.14Zm-92.8,34.1c9.38-10.15,10.55-21.23,1-32.2s-21.26-10.91-32.39-3c-10.05,7.15-11,26.8-1.58,35.08C718.66,881,730.08,882.4,741.45,872.24Zm-60-111.08c-9.88,9.29-10.6,25.12-2.73,34.34,8.62,10.1,25.11,10.65,34.29.71,9.91-10.73,9.16-22.23-.43-32.35C702.82,753.52,691.45,754.27,681.48,761.16ZM770.56,803c13.32-14.89,14.13-32.56,3.32-40.36-11.27-8.14-22.9-7.35-32.71,3.25-9.08,9.82-8.16,24,2.44,32.36C752.75,805.52,762.82,808,770.56,803Zm-.7,36.37c-9.08,10.67-10,21.84-.84,32.69,9,10.63,24.37,10.38,33.8-.25,9.59-10.81,9.29-22.16-.79-32.14S780.67,830.4,769.86,839.39ZM777,647.52c9.22-9.92,9.07-25.35-.42-33.61-11-9.61-22.43-8.18-32.56,1.51-9.06,8.67-8.88,25.34.54,32.84C755.55,657,766.93,656.39,777,647.52Z" transform="translate(-160.89 -483.69)"/><path class="cls-3" d="M873.43,601.63c39.06,42.12,58.68,90.35,60.34,146,.25,8.55,2,19.85-10.4,20-11.83.13-11.33-10.89-11.77-19.67-4-79.86-42.2-136.79-112.94-172-7.73-3.85-18.2-7.81-12.18-18.76,5.53-10.07,14.78-4.47,22.75-.85C834.09,567.65,854.91,584.61,873.43,601.63Z" transform="translate(-160.89 -483.69)"/><path class="cls-3" d="M638,601.19c20.81-20,43.53-37.28,70.68-47.83,7.93-3.07,17.39-8.37,21.85,3.65,3.75,10.09-5.23,13.15-12.46,16.42-68.35,30.88-109.73,82.64-120.23,158.31-.23,1.62-1.39,3.14-2.22,4.65-4.18,7.68.86,24.06-11.41,22.57-15.88-1.92-10.25-18.69-8.76-28.34C583.11,681.24,600.37,636.07,638,601.19Z" transform="translate(-160.89 -483.69)"/><path class="cls-3" d="M651.84,835.63c10-7.11,21-7.23,31.09,2.72s9.13,25.14-1.77,34.1c-11.44,9.4-22.52,6.7-32-2.86C640.69,861,642,844.93,651.84,835.63Z" transform="translate(-160.89 -483.69)"/><path class="cls-3" d="M758,707.52c10.57,1.31,7.18-9,10.63-13.48,9.37-12.28,26.09-15.64,35.77-5.2,9.3,10,10,22,1.15,33-9.43,11.64-24.68,10.12-35.85-1.41-4.18-4.31-1.13-15.09-11.69-13.42Zm25.4-7.93c-4.21,3.72-4,7.91-1,11.63,3.1,3.88,7.74,4.63,11.48,1.46,3.57-3,4.19-7.58,1.07-11.58C791.63,696.86,787.35,698,783.41,699.59Z" transform="translate(-160.89 -483.69)"/><path class="cls-3" d="M836.37,764.45c9.64,11.12,10.3,22.39,1.19,33.33-8.51,10.21-26.33,10.46-34.61.3-8.85-10.86-9.11-22.93,1-33S825.59,756,836.37,764.45ZM826.3,777.16c-3.22-3.58-6.9-4.62-10.77-1.32-3.58,3.06-4.59,6.91-1.37,10.87,3.1,3.79,7,4.25,10.85,1.25S829.16,781.13,826.3,777.16Z" transform="translate(-160.89 -483.69)"/><path class="cls-3" d="M834.25,838.14c8.47-7.63,20.44-6.91,30.17,2.13,10.22,9.5,9.55,22.09,1,32.88-8.26,10.45-24.93,9.89-34.3-.18C822.23,863.4,822.57,849.61,834.25,838.14Zm20.63,23.18a7.57,7.57,0,0,0-1.47-10.4c-3.88-3.41-7.85-2-10.93,1.37-3.47,3.77-2.65,7.86,1,10.85S851.08,866.48,854.88,861.32Z" transform="translate(-160.89 -483.69)"/><path class="cls-3" d="M741.45,872.24c-11.37,10.16-22.79,8.8-33-.11-9.46-8.28-8.47-27.93,1.58-35.08,11.13-7.92,22.8-8,32.39,3S750.83,862.09,741.45,872.24Zm-20.6-23.68c-3.92,3.84-4.71,7.86-2,11.81,3,4.47,7.25,3.49,10.92.87,4.09-2.92,4.62-7.27,1.55-10.94C728.48,846.91,724.41,845.88,720.85,848.56Z" transform="translate(-160.89 -483.69)"/><path class="cls-3" d="M681.48,761.16c10-6.89,21.34-7.64,31.13,2.7C722.2,774,723,785.48,713,796.21c-9.18,9.94-25.67,9.39-34.29-.71C670.88,786.28,671.6,770.45,681.48,761.16Zm21,13.59c-3.77-2.83-7.94-4-11.43-.25-3.26,3.53-3.31,8.17.13,11.62,2.64,2.65,6.31,2.29,9.45.07C705,783,704.46,779,702.44,774.75Z" transform="translate(-160.89 -483.69)"/><path class="cls-3" d="M770.56,803c-7.74,5-17.81,2.5-26.95-4.75-10.6-8.41-11.52-22.54-2.44-32.36,9.81-10.6,21.44-11.39,32.71-3.25C784.69,770.46,783.88,788.13,770.56,803ZM765,775.37c-3.25-4.14-8-3.84-11.42-1.8-4,2.35-4.64,7.42-2.08,11.28,3.19,4.78,8.19,6.41,12.83,2.07C767.68,783.77,767.27,779.38,765,775.37Z" transform="translate(-160.89 -483.69)"/><path class="cls-3" d="M758,707c-5.45,2.28-5.61,8.28-8.54,12.31-7.06,9.7-16.92,11.66-27.47,8-9.65-3.39-15.12-10.34-14.5-21.71.66-12.1,6.88-19.94,17.58-22.82s20.27.94,26.11,11.5c2.42,4.37,1.25,10.59,6.81,13.31Zm-23.09-8a7.38,7.38,0,0,0-10.25,1.51c-2.82,3.51-2.84,8,1.38,11,3.75,2.71,8.09,3.19,11.16-.61S739.14,703.06,734.93,699Z" transform="translate(-160.89 -483.69)"/><path class="cls-3" d="M769.86,839.38c10.81-9,22-9.73,32.17.31s10.38,21.33.79,32.14c-9.43,10.63-24.85,10.88-33.8.25C759.88,861.23,760.78,850.06,769.86,839.38ZM792,849.94c-3.42-2.35-7.57-2.9-11.21-.35-4.14,2.9-3.75,8.18-1.61,11.41,3.23,4.85,8.81,4.91,12.91.89C795.3,858.73,794.68,854.27,792,849.94Z" transform="translate(-160.89 -483.69)"/><path class="cls-3" d="M777,647.52c-10.11,8.87-21.49,9.44-32.44.74-9.42-7.5-9.6-24.17-.54-32.84,10.13-9.69,21.51-11.12,32.56-1.51C786.11,622.17,786.26,637.6,777,647.52Zm-11-22.09c-2.64-2.78-6.92-3.94-10.5-1.09-4.66,3.71-4.23,8.72,0,12.85,3.47,3.43,8.12,3.42,11.25.36S769.68,630,766,625.43Z" transform="translate(-160.89 -483.69)"/><path class="cls-4" d="M783.41,699.59c3.94-1.58,8.22-2.73,11.53,1.51,3.12,4,2.5,8.57-1.07,11.58-3.74,3.17-8.38,2.42-11.48-1.46C779.41,707.5,779.2,703.31,783.41,699.59Z" transform="translate(-160.89 -483.69)"/><path class="cls-4" d="M826.31,777.14c2.85,4,2.64,7.77-1.3,10.82s-7.75,2.54-10.85-1.25c-3.22-4-2.21-7.81,1.37-10.87C819.4,772.54,823.08,773.58,826.31,777.14Z" transform="translate(-160.89 -483.69)"/><path class="cls-4" d="M854.88,861.32c-3.8,5.16-7.76,4.74-11.36,1.82s-4.51-7.08-1-10.85c3.08-3.33,7-4.78,10.93-1.37A7.57,7.57,0,0,1,854.88,861.32Z" transform="translate(-160.89 -483.69)"/><path class="cls-4" d="M720.85,848.56c3.56-2.68,7.63-1.65,10.45,1.74,3.07,3.67,2.54,8-1.55,10.94-3.67,2.62-7.89,3.6-10.92-.87C716.14,856.42,716.93,852.4,720.85,848.56Z" transform="translate(-160.89 -483.69)"/><path class="cls-4" d="M702.43,774.74c2,4.25,2.61,8.3-1.84,11.45-3.14,2.22-6.81,2.58-9.45-.07-3.44-3.45-3.39-8.09-.13-11.62C694.5,770.72,698.67,771.92,702.43,774.74Z" transform="translate(-160.89 -483.69)"/><path class="cls-4" d="M765,775.37c2.28,4,2.69,8.4-.69,11.55-4.64,4.34-9.64,2.71-12.83-2.07-2.56-3.86-1.89-8.93,2.08-11.28C757,771.53,761.72,771.23,765,775.37Z" transform="translate(-160.89 -483.69)"/><path class="cls-4" d="M734.93,699c4.21,4.07,5.32,8.19,2.29,12s-7.41,3.32-11.16.61c-4.22-3.06-4.2-7.54-1.38-11A7.38,7.38,0,0,1,734.93,699Z" transform="translate(-160.89 -483.69)"/><path class="cls-4" d="M792,849.94c2.69,4.33,3.31,8.79.09,11.95-4.1,4-9.68,4-12.91-.89-2.14-3.23-2.53-8.51,1.61-11.41C784.42,847,788.57,847.59,792,849.94Z" transform="translate(-160.89 -483.69)"/><path class="cls-4" d="M766,625.43c3.65,4.52,3.87,9,.7,12.12s-7.78,3.07-11.25-.36c-4.18-4.13-4.61-9.14,0-12.85C759.11,621.49,763.39,622.65,766,625.43Z" transform="translate(-160.89 -483.69)"/><path class="cls-5" d="M1133.83,805.85c4.31,3.69,8.88,7.11,12.89,11.11,86.08,85.84,172.53,171.31,258,257.74,86.59,87.54,78.93,226-15.79,303.16-72.8,59.32-179.57,58.78-251.24-2.33-21-17.94-40-38.33-59.71-57.87q-104.19-103.47-208.15-207.2c-6.28-6.27-13.89-11.54-17.19-20.41,25.62-40.56,50.36-81.61,81.29-118.58C990.56,903.78,1058,849.68,1133.83,805.85Z" transform="translate(-160.89 -483.69)"/><path class="cls-6" d="M1133.83,805.85C1058,849.68,990.56,903.78,933.94,971.47c-30.93,37-55.67,78-81.29,118.58q-100-98.71-200-197.43c-20.88-20.63-42.07-41-62.16-62.38-56.07-59.69-74.74-129.85-48.87-208.11,25.21-76.27,80.29-122.08,158.51-135.35,62.51-10.6,120.32,6,166.21,50.62,89.41,86.94,176.77,176,264.94,264.28C1132.39,802.8,1133,804.45,1133.83,805.85Zm-412.91-134c-5.4,2-8.81-2.79-13.28-4-10.83-2.85-19.52,1.09-24.57,10.33s-3.77,18.45,3.88,26.71c7.2,7.78,15.37,8.56,23.87,4.18,9.29-4.78,14.36-12.77,12.44-23.84-.79-4.6-4.7-8.59-2.69-13.77,5.7-8.27,10.94.78,16.52.72,14.92-.15,25.79-9.54,24.11-23.48-1.58-13.11-10-20.36-22.75-20.53-13.24-.16-21.8,13.39-19.66,27.7C719.58,661.17,728.63,665.5,720.92,671.85Zm3.91-147c-23.35,1.6-48.14,4.8-71.75,14.42-7.58,3.08-17.29,5.75-14.15,16,3.42,11.18,12.84,6.61,20.41,3.84,69.25-25.38,132-14.58,187.89,34.34,6.15,5.38,13.19,12.85,20.75,4.71,7.93-8.54-.76-14.65-6.63-20C823.1,543.33,778.2,525.51,724.83,524.85ZM572.33,684.77c-1,48.16,18,89.11,46,126.23,5.49,7.25,13,21.92,24.59,12.36,8.93-7.38-5.27-14.55-7.69-22.35-.48-1.54-.74-3.32-1.68-4.52-43.75-56.07-51.57-117.69-28-184.17,2.49-7,6.25-15.12-2.91-19.09-10.92-4.73-13.49,5.13-16.56,12.51C575.57,631,572.46,657.7,572.33,684.77ZM737.85,826.93c-.18,12.73,9.75,24,21,23.76,12.5-.25,21.47-6.05,22.59-19.91,1.06-13.21-8.61-23.7-21.63-23.26C746.59,808,739.57,815.51,737.85,826.93Zm71.76-171.6c-12.6,1.9-20.68,9.09-20.52,22.49s8.4,21,21.38,22c12.14.93,23.49-11.35,22.17-23.75C831.22,662.8,823.27,656,809.61,655.33Zm47.85,49.09c.1,15.36,9.1,24.51,21.24,24.63,12.79.14,23.94-10.84,22.3-23.22-1.69-12.78-9.66-21.38-22.61-20.57C866.05,686,857.84,693.72,857.46,704.42Zm-37.23,85.2c-.71-13-7.35-20.91-20.85-21.51s-21,7.41-22.94,20.11c-1.72,11.46,10.76,24.83,22.42,23.75C811.38,810.81,819.67,803.92,820.23,789.62Zm-113-31c-.18,12.74,9.93,23.46,21.18,24.07,12.31.66,23.34-10.21,22.64-22.87-.76-13.69-8.93-20.61-21.89-20.63C716,739.15,709.12,747.37,707.27,758.6Zm85.55-33.55c-1.34-18.69-12.61-30.66-24.8-28.35-12.73,2.41-19.72,10.83-19,24.36.69,12.53,10.71,21,23.19,19.26C783,738.78,791.14,733.54,792.82,725.05Zm23.84,24c1.26,13.08,8.14,20.91,21.29,21.71,12.89.78,22.69-9.87,21.69-23.16-1-13.52-8.8-20.66-22-20.24S817.65,735.88,816.66,749ZM693.16,620.11c-.67-12.69-11.07-22.56-22.72-21.44-13.57,1.3-20,10-20,23.13-.07,11.77,11.18,22.43,22.28,20.86C685.57,640.84,692.54,632.73,693.16,620.11Z" transform="translate(-160.89 -483.69)"/><path class="cls-3" d="M724.83,524.85c53.37.66,98.27,18.48,136.52,53.34,5.87,5.35,14.56,11.46,6.63,20-7.56,8.14-14.6.67-20.75-4.71-55.91-48.92-118.64-59.72-187.89-34.34-7.57,2.77-17,7.34-20.41-3.84-3.14-10.28,6.57-12.95,14.15-16C676.69,529.65,701.48,526.45,724.83,524.85Z" transform="translate(-160.89 -483.69)"/><path class="cls-3" d="M572.33,684.77c.13-27.07,3.24-53.74,13.76-79,3.07-7.38,5.64-17.24,16.56-12.51,9.16,4,5.4,12.06,2.91,19.09-23.57,66.48-15.75,128.1,28,184.17.94,1.2,1.2,3,1.68,4.52,2.42,7.8,16.62,15,7.69,22.35-11.55,9.56-19.1-5.11-24.59-12.36C590.3,773.88,571.29,732.93,572.33,684.77Z" transform="translate(-160.89 -483.69)"/><path class="cls-3" d="M737.85,826.93c1.72-11.42,8.74-19,21.92-19.41,13-.44,22.69,10.05,21.63,23.26-1.12,13.86-10.09,19.66-22.59,19.91C747.6,850.92,737.67,839.66,737.85,826.93Z" transform="translate(-160.89 -483.69)"/><path class="cls-3" d="M720.92,671.85c7.71-6.35-1.34-10.68-2.13-16-2.14-14.31,6.42-27.86,19.66-27.7,12.71.17,21.17,7.42,22.75,20.53,1.68,13.94-9.19,23.33-24.11,23.48-5.58.06-10.82-9-16.52-.72Zm11.13-22.41c-.24,5.27,2.69,7.84,7.11,8.22,4.59.39,8.09-2.28,8.4-6.87.29-4.38-2.35-7.76-7-8.22C735.54,642.08,733.54,645.74,732.05,649.44Z" transform="translate(-160.89 -483.69)"/><path class="cls-3" d="M809.61,655.33c13.66.63,21.61,7.47,23,20.74,1.32,12.4-10,24.68-22.17,23.75-13-1-21.21-8.63-21.38-22S797,657.23,809.61,655.33Zm2,15.07c-4.48-.12-7.55,1.71-7.85,6.48-.27,4.42,1.65,7.59,6.38,8,4.53.35,7.34-2,7.85-6.57S816.09,671,811.59,670.4Z" transform="translate(-160.89 -483.69)"/><path class="cls-3" d="M857.46,704.42c.38-10.7,8.59-18.38,20.93-19.16,13-.81,20.92,7.79,22.61,20.57,1.64,12.38-9.51,23.36-22.3,23.22C866.56,728.93,857.56,719.78,857.46,704.42Zm28.81,1c-.79-3.41-3.35-6.15-7.89-5.73-4.79.43-6.38,4.07-6.15,8.33.27,4.8,3.53,6.88,7.92,6.3S887.26,711.28,886.27,705.37Z" transform="translate(-160.89 -483.69)"/><path class="cls-3" d="M820.23,789.62c-.56,14.3-8.85,21.19-21.37,22.35-11.66,1.08-24.14-12.29-22.42-23.75,1.91-12.7,9.37-20.72,22.94-20.11S819.52,776.67,820.23,789.62Zm-29.13-1.3c0,5.15,2.21,8.29,6.58,9,4.94.82,7-2.68,7.64-6.87.7-4.67-1.87-7.85-6.3-8.14C794.93,782.07,791.61,784.16,791.1,788.32Z" transform="translate(-160.89 -483.69)"/><path class="cls-3" d="M707.27,758.6c1.85-11.23,8.7-19.45,21.93-19.43,13,0,21.13,6.94,21.89,20.63.7,12.66-10.33,23.53-22.64,22.87C717.2,782.06,707.09,771.34,707.27,758.6Zm22.63-5.47c-4.32.74-7.82,2.8-7.56,7.62.25,4.49,3.32,7.53,7.85,7.42,3.48-.08,5.61-2.81,6.15-6.39C737.12,756.72,734,754.49,729.9,753.13Z" transform="translate(-160.89 -483.69)"/><path class="cls-3" d="M792.82,725.05c-1.68,8.49-9.84,13.73-20.59,15.27-12.48,1.78-22.5-6.73-23.19-19.26-.74-13.53,6.25-21.95,19-24.36C780.21,694.39,791.48,706.36,792.82,725.05ZM770.75,711c-4.87-.46-7.72,2.94-8.59,6.61-1,4.22,2,7.95,6.19,8.7,5.25.93,9.57-1.42,9.68-7.39C778.1,714.57,774.91,712,770.75,711Z" transform="translate(-160.89 -483.69)"/><path class="cls-3" d="M720.57,671.49c-2,5.18,1.9,9.17,2.69,13.77,1.92,11.07-3.15,19.06-12.44,23.84-8.5,4.38-16.67,3.6-23.87-4.18-7.65-8.26-8.87-17.56-3.88-26.71s13.74-13.18,24.57-10.33c4.47,1.18,7.88,6,13.28,4ZM700.31,682a7,7,0,0,0-5.62,8c.53,4.18,3.5,7.09,8.27,6.2,4.23-.8,7.36-3.45,6.81-8S705.75,681.81,700.31,682Z" transform="translate(-160.89 -483.69)"/><path class="cls-3" d="M816.66,749c1-13.16,7.73-21.28,21-21.69s21,6.72,22,20.24c1,13.29-8.8,23.94-21.69,23.16C824.8,770,817.92,762.12,816.66,749ZM838,740.8c-3.79.81-6.83,3.28-7.48,7.4-.74,4.7,3,7.85,6.57,8.47,5.33,1,9-2.81,8.95-8.2C846,744.23,842.65,741.77,838,740.8Z" transform="translate(-160.89 -483.69)"/><path class="cls-3" d="M693.16,620.11c-.62,12.62-7.59,20.73-20.48,22.55-11.1,1.57-22.35-9.09-22.28-20.86.07-13.16,6.47-21.83,20-23.13C682.09,597.55,692.49,607.42,693.16,620.11Zm-21.88-6.79c-3.56,0-7.1,2.16-7.51,6.45-.54,5.56,3.08,8.51,8.55,8.34,4.53-.15,7.53-3.32,7.51-7.43S676.66,613.76,671.28,613.32Z" transform="translate(-160.89 -483.69)"/><path class="cls-7" d="M732.05,649.44c1.49-3.7,3.49-7.36,8.46-6.87,4.7.46,7.34,3.84,7,8.22-.31,4.59-3.81,7.26-8.4,6.87C734.74,657.28,731.81,654.71,732.05,649.44Z" transform="translate(-160.89 -483.69)"/><path class="cls-7" d="M811.58,670.39c4.51.64,6.9,3.22,6.39,7.88s-3.32,6.92-7.85,6.57c-4.73-.37-6.65-3.54-6.38-8C804,672.11,807.11,670.28,811.58,670.39Z" transform="translate(-160.89 -483.69)"/><path class="cls-7" d="M886.27,705.37c1,5.91-1.85,8.34-6.12,8.9s-7.65-1.5-7.92-6.3c-.23-4.26,1.36-7.9,6.15-8.33C882.92,699.22,885.48,702,886.27,705.37Z" transform="translate(-160.89 -483.69)"/><path class="cls-7" d="M791.1,788.32c.51-4.16,3.83-6.25,7.92-6,4.43.29,7,3.47,6.3,8.14-.62,4.19-2.7,7.69-7.64,6.87C793.31,796.61,791.14,793.47,791.1,788.32Z" transform="translate(-160.89 -483.69)"/><path class="cls-7" d="M729.89,753.13c4.15,1.36,7.23,3.59,6.45,8.65-.54,3.58-2.67,6.31-6.15,6.39-4.53.11-7.6-2.93-7.85-7.42C722.08,755.93,725.58,753.87,729.89,753.13Z" transform="translate(-160.89 -483.69)"/><path class="cls-7" d="M770.76,711c4.15,1,7.34,3.6,7.27,7.93-.11,6-4.43,8.32-9.68,7.39-4.24-.75-7.19-4.48-6.19-8.7C763,713.92,765.88,710.52,770.76,711Z" transform="translate(-160.89 -483.69)"/><path class="cls-7" d="M700.31,682c5.44-.23,8.91,1.67,9.46,6.17s-2.58,7.19-6.81,8c-4.77.89-7.74-2-8.27-6.2A7,7,0,0,1,700.31,682Z" transform="translate(-160.89 -483.69)"/><path class="cls-7" d="M838,740.8c4.63,1,8,3.43,8,7.67,0,5.39-3.62,9.15-8.95,8.2-3.54-.62-7.31-3.77-6.57-8.47C831.19,744.08,834.23,741.61,838,740.8Z" transform="translate(-160.89 -483.69)"/><path class="cls-7" d="M671.28,613.32c5.38.44,8.53,3.21,8.55,7.36s-3,7.28-7.51,7.43c-5.47.17-9.09-2.78-8.55-8.34C664.18,615.48,667.72,613.32,671.28,613.32Z" transform="translate(-160.89 -483.69)"/><path class="cls-8" d="M1838.85,1116.78c51.62,3.3,101.77,14.52,152.19,24.66,4.39,9.23,2.77,19.14,2.92,28.76q2.37,159.18,4.41,318.37c.38,30,1.92,60.22.05,90.15-6.37,102-85.69,186.31-185.83,199.24-130.29,16.81-242.82-80.56-245.7-214-2.84-131.75-4.22-263.53-6.16-395.3-.09-6.14.68-12.29,1.06-18.44C1652.27,1123.31,1744.34,1110.74,1838.85,1116.78Z" transform="translate(-160.89 -483.69)"/><path class="cls-9" d="M1560.48,1145.1c-2.24-135.21-5.74-270.42-6-405.64-.16-69.38,30.2-127.24,85.07-168.45,68.65-51.59,145.14-60.67,222.81-23.52,79.7,38.11,119.88,105.18,124.06,193.84,1.5,31.77,1.38,63.63,1.71,95.45q1.58,152.33,2.94,304.66c-50.42-10.14-100.57-21.36-152.19-24.66-94.51-6-186.58,6.53-277.06,33.44C1561.33,1148.51,1560.5,1146.81,1560.48,1145.1ZM1756.06,712c-9.45-12.38-26.3-15.77-36-5.24-9.38,10.12-10.09,22.18-1.16,33.22,9.5,11.73,24.87,10.2,36.13-1.42,4.21-4.34,1.14-15.22,11.78-13.53,5.49,2.3,5.65,8.34,8.61,12.41,7.11,9.78,17.05,11.75,27.68,8,9.73-3.42,15.24-10.42,14.61-21.88-.66-12.19-6.93-20.1-17.71-23s-20.44.95-26.32,11.59c-2.43,4.4-1.26,10.68-6.86,13.41C1756.11,726.89,1759.54,716.54,1756.06,712Zm-166.43,54c-.26,8.61-2,20,10.48,20.15,11.93.13,11.42-11,11.86-19.83,4-80.48,42.53-137.86,113.83-173.35,7.79-3.88,18.35-7.87,12.28-18.9-5.58-10.15-14.9-4.51-22.94-.86-25.05,11.39-46,28.48-64.7,45.64C1611.08,661.31,1591.3,709.91,1589.63,766Zm226.83-195.8c-8-3.1-17.52-8.44-22,3.68-3.77,10.16,5.27,13.25,12.56,16.54,68.89,31.12,110.59,83.29,121.18,159.56.22,1.63,1.4,3.16,2.23,4.68,4.22,7.74-.86,24.25,11.5,22.75,16-1.94,10.33-18.84,8.83-28.56-7.7-49.77-25.09-95.29-63-130.44C1866.72,598.3,1843.83,580.83,1816.46,570.21Zm26,287.22c-10.06,9.91-9.2,25.34,1.79,34.37,11.53,9.47,22.7,6.76,32.24-2.89,8.54-8.64,7.28-24.84-2.69-34.22C1863.68,847.53,1852.62,847.4,1842.43,857.43ZM1686.6,816.55c8.57,10.29,26.53,10.54,34.87.3,8.93-11,9.19-23.12-1-33.23s-21.81-9.16-32.68-.67C1678.07,794.16,1677.41,805.52,1686.6,816.55Zm-27.08,42.82c-10.3,9.57-9.62,22.26-1,33.14,8.32,10.53,25.13,10,34.57-.19,9-9.64,8.63-23.54-3.14-35.1C1681.39,849.54,1669.33,850.25,1659.52,859.37Zm157.16,32.11c9.53-8.35,8.54-28.15-1.59-35.36-11.23-8-23-8.11-32.65,3s-8.44,22.23,1,32.46C1794.92,901.83,1806.42,900.46,1816.68,891.48Zm-4.15-109.12c-9.67,10.2-10.42,21.79-.43,32.6,9.25,10,25.86,9.47,34.55-.71,7.93-9.3,7.21-25.25-2.75-34.62C1833.85,772.69,1822.4,771.94,1812.53,782.36ZM1781.28,817c10.69-8.48,11.62-22.72,2.46-32.61-9.89-10.69-21.6-11.48-33-3.28-10.89,7.86-10.07,25.66,3.35,40.67C1761.92,826.84,1772.07,824.34,1781.28,817Zm-58.88,41.74c-10.16,10.06-10.46,21.5-.79,32.4,9.51,10.71,25,11,34.06.25,9.21-10.94,8.31-22.2-.84-32.95C1743.93,849.42,1732.63,848.66,1722.4,858.78Zm57.88-192.93c9.5-7.55,9.68-24.36.55-33.09-10.21-9.77-21.68-11.22-32.82-1.52-9.57,8.32-9.71,23.87-.42,33.87C1757.78,674,1769.25,674.62,1780.28,665.85Z" transform="translate(-160.89 -483.69)"/><path class="cls-3" d="M1650.44,618.86c-39.36,42.45-59.14,91-60.81,147.15-.26,8.61-2,20,10.48,20.15,11.93.13,11.42-11,11.86-19.83,4-80.48,42.53-137.86,113.83-173.35,7.79-3.88,18.35-7.87,12.28-18.9-5.58-10.15-14.9-4.51-22.94-.86C1690.09,584.61,1669.11,601.7,1650.44,618.86Z" transform="translate(-160.89 -483.69)"/><path class="cls-3" d="M1887.7,618.42c-21-20.12-43.87-37.59-71.24-48.21-8-3.1-17.52-8.44-22,3.68-3.77,10.16,5.27,13.25,12.56,16.54,68.89,31.12,110.59,83.29,121.18,159.56.22,1.63,1.4,3.16,2.23,4.68,4.22,7.74-.86,24.25,11.5,22.75,16-1.94,10.33-18.84,8.83-28.56C1943,699.09,1925.65,653.57,1887.7,618.42Z" transform="translate(-160.89 -483.69)"/><path class="cls-3" d="M1873.77,854.69c-10.09-7.16-21.15-7.29-31.34,2.74s-9.2,25.34,1.79,34.37c11.53,9.47,22.7,6.76,32.24-2.89C1885,880.27,1883.74,864.07,1873.77,854.69Z" transform="translate(-160.89 -483.69)"/><path class="cls-3" d="M1766.76,725c-10.64-1.69-7.57,9.19-11.78,13.53-11.26,11.62-26.63,13.15-36.13,1.42-8.93-11-8.22-23.1,1.16-33.22,9.75-10.53,26.6-7.14,36,5.24,3.48,4.55,0,14.9,10.71,13.58Zm-37.21-5.92c-3.15,4-2.52,8.64,1.08,11.68,3.77,3.19,8.44,2.43,11.57-1.47s3.21-8-1-11.73C1737.2,716,1732.89,714.83,1729.55,719.1Z" transform="translate(-160.89 -483.69)"/><path class="cls-3" d="M1720.47,783.62c10.19,10.11,9.93,22.28,1,33.23-8.34,10.24-26.3,10-34.87-.3-9.19-11-8.53-22.39,1.19-33.6C1698.66,774.46,1710.25,773.48,1720.47,783.62Zm-21.22,23c3.9,3,7.81,2.56,10.93-1.26,3.25-4,2.23-7.87-1.39-11-3.89-3.32-7.6-2.28-10.85,1.33C1695.06,799.77,1695.27,803.57,1699.25,806.65Z" transform="translate(-160.89 -483.69)"/><path class="cls-3" d="M1693.07,892.32c-9.44,10.15-26.25,10.72-34.57.19-8.6-10.88-9.28-23.57,1-33.14,9.81-9.12,21.87-9.83,30.41-2.15C1701.7,868.78,1702,882.68,1693.07,892.32Zm-12.48-9.9c3.72-3,4.55-7.14,1-10.93-3.1-3.37-7.1-4.83-11-1.39a7.63,7.63,0,0,0-1.48,10.48C1673,885.78,1677,885.36,1680.59,882.42Z" transform="translate(-160.89 -483.69)"/><path class="cls-3" d="M1782.44,859.13c9.67-11.12,21.42-11,32.65-3,10.13,7.21,11.12,27,1.59,35.36-10.26,9-21.76,10.35-33.22.11C1774,881.36,1772.82,870.19,1782.44,859.13Zm11.25,10.34c-3.09,3.71-2.56,8.09,1.57,11,3.69,2.64,7.94,3.62,11-.88,2.71-4,1.91-8-2-11.91C1800.63,865,1796.53,866.06,1793.69,869.47Z" transform="translate(-160.89 -483.69)"/><path class="cls-3" d="M1846.65,814.25c-8.69,10.18-25.3,10.73-34.55.71-10-10.81-9.24-22.4.43-32.6,9.87-10.42,21.32-9.67,31.37-2.73C1853.86,789,1854.58,805,1846.65,814.25Zm-22-9.39c3.16,2.24,6.86,2.6,9.52-.07,3.47-3.48,3.42-8.16.14-11.71-3.52-3.81-7.73-2.6-11.53.25C1820.74,797.6,1820.16,801.68,1824.64,804.86Z" transform="translate(-160.89 -483.69)"/><path class="cls-3" d="M1750.77,781.15c11.37-8.2,23.08-7.41,33,3.28,9.16,9.89,8.23,24.13-2.46,32.61-9.21,7.3-19.36,9.8-27.16,4.78C1740.7,806.81,1739.88,789,1750.77,781.15Zm9.66,24.45c4.68,4.37,9.72,2.73,12.93-2.09,2.58-3.89,1.91-9-2.1-11.36-3.48-2.06-8.23-2.36-11.51,1.81C1757.44,798,1757,802.42,1760.43,805.6Z" transform="translate(-160.89 -483.69)"/><path class="cls-3" d="M1766.77,725.57c5.6-2.73,4.43-9,6.86-13.41,5.88-10.64,15.41-14.53,26.32-11.59s17,10.81,17.71,23c.63,11.46-4.88,18.46-14.61,21.88-10.63,3.73-20.57,1.76-27.68-8-3-4.07-3.12-10.11-8.61-12.41Zm21,3.45c3.09,3.83,7.47,3.35,11.25.61,4.25-3.08,4.23-7.59,1.39-11.13A7.43,7.43,0,0,0,1790,717C1785.79,721.08,1784.66,725.23,1787.72,729Z" transform="translate(-160.89 -483.69)"/><path class="cls-3" d="M1755.67,891.43c-9,10.71-24.55,10.46-34.06-.25-9.67-10.9-9.37-22.34.79-32.4s21.53-9.36,32.43-.31C1764,869.23,1764.88,880.49,1755.67,891.43Zm-23.24-10.27c4.13,4.05,9.76,4,13-.9,2.16-3.26,2.55-8.58-1.62-11.5-3.67-2.57-7.85-2-11.3.35C1729.81,873.48,1729.18,878,1732.43,881.16Z" transform="translate(-160.89 -483.69)"/><path class="cls-3" d="M1748,631.24c11.14-9.7,22.61-8.25,32.82,1.52,9.13,8.73,9,25.54-.55,33.09-11,8.77-22.5,8.19-32.69-.74C1738.3,655.11,1738.44,639.56,1748,631.24Zm10,23.82c3.15,3.08,7.84,3.09,11.34-.36,4.21-4.17,4.64-9.22,0-13-3.61-2.88-7.93-1.71-10.58,1.09C1755,647.4,1754.79,651.94,1758,655.06Z" transform="translate(-160.89 -483.69)"/><path class="cls-4" d="M1741.17,717.58c-4-1.59-8.28-2.75-11.62,1.52-3.15,4-2.52,8.64,1.08,11.68,3.77,3.19,8.44,2.43,11.57-1.47S1745.41,721.33,1741.17,717.58Z" transform="translate(-160.89 -483.69)"/><path class="cls-4" d="M1697.94,795.74c-2.88,4-2.67,7.83,1.31,10.91s7.81,2.56,10.93-1.26c3.25-4,2.23-7.87-1.39-11C1704.9,791.11,1701.19,792.15,1697.94,795.74Z" transform="translate(-160.89 -483.69)"/><path class="cls-4" d="M1669.14,880.58c3.83,5.2,7.82,4.78,11.45,1.84s4.55-7.14,1-10.93c-3.1-3.37-7.1-4.83-11-1.39A7.63,7.63,0,0,0,1669.14,880.58Z" transform="translate(-160.89 -483.69)"/><path class="cls-4" d="M1804.22,867.72c-3.59-2.7-7.69-1.66-10.53,1.75-3.09,3.71-2.56,8.09,1.57,11,3.69,2.64,7.94,3.62,11-.88C1809,875.64,1808.17,871.6,1804.22,867.72Z" transform="translate(-160.89 -483.69)"/><path class="cls-4" d="M1822.78,793.32c-2,4.28-2.62,8.36,1.86,11.54,3.16,2.24,6.86,2.6,9.52-.07,3.47-3.48,3.42-8.16.14-11.71C1830.78,789.27,1826.57,790.48,1822.78,793.32Z" transform="translate(-160.89 -483.69)"/><path class="cls-4" d="M1759.73,794c-2.29,4-2.7,8.46.7,11.64,4.68,4.37,9.72,2.73,12.93-2.09,2.58-3.89,1.91-9-2.1-11.36C1767.78,790.09,1763,789.79,1759.73,794Z" transform="translate(-160.89 -483.69)"/><path class="cls-4" d="M1790,717c-4.24,4.1-5.37,8.25-2.31,12s7.47,3.35,11.25.61c4.25-3.08,4.23-7.59,1.39-11.13A7.43,7.43,0,0,0,1790,717Z" transform="translate(-160.89 -483.69)"/><path class="cls-4" d="M1732.52,869.11c-2.71,4.37-3.34,8.86-.09,12,4.13,4.05,9.76,4,13-.9,2.16-3.26,2.55-8.58-1.62-11.5C1740.15,866.19,1736,866.74,1732.52,869.11Z" transform="translate(-160.89 -483.69)"/><path class="cls-4" d="M1758.69,642.84c-3.69,4.56-3.9,9.1-.71,12.22s7.84,3.09,11.34-.36c4.21-4.17,4.64-9.22,0-13C1765.66,638.87,1761.34,640,1758.69,642.84Z" transform="translate(-160.89 -483.69)"/><path class="cls-10" d="M1591.15,973.67c30.92,37,55.67,78,81.28,118.57-3.3,8.88-10.9,14.15-17.18,20.41q-104,103.72-208.15,207.21c-19.67,19.54-38.68,39.93-59.71,57.86-71.67,61.12-178.44,61.66-251.24,2.34-94.72-77.18-102.38-215.62-15.8-303.16,85.49-86.43,171.93-171.91,258-257.74,4-4,8.59-7.42,12.9-11.11C1467.14,851.88,1534.53,906,1591.15,973.67Z" transform="translate(-160.89 -483.69)"/><path class="cls-11" d="M1393.81,803.88c88.18-88.25,175.53-177.34,265-264.28C1704.64,495,1762.46,478.37,1825,489c78.22,13.27,133.3,59.08,158.51,135.35,25.87,78.26,7.19,148.42-48.87,208.11-20.1,21.39-41.29,41.74-62.16,62.38q-99.95,98.79-200,197.42c-25.61-40.55-50.36-81.61-81.28-118.57-56.62-67.69-124-121.79-199.89-165.62C1392.1,806.64,1392.7,805,1393.81,803.88ZM1806.3,658.1c2.14-14.31-6.43-27.87-19.66-27.7-12.72.16-21.17,7.42-22.75,20.52-1.68,14,9.19,23.34,24.11,23.49,5.58.06,10.82-9,16.52-.72,2,5.18-1.9,9.17-2.7,13.77-1.92,11.07,3.15,19,12.44,23.83,8.51,4.38,16.68,3.61,23.88-4.17,7.65-8.26,8.87-17.57,3.88-26.71s-13.74-13.19-24.57-10.33c-4.47,1.18-7.88,6-13.28,4C1796.45,667.7,1805.51,663.37,1806.3,658.1Zm-142.56-77.72c-5.88,5.36-14.56,11.47-6.63,20,7.56,8.14,14.6.66,20.75-4.72,55.91-48.91,118.64-59.71,187.89-34.34,7.57,2.78,17,7.34,20.41-3.83,3.14-10.28-6.57-13-14.15-16-23.61-9.61-48.4-12.81-71.75-14.41C1746.88,527.7,1702,545.53,1663.74,580.38ZM1939,607.94c-3.07-7.39-5.65-17.25-16.56-12.51-9.16,4-5.4,12.06-2.91,19.09,23.56,66.47,15.74,128.09-28,184.17-.94,1.2-1.19,3-1.67,4.51-2.42,7.81-16.62,15-7.7,22.36,11.56,9.56,19.11-5.11,24.59-12.36,28-37.13,47.06-78.07,46-126.24C1952.63,659.89,1949.51,633.23,1939,607.94ZM1765.32,809.72c-13-.44-22.7,10-21.63,23.25,1.12,13.86,10.08,19.66,22.59,19.92,11.21.22,21.14-11,21-23.77C1785.51,817.71,1778.5,810.16,1765.32,809.72Zm-72.87-131.45c-1.32,12.39,10,24.68,22.17,23.74,13-1,21.21-8.62,21.37-22s-7.91-20.6-20.52-22.49C1701.82,658.16,1693.86,665,1692.45,678.27Zm-45.75,9.19c-13-.81-20.92,7.78-22.61,20.57-1.64,12.37,9.51,23.35,22.29,23.22,12.15-.12,21.14-9.27,21.25-24.63C1667.25,695.92,1659,688.24,1646.7,687.46Zm79.53,126.71c11.65,1.08,24.14-12.29,22.41-23.75-1.91-12.7-9.36-20.72-22.94-20.12s-20.13,8.56-20.85,21.51C1705.42,806.12,1713.7,813,1726.23,814.17Zm69.65-72.8c-13,0-21.12,6.94-21.88,20.62-.7,12.67,10.32,23.54,22.64,22.87,11.25-.61,21.36-11.33,21.18-24.06C1816,749.57,1809.12,741.35,1795.88,741.37Zm-43,1.14c12.47,1.78,22.5-6.72,23.19-19.25.74-13.53-6.25-22-19-24.36-12.19-2.31-23.47,9.66-24.8,28.35C1733.94,735.74,1742.11,741,1752.86,742.51Zm-65.43-13c-13.19-.41-21,6.73-22,20.25-1,13.29,8.8,23.93,21.68,23.15,13.16-.79,20-8.62,21.3-21.7C1707.44,738.07,1700.69,730,1687.43,729.54Zm165-84.68c11.1,1.56,22.35-9.09,22.28-20.86-.07-13.16-6.47-21.83-20-23.13-11.65-1.13-22.05,8.75-22.72,21.44C1832.55,634.93,1839.52,643,1852.41,644.86Z" transform="translate(-160.89 -483.69)"/><path class="cls-3" d="M1800.26,527.05c-53.38.65-98.27,18.48-136.52,53.33-5.88,5.36-14.56,11.47-6.63,20,7.56,8.14,14.6.66,20.75-4.72,55.91-48.91,118.64-59.71,187.89-34.34,7.57,2.78,17,7.34,20.41-3.83,3.14-10.28-6.57-13-14.15-16C1848.4,531.85,1823.61,528.65,1800.26,527.05Z" transform="translate(-160.89 -483.69)"/><path class="cls-3" d="M1952.75,687c-.12-27.07-3.24-53.73-13.75-79-3.07-7.39-5.65-17.25-16.56-12.51-9.16,4-5.4,12.06-2.91,19.09,23.56,66.47,15.74,128.09-28,184.17-.94,1.2-1.19,3-1.67,4.51-2.42,7.81-16.62,15-7.7,22.36,11.56,9.56,19.11-5.11,24.59-12.36C1934.79,776.07,1953.8,735.13,1952.75,687Z" transform="translate(-160.89 -483.69)"/><path class="cls-3" d="M1787.24,829.12c-1.73-11.41-8.74-19-21.92-19.4-13-.44-22.7,10-21.63,23.25,1.12,13.86,10.08,19.66,22.59,19.92C1777.49,853.11,1787.42,841.86,1787.24,829.12Z" transform="translate(-160.89 -483.69)"/><path class="cls-3" d="M1804.52,673.69c-5.7-8.27-10.94.78-16.52.72-14.92-.15-25.79-9.54-24.11-23.49,1.58-13.1,10-20.36,22.75-20.52,13.23-.17,21.8,13.39,19.66,27.7-.79,5.27-9.85,9.6-2.13,15.95Zm-19.94-28.92c-4.7.46-7.35,3.83-7,8.21.3,4.6,3.81,7.27,8.4,6.87,4.41-.38,7.34-3,7.1-8.22C1791.55,647.94,1789.55,644.28,1784.58,644.77Z" transform="translate(-160.89 -483.69)"/><path class="cls-3" d="M1736,680c-.16,13.37-8.39,21-21.37,22-12.14.94-23.49-11.35-22.17-23.74,1.41-13.28,9.37-20.11,23-20.74C1728.08,659.42,1736.16,666.62,1736,680Zm-28.87.45c.5,4.57,3.31,6.91,7.85,6.56,4.73-.36,6.65-3.54,6.37-8-.29-4.76-3.36-6.59-7.84-6.47C1709,673.23,1706.61,675.81,1707.12,680.47Z" transform="translate(-160.89 -483.69)"/><path class="cls-3" d="M1646.38,731.25c-12.78.13-23.93-10.85-22.29-23.22,1.69-12.79,9.66-21.38,22.61-20.57,12.33.78,20.55,8.46,20.93,19.16C1667.52,722,1658.53,731.13,1646.38,731.25Zm-1.44-14.78c4.39.58,7.65-1.51,7.92-6.31.23-4.25-1.37-7.89-6.15-8.33-4.54-.41-7.1,2.33-7.9,5.73C1637.82,713.48,1640.67,715.91,1644.94,716.47Z" transform="translate(-160.89 -483.69)"/><path class="cls-3" d="M1725.7,770.3c13.58-.6,21,7.42,22.94,20.12,1.73,11.46-10.76,24.83-22.41,23.75-12.53-1.16-20.81-8-21.38-22.36C1705.57,778.86,1712.21,770.9,1725.7,770.3Zm.37,14.23c-4.44.29-7,3.46-6.31,8.14.63,4.19,2.7,7.68,7.64,6.86,4.38-.72,6.55-3.86,6.59-9C1733.48,786.36,1730.15,784.26,1726.07,784.53Z" transform="translate(-160.89 -483.69)"/><path class="cls-3" d="M1796.64,784.86c-12.32.67-23.34-10.2-22.64-22.87.76-13.68,8.93-20.6,21.88-20.62,13.24,0,20.09,8.2,21.94,19.43C1818,773.53,1807.89,784.25,1796.64,784.86Zm-7.9-20.88c.55,3.57,2.68,6.3,6.16,6.39,4.53.11,7.59-2.93,7.84-7.42.27-4.82-3.23-6.88-7.55-7.62C1791.05,756.69,1788,758.92,1788.74,764Z" transform="translate(-160.89 -483.69)"/><path class="cls-3" d="M1757.07,698.9c12.73,2.41,19.72,10.83,19,24.36-.69,12.53-10.72,21-23.19,19.25-10.75-1.53-18.92-6.77-20.59-15.26C1733.6,708.56,1744.88,696.59,1757.07,698.9Zm-10,22.2c.11,6,4.43,8.31,9.68,7.39,4.24-.75,7.19-4.48,6.19-8.7-.88-3.68-3.72-7.07-8.59-6.61C1750.18,714.21,1747,716.77,1747.06,721.1Z" transform="translate(-160.89 -483.69)"/><path class="cls-3" d="M1804.17,674.05c5.4,2,8.81-2.79,13.28-4,10.83-2.86,19.52,1.08,24.57,10.33s3.77,18.45-3.88,26.71c-7.2,7.78-15.37,8.55-23.88,4.17-9.29-4.78-14.36-12.76-12.44-23.83.8-4.6,4.7-8.59,2.7-13.77Zm11.15,16.36c-.56,4.54,2.57,7.19,6.81,8,4.77.89,7.74-2,8.27-6.21a7,7,0,0,0-5.62-8C1819.34,684,1815.87,685.91,1815.32,690.41Z" transform="translate(-160.89 -483.69)"/><path class="cls-3" d="M1687.13,772.94c-12.88.78-22.68-9.86-21.68-23.15,1-13.52,8.79-20.66,22-20.25s20,8.53,21,21.7C1707.17,764.32,1700.29,772.15,1687.13,772.94Zm-8.1-22.27c0,5.39,3.62,9.14,8.94,8.2,3.55-.63,7.32-3.78,6.58-8.47-.65-4.12-3.7-6.6-7.48-7.4C1682.44,744,1679.06,746.43,1679,750.67Z" transform="translate(-160.89 -483.69)"/><path class="cls-3" d="M1854.65,600.87c13.57,1.3,20,10,20,23.13.07,11.77-11.18,22.42-22.28,20.86-12.89-1.82-19.86-9.93-20.48-22.55C1832.6,609.62,1843,599.74,1854.65,600.87Zm-9.4,22c0,4.11,3,7.28,7.52,7.42,5.47.18,9.09-2.77,8.55-8.34-.41-4.28-4-6.44-7.51-6.44C1848.42,616,1845.27,618.73,1845.25,622.88Z" transform="translate(-160.89 -483.69)"/><path class="cls-7" d="M1793,651.63c-1.48-3.69-3.48-7.35-8.45-6.86-4.7.46-7.35,3.83-7,8.21.3,4.6,3.81,7.27,8.4,6.87C1790.34,659.47,1793.27,656.9,1793,651.63Z" transform="translate(-160.89 -483.69)"/><path class="cls-7" d="M1713.51,672.58c-4.51.65-6.9,3.23-6.39,7.89s3.31,6.91,7.85,6.56c4.73-.36,6.65-3.54,6.37-8C1721.05,674.31,1718,672.48,1713.51,672.58Z" transform="translate(-160.89 -483.69)"/><path class="cls-7" d="M1638.81,707.56c-1,5.92,1.86,8.35,6.13,8.91s7.65-1.51,7.92-6.31c.23-4.25-1.37-7.89-6.15-8.33C1642.17,701.42,1639.61,704.16,1638.81,707.56Z" transform="translate(-160.89 -483.69)"/><path class="cls-7" d="M1734,790.52c-.51-4.16-3.84-6.26-7.92-6-4.44.29-7,3.46-6.31,8.14.63,4.19,2.7,7.68,7.64,6.86C1731.78,798.81,1734,795.67,1734,790.52Z" transform="translate(-160.89 -483.69)"/><path class="cls-7" d="M1795.2,755.32c-4.15,1.37-7.23,3.6-6.46,8.66.55,3.57,2.68,6.3,6.16,6.39,4.53.11,7.59-2.93,7.84-7.42C1803,758.13,1799.51,756.07,1795.2,755.32Z" transform="translate(-160.89 -483.69)"/><path class="cls-7" d="M1766.28,823.77c-4.15,1.37-7.23,3.6-6.45,8.66.54,3.57,2.67,6.3,6.15,6.39,4.53.11,7.6-2.93,7.85-7.42C1774.09,826.58,1770.59,824.52,1766.28,823.77Z" transform="translate(-160.89 -483.69)"/><path class="cls-7" d="M1754.33,713.17c-4.15,1-7.34,3.6-7.27,7.93.11,6,4.43,8.31,9.68,7.39,4.24-.75,7.19-4.48,6.19-8.7C1762.05,716.11,1759.21,712.72,1754.33,713.17Z" transform="translate(-160.89 -483.69)"/><path class="cls-7" d="M1824.78,684.24c-5.44-.23-8.91,1.67-9.46,6.17s2.57,7.19,6.81,8c4.77.89,7.74-2,8.27-6.21A7,7,0,0,0,1824.78,684.24Z" transform="translate(-160.89 -483.69)"/><path class="cls-7" d="M1687.07,743c-4.63,1-8,3.43-8,7.67,0,5.39,3.62,9.14,8.94,8.2,3.55-.63,7.32-3.78,6.58-8.47C1693.9,746.28,1690.85,743.8,1687.07,743Z" transform="translate(-160.89 -483.69)"/><path class="cls-7" d="M1853.81,615.52c-5.39.43-8.54,3.21-8.56,7.36s3,7.28,7.52,7.42c5.47.18,9.09-2.77,8.55-8.34C1860.91,617.68,1857.36,615.52,1853.81,615.52Z" transform="translate(-160.89 -483.69)"/><path class="cls-12" d="M209.76,1287.58c-8.68-23.54-14.09-57.87-18.12-98-1.21-12-1.17-24.53,1.56-30.83,2.89-6.68,4.61,3.17,5.73,14.85,5.77,60.16,15.21,94.58,29.18,98.26,2.65.7,5,5.6,4.63,21.67-.33,14.68-2.76,15.83-5.08,15.61C221.19,1308.55,215,1301.21,209.76,1287.58Z" transform="translate(-160.89 -483.69)"/><path class="cls-12" d="M236.72,1284.1c1.87-10.34,4-15.28,6.6-8.33,2.85,7.63,3.44,19.92,1.87,32.82-1.42,11.73-3.93,15.07-6.44,8.77C235.83,1310,235.88,1297.14,236.72,1284.1Z" transform="translate(-160.89 -483.69)"/><path class="cls-12" d="M513.22,1330.85c8.69-23.54,14.1-57.86,18.12-97.95,1.21-12.05,1.17-24.53-1.55-30.83-2.89-6.69-4.61,3.16-5.73,14.85-5.77,60.15-15.21,94.58-29.19,98.26-2.65.7-5,5.6-4.62,21.66.33,14.69,2.76,15.84,5.07,15.61C501.8,1351.82,507.94,1344.49,513.22,1330.85Z" transform="translate(-160.89 -483.69)"/><path class="cls-12" d="M486.26,1327.38c-1.86-10.34-4-15.28-6.59-8.33-2.86,7.62-3.45,19.91-1.88,32.82,1.43,11.73,3.94,15.07,6.45,8.77C487.15,1353.32,487.11,1340.41,486.26,1327.38Z" transform="translate(-160.89 -483.69)"/><path class="cls-13" d="M587.12,2024.61v48H795.58v92.29H587.12v97.42c0,25.86,13.46,47.24,29.64,47.24H853.47v92.3H616.76c-48.15,0-87-62.75-87-139.54V2024.61c0-76.76,38.89-139.5,87-139.5H853.47v92.25H616.76C600.58,1977.36,587.12,1998.78,587.12,2024.61Z" transform="translate(-160.89 -483.69)"/><path class="cls-13" d="M1223.74,1885.11v516.76h-57.89V2072.62L1108.9,2142l-47.24,58.33L1014.41,2142l-56.95-69.39v329.25H899.57V1885.11L957.46,1956l104.2,127.69L1165.85,1956ZM485.06,1891v516.76H427.17V2078.54l-56.95,69.39L323,2206.27l-47.25-58.34-57-69.39v329.25H160.89V1891l57.89,70.87L323,2089.59,427.17,1961.9Z" transform="translate(-160.89 -483.69)"/><path class="cls-13" d="M1582.46,2143.49c0,142.46-72.71,258.38-162.08,258.38S1258.29,2286,1258.29,2143.49s72.71-258.38,162.09-258.38S1582.46,2001,1582.46,2143.49Zm-57.89,0c0-91.54-46.75-166.13-104.19-166.13s-104.2,74.59-104.2,166.13,46.76,166.08,104.2,166.08S1524.57,2235,1524.57,2143.49Z" transform="translate(-160.89 -483.69)"/><path class="cls-13" d="M1878.71,2310.34l29.64,92.25H1843.5l-29.64-92.25-31-96.74-1.39-4.41c-10.15-26.58-28.25-44.28-49-44.28H1674.5v237.68h-57.89V1885.83h204.7c24.07,0,45.85,15.49,61.57,40.6,15.72,25.86,25.47,60.54,25.47,98.94,0,56.09-20.84,104.82-50.93,127a57,57,0,0,1-25,11.09Zm-57.4-237.72a19.31,19.31,0,0,0,12-4.45c10.65-7.37,17.61-24.34,17.61-42.8,0-17-5.57-28.79-8.84-34-3.69-5.92-10.65-13.29-20.8-13.29H1674.5v95.22Z" transform="translate(-160.89 -483.69)"/><path class="cls-13" d="M1954.94,2401.87V1885.11h57.89v516.76Z" transform="translate(-160.89 -483.69)"/><path class="cls-13" d="M2307.8,2028.33v-3c0-25.83-13.42-47.25-29.64-47.25H2146.62c-16.21,0-29.64,21.42-29.64,47.25v3c0,25.83,13.43,47.25,29.64,47.25h116.72c30.09,0,56.95,20.66,75.5,53.13,1.39,2.2,2.33,4.45,3.72,6.65,14.33,28.07,23.13,64.22,23.13,103.34,0,90.09-45.85,163.17-102.35,163.17H2161.93c-56.49,0-102.35-73.08-102.35-163.17h57.89c0,39.12,19.9,70.87,44.46,70.87h101.41c24.53,0,44.92-31.75,44.92-70.87s-20.39-70.87-44.92-70.87H2146.62c-23.62,0-44.91-14.73-60.67-39.12a135.76,135.76,0,0,1-11.1-22.14c-9.74-22.14-15.27-49.45-15.27-79v-3c0-76.76,38.9-139.5,87-139.5h131.54c48.19,0,87.53,62.74,87.53,139.5v3Z" transform="translate(-160.89 -483.69)"/></svg>